ISO-10303-21;
HEADER;
/* Generated by software containing ST-Developer
 * from STEP Tools, Inc. (www.steptools.com) 
 */
/* OPTION: using custom renumber hook */

FILE_DESCRIPTION(
/* description */ ('STEP AP242 Edition 2',
'CAx-IF Rec.Pracs.---Representation and Presentation of Product Manufa
cturing Information (PMI)---4.0---2014-10-13',
'CAx-IF Rec.Pracs.---3D Tessellated Geometry---0.4---2014-09-14','2;1',
'CAx-IF Rec.Pracs.---User Defined Attributes---1.5---2016-08-15'),
/* implementation_level */ '2;1');

FILE_NAME(
/* name */ 'Part Studio 1 - Part 1',
/* time_stamp */ '2026-06-03T18:16:08Z',
/* author */ (''),
/* organization */ (''),
/* preprocessor_version */ 'ST-DEVELOPER v20',
/* originating_system */ 'ONSHAPE BY PTC INC, 1.215',
/* authorisation */ '  ');

FILE_SCHEMA (('AP242_MANAGED_MODEL_BASED_3D_ENGINEERING_MIM_LF { 1 0 10303 442 3 1 4 }'));
ENDSEC;

DATA;
#10=SHAPE_REPRESENTATION_RELATIONSHIP('','',#132,#11);
#11=ADVANCED_BREP_SHAPE_REPRESENTATION('',(#130),#214);
#12=CYLINDRICAL_SURFACE('',#143,0.0034798);
#13=CYLINDRICAL_SURFACE('',#144,0.0034798);
#14=LINE('',#187,#25);
#15=LINE('',#189,#26);
#16=LINE('',#191,#27);
#17=LINE('',#193,#28);
#18=LINE('',#200,#29);
#19=LINE('',#202,#30);
#20=LINE('',#204,#31);
#21=LINE('',#205,#32);
#22=LINE('',#207,#33);
#23=LINE('',#208,#34);
#24=LINE('',#211,#35);
#25=VECTOR('',#153,1.);
#26=VECTOR('',#154,1.);
#27=VECTOR('',#155,1.);
#28=VECTOR('',#158,1.);
#29=VECTOR('',#163,1.);
#30=VECTOR('',#164,1.);
#31=VECTOR('',#167,1.);
#32=VECTOR('',#168,1.);
#33=VECTOR('',#171,1.);
#34=VECTOR('',#172,1.);
#35=VECTOR('',#177,1.);
#36=ORIENTED_EDGE('',*,*,#66,.T.);
#37=ORIENTED_EDGE('',*,*,#67,.T.);
#38=ORIENTED_EDGE('',*,*,#68,.F.);
#39=ORIENTED_EDGE('',*,*,#69,.T.);
#40=ORIENTED_EDGE('',*,*,#70,.T.);
#41=ORIENTED_EDGE('',*,*,#71,.T.);
#42=ORIENTED_EDGE('',*,*,#72,.T.);
#43=ORIENTED_EDGE('',*,*,#73,.T.);
#44=ORIENTED_EDGE('',*,*,#74,.F.);
#45=ORIENTED_EDGE('',*,*,#75,.T.);
#46=ORIENTED_EDGE('',*,*,#68,.T.);
#47=ORIENTED_EDGE('',*,*,#76,.T.);
#48=ORIENTED_EDGE('',*,*,#71,.F.);
#49=ORIENTED_EDGE('',*,*,#77,.T.);
#50=ORIENTED_EDGE('',*,*,#74,.T.);
#51=ORIENTED_EDGE('',*,*,#78,.T.);
#52=ORIENTED_EDGE('',*,*,#70,.F.);
#53=ORIENTED_EDGE('',*,*,#79,.T.);
#54=ORIENTED_EDGE('',*,*,#69,.F.);
#55=ORIENTED_EDGE('',*,*,#77,.F.);
#56=ORIENTED_EDGE('',*,*,#75,.F.);
#57=ORIENTED_EDGE('',*,*,#79,.F.);
#58=ORIENTED_EDGE('',*,*,#80,.F.);
#59=ORIENTED_EDGE('',*,*,#66,.F.);
#60=ORIENTED_EDGE('',*,*,#78,.F.);
#61=ORIENTED_EDGE('',*,*,#73,.F.);
#62=ORIENTED_EDGE('',*,*,#67,.F.);
#63=ORIENTED_EDGE('',*,*,#80,.T.);
#64=ORIENTED_EDGE('',*,*,#72,.F.);
#65=ORIENTED_EDGE('',*,*,#76,.F.);
#66=EDGE_CURVE('',#81,#82,#91,.F.);
#67=EDGE_CURVE('',#82,#83,#92,.F.);
#68=EDGE_CURVE('',#84,#83,#14,.T.);
#69=EDGE_CURVE('',#84,#85,#15,.F.);
#70=EDGE_CURVE('',#85,#81,#16,.T.);
#71=EDGE_CURVE('',#86,#87,#17,.T.);
#72=EDGE_CURVE('',#87,#88,#93,.T.);
#73=EDGE_CURVE('',#88,#89,#94,.T.);
#74=EDGE_CURVE('',#90,#89,#18,.T.);
#75=EDGE_CURVE('',#90,#86,#19,.F.);
#76=EDGE_CURVE('',#83,#87,#20,.T.);
#77=EDGE_CURVE('',#86,#84,#21,.T.);
#78=EDGE_CURVE('',#89,#81,#22,.F.);
#79=EDGE_CURVE('',#85,#90,#23,.F.);
#80=EDGE_CURVE('',#82,#88,#24,.T.);
#81=VERTEX_POINT('',#183);
#82=VERTEX_POINT('',#184);
#83=VERTEX_POINT('',#186);
#84=VERTEX_POINT('',#188);
#85=VERTEX_POINT('',#190);
#86=VERTEX_POINT('',#194);
#87=VERTEX_POINT('',#195);
#88=VERTEX_POINT('',#197);
#89=VERTEX_POINT('',#199);
#90=VERTEX_POINT('',#201);
#91=CIRCLE('',#135,0.0034798);
#92=CIRCLE('',#136,0.0034798);
#93=CIRCLE('',#138,0.0034798);
#94=CIRCLE('',#139,0.0034798);
#95=EDGE_LOOP('',(#36,#37,#38,#39,#40));
#96=EDGE_LOOP('',(#41,#42,#43,#44,#45));
#97=EDGE_LOOP('',(#46,#47,#48,#49));
#98=EDGE_LOOP('',(#50,#51,#52,#53));
#99=EDGE_LOOP('',(#54,#55,#56,#57));
#100=EDGE_LOOP('',(#58,#59,#60,#61));
#101=EDGE_LOOP('',(#62,#63,#64,#65));
#102=FACE_BOUND('',#95,.T.);
#103=FACE_BOUND('',#96,.T.);
#104=FACE_BOUND('',#97,.T.);
#105=FACE_BOUND('',#98,.T.);
#106=FACE_BOUND('',#99,.T.);
#107=FACE_BOUND('',#100,.T.);
#108=FACE_BOUND('',#101,.T.);
#109=PLANE('',#134);
#110=PLANE('',#137);
#111=PLANE('',#140);
#112=PLANE('',#141);
#113=PLANE('',#142);
#114=ADVANCED_FACE('',(#102),#109,.F.);
#115=ADVANCED_FACE('',(#103),#110,.T.);
#116=ADVANCED_FACE('',(#104),#111,.T.);
#117=ADVANCED_FACE('',(#105),#112,.F.);
#118=ADVANCED_FACE('',(#106),#113,.F.);
#119=ADVANCED_FACE('',(#107),#12,.T.);
#120=ADVANCED_FACE('',(#108),#13,.T.);
#121=CLOSED_SHELL('',(#114,#115,#116,#117,#118,#119,#120));
#122=STYLED_ITEM('',(#123),#130);
#123=PRESENTATION_STYLE_ASSIGNMENT((#124));
#124=SURFACE_STYLE_USAGE(.BOTH.,#125);
#125=SURFACE_SIDE_STYLE('',(#126));
#126=SURFACE_STYLE_FILL_AREA(#127);
#127=FILL_AREA_STYLE('',(#128));
#128=FILL_AREA_STYLE_COLOUR('',#129);
#129=COLOUR_RGB('',0.647058823529412,0.647058823529412,0.647058823529412);
#130=MANIFOLD_SOLID_BREP('Part 1',#121);
#131=SHAPE_DEFINITION_REPRESENTATION(#219,#132);
#132=SHAPE_REPRESENTATION('Part 1',(#133),#214);
#133=AXIS2_PLACEMENT_3D('',#180,#145,#146);
#134=AXIS2_PLACEMENT_3D('',#181,#147,#148);
#135=AXIS2_PLACEMENT_3D('',#182,#149,#150);
#136=AXIS2_PLACEMENT_3D('',#185,#151,#152);
#137=AXIS2_PLACEMENT_3D('',#192,#156,#157);
#138=AXIS2_PLACEMENT_3D('',#196,#159,#160);
#139=AXIS2_PLACEMENT_3D('',#198,#161,#162);
#140=AXIS2_PLACEMENT_3D('',#203,#165,#166);
#141=AXIS2_PLACEMENT_3D('',#206,#169,#170);
#142=AXIS2_PLACEMENT_3D('',#209,#173,#174);
#143=AXIS2_PLACEMENT_3D('',#210,#175,#176);
#144=AXIS2_PLACEMENT_3D('',#212,#178,#179);
#145=DIRECTION('',(0.,0.,1.));
#146=DIRECTION('',(1.,0.,0.));
#147=DIRECTION('',(0.707106781186547,-0.707106781186548,0.));
#148=DIRECTION('',(0.,0.,-1.));
#149=DIRECTION('',(0.707106781186547,-0.707106781186548,0.));
#150=DIRECTION('',(0.707106781186548,0.707106781186547,0.));
#151=DIRECTION('',(0.707106781186547,-0.707106781186548,0.));
#152=DIRECTION('',(0.707106781186548,0.707106781186547,0.));
#153=DIRECTION('',(0.,0.,-1.));
#154=DIRECTION('',(-0.5,-0.5,-0.707106781186549));
#155=DIRECTION('',(0.,0.,-1.));
#156=DIRECTION('',(0.707106781186547,-0.707106781186548,0.));
#157=DIRECTION('',(0.,0.,-1.));
#158=DIRECTION('',(0.,0.,-1.));
#159=DIRECTION('',(0.707106781186547,-0.707106781186548,0.));
#160=DIRECTION('',(0.707106781186548,0.707106781186547,0.));
#161=DIRECTION('',(0.707106781186547,-0.707106781186548,0.));
#162=DIRECTION('',(0.707106781186548,0.707106781186547,0.));
#163=DIRECTION('',(0.,0.,-1.));
#164=DIRECTION('',(0.5,0.5,0.707106781186549));
#165=DIRECTION('',(-0.707106781186548,-0.707106781186547,0.));
#166=DIRECTION('',(0.707106781186547,-0.707106781186548,0.));
#167=DIRECTION('',(0.707106781186547,-0.707106781186548,0.));
#168=DIRECTION('',(-0.707106781186547,0.707106781186548,0.));
#169=DIRECTION('',(-0.707106781186548,-0.707106781186547,0.));
#170=DIRECTION('',(0.707106781186547,-0.707106781186548,0.));
#171=DIRECTION('',(0.707106781186547,-0.707106781186548,0.));
#172=DIRECTION('',(-0.707106781186547,0.707106781186548,-1.61771349781076E-16));
#173=DIRECTION('',(0.5,0.5,-0.707106781186547));
#174=DIRECTION('',(0.707106781186547,-0.707106781186548,0.));
#175=DIRECTION('',(0.707106781186547,-0.707106781186548,0.));
#176=DIRECTION('',(0.707106781186548,0.707106781186547,0.));
#177=DIRECTION('',(0.707106781186547,-0.707106781186548,0.));
#178=DIRECTION('',(-0.707106781186547,0.707106781186548,0.));
#179=DIRECTION('',(-0.707106781186548,-0.707106781186547,0.));
#180=CARTESIAN_POINT('',(0.,0.,0.));
#181=CARTESIAN_POINT('',(0.0972309061408115,-0.0189159739526771,0.00502914366531373));
#182=CARTESIAN_POINT('',(0.0983058498695713,-0.0178410302239173,-0.134239056334686));
#183=CARTESIAN_POINT('',(0.100766440046744,-0.0153804400467444,-0.134239056334686));
#184=CARTESIAN_POINT('',(0.0989986730937779,-0.0171482069997108,-0.137578068164554));
#185=CARTESIAN_POINT('',(0.0996914963179845,-0.0164553837755041,-0.134239056334686));
#186=CARTESIAN_POINT('',(0.0972309061408115,-0.0189159739526771,-0.134239056334686));
#187=CARTESIAN_POINT('',(0.0972309061408115,-0.0189159739526771,0.00502914366531373));
#188=CARTESIAN_POINT('',(0.0972309061408115,-0.0189159739526771,0.142697143665314));
#189=CARTESIAN_POINT('',(0.100823008589239,-0.0153238715042495,0.147777143665314));
#190=CARTESIAN_POINT('',(0.100766440046744,-0.0153804400467444,0.147697143665314));
#191=CARTESIAN_POINT('',(0.100766440046744,-0.0153804400467444,0.00502914366531373));
#192=CARTESIAN_POINT('',(0.200036878214811,-0.121721946026677,0.00502914366531373));
#193=CARTESIAN_POINT('',(0.200036878214811,-0.121721946026677,0.00502914366531373));
#194=CARTESIAN_POINT('',(0.200036878214811,-0.121721946026677,0.142697143665314));
#195=CARTESIAN_POINT('',(0.200036878214811,-0.121721946026677,-0.134239056334686));
#196=CARTESIAN_POINT('',(0.202497468391984,-0.119261355849504,-0.134239056334686));
#197=CARTESIAN_POINT('',(0.201804645167778,-0.11995417907371,-0.137578068164554));
#198=CARTESIAN_POINT('',(0.201111821943571,-0.120647002297917,-0.134239056334686));
#199=CARTESIAN_POINT('',(0.203572412120744,-0.118186412120744,-0.134239056334686));
#200=CARTESIAN_POINT('',(0.203572412120744,-0.118186412120744,0.00502914366531373));
#201=CARTESIAN_POINT('',(0.203572412120744,-0.118186412120744,0.147697143665314));
#202=CARTESIAN_POINT('',(0.151363890038616,-0.170394934202871,0.0738631436653136));
#203=CARTESIAN_POINT('',(0.00338536235081652,0.0749295698373181,0.054828238099993));
#204=CARTESIAN_POINT('',(0.200036878214811,-0.121721946026677,-0.134239056334686));
#205=CARTESIAN_POINT('',(0.00338536235081652,0.0749295698373181,0.142697143665314));
#206=CARTESIAN_POINT('',(0.00692089625674927,0.0784651037432508,0.054828238099993));
#207=CARTESIAN_POINT('',(0.00692089625674927,0.0784651037432508,-0.134239056334686));
#208=CARTESIAN_POINT('',(0.152169426083744,-0.0667834260837442,0.147697143665314));
#209=CARTESIAN_POINT('',(0.152225994626239,-0.0667268575412493,0.147777143665314));
#210=CARTESIAN_POINT('',(0.149708835906571,-0.0692440162609172,-0.134239056334686));
#211=CARTESIAN_POINT('',(0.150401659130777,-0.0685511930367106,-0.137578068164554));
#212=CARTESIAN_POINT('',(0.00584595252798947,0.077390160014491,-0.134239056334686));
#213=MECHANICAL_DESIGN_GEOMETRIC_PRESENTATION_REPRESENTATION('',(#122),
#214);
#214=(
GEOMETRIC_REPRESENTATION_CONTEXT(3)
GLOBAL_UNCERTAINTY_ASSIGNED_CONTEXT((#215))
GLOBAL_UNIT_ASSIGNED_CONTEXT((#218,#217,#216))
REPRESENTATION_CONTEXT('Part 1','TOP_LEVEL_ASSEMBLY_PART')
);
#215=UNCERTAINTY_MEASURE_WITH_UNIT(LENGTH_MEASURE(1.E-8),#218,
'DISTANCE_ACCURACY_VALUE','Maximum Tolerance applied to model');
#216=(
NAMED_UNIT(*)
SI_UNIT($,.STERADIAN.)
SOLID_ANGLE_UNIT()
);
#217=(
NAMED_UNIT(*)
PLANE_ANGLE_UNIT()
SI_UNIT($,.RADIAN.)
);
#218=(
LENGTH_UNIT()
NAMED_UNIT(*)
SI_UNIT($,.METRE.)
);
#219=PRODUCT_DEFINITION_SHAPE('','',#220);
#220=PRODUCT_DEFINITION('','',#222,#221);
#221=PRODUCT_DEFINITION_CONTEXT('',#228,'design');
#222=PRODUCT_DEFINITION_FORMATION_WITH_SPECIFIED_SOURCE('','',#224,
 .NOT_KNOWN.);
#223=PRODUCT_RELATED_PRODUCT_CATEGORY('','',(#224));
#224=PRODUCT('Part 1','Part 1','Part 1',(#226));
#225=PRODUCT_CATEGORY('','');
#226=PRODUCT_CONTEXT('',#228,'mechanical');
#227=APPLICATION_PROTOCOL_DEFINITION('international standard',
'ap242_managed_model_based_3d_engineering',2020,#228);
#228=APPLICATION_CONTEXT('managed model based 3d engineering');
ENDSEC;
END-ISO-10303-21;
