ISO-10303-21;
HEADER;
/* Generated by software containing ST-Developer
 * from STEP Tools, Inc. (www.steptools.com) 
 */
/* OPTION: using custom renumber hook */

FILE_DESCRIPTION(
/* description */ ('STEP AP242 Edition 2',
'CAx-IF Rec.Pracs.---Representation and Presentation of Product Manufa
cturing Information (PMI)---4.0---2014-10-13',
'CAx-IF Rec.Pracs.---3D Tessellated Geometry---0.4---2014-09-14','2;1',
'CAx-IF Rec.Pracs.---User Defined Attributes---1.5---2016-08-15'),
/* implementation_level */ '2;1');

FILE_NAME(
/* name */ 'Part Studio 1 - Part 6',
/* time_stamp */ '2026-06-03T18:16:48Z',
/* author */ (''),
/* organization */ (''),
/* preprocessor_version */ 'ST-DEVELOPER v20',
/* originating_system */ 'ONSHAPE BY PTC INC, 1.215',
/* authorisation */ '  ');

FILE_SCHEMA (('AP242_MANAGED_MODEL_BASED_3D_ENGINEERING_MIM_LF { 1 0 10303 442 3 1 4 }'));
ENDSEC;

DATA;
#10=SHAPE_REPRESENTATION_RELATIONSHIP('','',#1228,#11);
#11=ADVANCED_BREP_SHAPE_REPRESENTATION('',(#1226),#2048);
#12=B_SPLINE_SURFACE_WITH_KNOTS('',3,1,((#1825,#1826),(#1827,#1828),(#1829,
#1830),(#1831,#1832)),.SURF_OF_LINEAR_EXTRUSION.,.F.,.F.,.F.,(4,4),(2,2),
(0.,1.),(0.,1.),.PIECEWISE_BEZIER_KNOTS.);
#13=B_SPLINE_SURFACE_WITH_KNOTS('',3,1,((#1840,#1841),(#1842,#1843),(#1844,
#1845),(#1846,#1847)),.SURF_OF_LINEAR_EXTRUSION.,.F.,.F.,.F.,(4,4),(2,2),
(0.,1.),(0.,1.),.PIECEWISE_BEZIER_KNOTS.);
#14=B_SPLINE_SURFACE_WITH_KNOTS('',3,1,((#1853,#1854),(#1855,#1856),(#1857,
#1858),(#1859,#1860)),.SURF_OF_LINEAR_EXTRUSION.,.F.,.F.,.F.,(4,4),(2,2),
(0.,1.),(0.,1.),.PIECEWISE_BEZIER_KNOTS.);
#15=B_SPLINE_SURFACE_WITH_KNOTS('',3,1,((#1866,#1867),(#1868,#1869),(#1870,
#1871),(#1872,#1873)),.SURF_OF_LINEAR_EXTRUSION.,.F.,.F.,.F.,(4,4),(2,2),
(0.,1.),(0.,1.),.PIECEWISE_BEZIER_KNOTS.);
#16=B_SPLINE_SURFACE_WITH_KNOTS('',3,1,((#1891,#1892),(#1893,#1894),(#1895,
#1896),(#1897,#1898)),.SURF_OF_LINEAR_EXTRUSION.,.F.,.F.,.F.,(4,4),(2,2),
(0.,1.),(0.,1.),.PIECEWISE_BEZIER_KNOTS.);
#17=B_SPLINE_SURFACE_WITH_KNOTS('',3,1,((#1904,#1905),(#1906,#1907),(#1908,
#1909),(#1910,#1911)),.SURF_OF_LINEAR_EXTRUSION.,.F.,.F.,.F.,(4,4),(2,2),
(0.,1.),(0.,1.),.PIECEWISE_BEZIER_KNOTS.);
#18=B_SPLINE_SURFACE_WITH_KNOTS('',3,1,((#1917,#1918),(#1919,#1920),(#1921,
#1922),(#1923,#1924)),.SURF_OF_LINEAR_EXTRUSION.,.F.,.F.,.F.,(4,4),(2,2),
(0.,1.),(0.,1.),.PIECEWISE_BEZIER_KNOTS.);
#19=B_SPLINE_SURFACE_WITH_KNOTS('',3,1,((#1930,#1931),(#1932,#1933),(#1934,
#1935),(#1936,#1937)),.SURF_OF_LINEAR_EXTRUSION.,.F.,.F.,.F.,(4,4),(2,2),
(0.,1.),(0.,1.),.PIECEWISE_BEZIER_KNOTS.);
#20=B_SPLINE_SURFACE_WITH_KNOTS('',3,1,((#1955,#1956),(#1957,#1958),(#1959,
#1960),(#1961,#1962)),.SURF_OF_LINEAR_EXTRUSION.,.F.,.F.,.F.,(4,4),(2,2),
(0.,1.),(0.,1.),.PIECEWISE_BEZIER_KNOTS.);
#21=B_SPLINE_SURFACE_WITH_KNOTS('',3,1,((#1968,#1969),(#1970,#1971),(#1972,
#1973),(#1974,#1975)),.SURF_OF_LINEAR_EXTRUSION.,.F.,.F.,.F.,(4,4),(2,2),
(0.,1.),(0.,1.),.PIECEWISE_BEZIER_KNOTS.);
#22=TOROIDAL_SURFACE('',#1260,0.0355202,0.0034798);
#23=ELLIPSE('',#1255,0.0049211803543459,0.0034798);
#24=ELLIPSE('',#1257,0.0049211803543459,0.0034798);
#25=CYLINDRICAL_SURFACE('',#1240,0.0016);
#26=CYLINDRICAL_SURFACE('',#1242,0.0016);
#27=CYLINDRICAL_SURFACE('',#1244,0.0016);
#28=CYLINDRICAL_SURFACE('',#1246,0.0016);
#29=CYLINDRICAL_SURFACE('',#1248,0.0375);
#30=CYLINDRICAL_SURFACE('',#1251,0.039);
#31=CYLINDRICAL_SURFACE('',#1253,0.0034798);
#32=CYLINDRICAL_SURFACE('',#1256,0.0034798);
#33=CYLINDRICAL_SURFACE('',#1258,0.0034798);
#34=B_SPLINE_CURVE_WITH_KNOTS('',2,(#1619,#1620,#1621),.UNSPECIFIED.,.F.,
 .F.,(3,3),(0.,1.),.PIECEWISE_BEZIER_KNOTS.);
#35=B_SPLINE_CURVE_WITH_KNOTS('',2,(#1624,#1625,#1626),.UNSPECIFIED.,.F.,
 .F.,(3,3),(0.,1.),.PIECEWISE_BEZIER_KNOTS.);
#36=B_SPLINE_CURVE_WITH_KNOTS('',2,(#1628,#1629,#1630),.UNSPECIFIED.,.F.,
 .F.,(3,3),(0.,1.),.PIECEWISE_BEZIER_KNOTS.);
#37=B_SPLINE_CURVE_WITH_KNOTS('',2,(#1632,#1633,#1634),.UNSPECIFIED.,.F.,
 .F.,(3,3),(0.,1.),.PIECEWISE_BEZIER_KNOTS.);
#38=B_SPLINE_CURVE_WITH_KNOTS('',2,(#1642,#1643,#1644),.UNSPECIFIED.,.F.,
 .F.,(3,3),(0.,1.),.PIECEWISE_BEZIER_KNOTS.);
#39=B_SPLINE_CURVE_WITH_KNOTS('',2,(#1646,#1647,#1648),.UNSPECIFIED.,.F.,
 .F.,(3,3),(0.,1.),.PIECEWISE_BEZIER_KNOTS.);
#40=B_SPLINE_CURVE_WITH_KNOTS('',2,(#1650,#1651,#1652),.UNSPECIFIED.,.F.,
 .F.,(3,3),(0.,1.),.PIECEWISE_BEZIER_KNOTS.);
#41=B_SPLINE_CURVE_WITH_KNOTS('',2,(#1654,#1655,#1656),.UNSPECIFIED.,.F.,
 .F.,(3,3),(0.,1.),.PIECEWISE_BEZIER_KNOTS.);
#42=B_SPLINE_CURVE_WITH_KNOTS('',2,(#1664,#1665,#1666),.UNSPECIFIED.,.F.,
 .F.,(3,3),(0.,1.),.PIECEWISE_BEZIER_KNOTS.);
#43=B_SPLINE_CURVE_WITH_KNOTS('',2,(#1668,#1669,#1670),.UNSPECIFIED.,.F.,
 .F.,(3,3),(0.,1.),.PIECEWISE_BEZIER_KNOTS.);
#44=B_SPLINE_CURVE_WITH_KNOTS('',3,(#1729,#1730,#1731,#1732,#1733,#1734,
#1735,#1736,#1737,#1738,#1739),.UNSPECIFIED.,.F.,.F.,(4,1,1,1,1,1,1,1,4),
(0.,0.000946485786232245,0.00189297157246449,0.00283945735869673,0.00378594314492898,
0.00473242893116122,0.00567891471739347,0.00662540050362571,0.00757188628985796),
 .UNSPECIFIED.);
#45=B_SPLINE_CURVE_WITH_KNOTS('',3,(#1743,#1744,#1745,#1746,#1747,#1748,
#1749,#1750,#1751,#1752,#1753),.UNSPECIFIED.,.F.,.F.,(4,1,1,1,1,1,1,1,4),
(0.,0.00094648578623224,0.00189297157246448,0.00283945735869672,0.00378594314492896,
0.0047324289311612,0.00567891471739344,0.00662540050362568,0.00757188628985792),
 .UNSPECIFIED.);
#46=B_SPLINE_CURVE_WITH_KNOTS('',2,(#1835,#1836,#1837),.UNSPECIFIED.,.F.,
 .F.,(3,3),(0.,1.),.PIECEWISE_BEZIER_KNOTS.);
#47=B_SPLINE_CURVE_WITH_KNOTS('',2,(#1850,#1851,#1852),.UNSPECIFIED.,.F.,
 .F.,(3,3),(0.,1.),.PIECEWISE_BEZIER_KNOTS.);
#48=B_SPLINE_CURVE_WITH_KNOTS('',2,(#1863,#1864,#1865),.UNSPECIFIED.,.F.,
 .F.,(3,3),(0.,1.),.PIECEWISE_BEZIER_KNOTS.);
#49=B_SPLINE_CURVE_WITH_KNOTS('',2,(#1876,#1877,#1878),.UNSPECIFIED.,.F.,
 .F.,(3,3),(0.,1.),.PIECEWISE_BEZIER_KNOTS.);
#50=B_SPLINE_CURVE_WITH_KNOTS('',2,(#1901,#1902,#1903),.UNSPECIFIED.,.F.,
 .F.,(3,3),(0.,1.),.PIECEWISE_BEZIER_KNOTS.);
#51=B_SPLINE_CURVE_WITH_KNOTS('',2,(#1914,#1915,#1916),.UNSPECIFIED.,.F.,
 .F.,(3,3),(0.,1.),.PIECEWISE_BEZIER_KNOTS.);
#52=B_SPLINE_CURVE_WITH_KNOTS('',2,(#1927,#1928,#1929),.UNSPECIFIED.,.F.,
 .F.,(3,3),(0.,1.),.PIECEWISE_BEZIER_KNOTS.);
#53=B_SPLINE_CURVE_WITH_KNOTS('',2,(#1940,#1941,#1942),.UNSPECIFIED.,.F.,
 .F.,(3,3),(0.,1.),.PIECEWISE_BEZIER_KNOTS.);
#54=B_SPLINE_CURVE_WITH_KNOTS('',2,(#1965,#1966,#1967),.UNSPECIFIED.,.F.,
 .F.,(3,3),(0.,1.),.PIECEWISE_BEZIER_KNOTS.);
#55=B_SPLINE_CURVE_WITH_KNOTS('',2,(#1976,#1977,#1978),.UNSPECIFIED.,.F.,
 .F.,(3,3),(0.,1.),.PIECEWISE_BEZIER_KNOTS.);
#56=LINE('',#1579,#185);
#57=LINE('',#1582,#186);
#58=LINE('',#1586,#187);
#59=LINE('',#1590,#188);
#60=LINE('',#1592,#189);
#61=LINE('',#1594,#190);
#62=LINE('',#1595,#191);
#63=LINE('',#1598,#192);
#64=LINE('',#1600,#193);
#65=LINE('',#1602,#194);
#66=LINE('',#1604,#195);
#67=LINE('',#1606,#196);
#68=LINE('',#1608,#197);
#69=LINE('',#1610,#198);
#70=LINE('',#1612,#199);
#71=LINE('',#1614,#200);
#72=LINE('',#1616,#201);
#73=LINE('',#1618,#202);
#74=LINE('',#1636,#203);
#75=LINE('',#1638,#204);
#76=LINE('',#1640,#205);
#77=LINE('',#1658,#206);
#78=LINE('',#1660,#207);
#79=LINE('',#1662,#208);
#80=LINE('',#1671,#209);
#81=LINE('',#1674,#210);
#82=LINE('',#1676,#211);
#83=LINE('',#1678,#212);
#84=LINE('',#1680,#213);
#85=LINE('',#1682,#214);
#86=LINE('',#1683,#215);
#87=LINE('',#1686,#216);
#88=LINE('',#1688,#217);
#89=LINE('',#1690,#218);
#90=LINE('',#1692,#219);
#91=LINE('',#1694,#220);
#92=LINE('',#1696,#221);
#93=LINE('',#1698,#222);
#94=LINE('',#1700,#223);
#95=LINE('',#1702,#224);
#96=LINE('',#1704,#225);
#97=LINE('',#1706,#226);
#98=LINE('',#1708,#227);
#99=LINE('',#1710,#228);
#100=LINE('',#1713,#229);
#101=LINE('',#1715,#230);
#102=LINE('',#1717,#231);
#103=LINE('',#1719,#232);
#104=LINE('',#1722,#233);
#105=LINE('',#1723,#234);
#106=LINE('',#1725,#235);
#107=LINE('',#1777,#236);
#108=LINE('',#1779,#237);
#109=LINE('',#1781,#238);
#110=LINE('',#1783,#239);
#111=LINE('',#1785,#240);
#112=LINE('',#1787,#241);
#113=LINE('',#1789,#242);
#114=LINE('',#1791,#243);
#115=LINE('',#1793,#244);
#116=LINE('',#1795,#245);
#117=LINE('',#1797,#246);
#118=LINE('',#1799,#247);
#119=LINE('',#1801,#248);
#120=LINE('',#1803,#249);
#121=LINE('',#1805,#250);
#122=LINE('',#1807,#251);
#123=LINE('',#1809,#252);
#124=LINE('',#1811,#253);
#125=LINE('',#1813,#254);
#126=LINE('',#1815,#255);
#127=LINE('',#1817,#256);
#128=LINE('',#1819,#257);
#129=LINE('',#1821,#258);
#130=LINE('',#1823,#259);
#131=LINE('',#1833,#260);
#132=LINE('',#1839,#261);
#133=LINE('',#1848,#262);
#134=LINE('',#1861,#263);
#135=LINE('',#1874,#264);
#136=LINE('',#1880,#265);
#137=LINE('',#1882,#266);
#138=LINE('',#1884,#267);
#139=LINE('',#1886,#268);
#140=LINE('',#1888,#269);
#141=LINE('',#1890,#270);
#142=LINE('',#1899,#271);
#143=LINE('',#1912,#272);
#144=LINE('',#1925,#273);
#145=LINE('',#1938,#274);
#146=LINE('',#1944,#275);
#147=LINE('',#1946,#276);
#148=LINE('',#1948,#277);
#149=LINE('',#1950,#278);
#150=LINE('',#1952,#279);
#151=LINE('',#1954,#280);
#152=LINE('',#1963,#281);
#153=LINE('',#1981,#282);
#154=LINE('',#1983,#283);
#155=LINE('',#1985,#284);
#156=LINE('',#1987,#285);
#157=LINE('',#1989,#286);
#158=LINE('',#1991,#287);
#159=LINE('',#1993,#288);
#160=LINE('',#1995,#289);
#161=LINE('',#1997,#290);
#162=LINE('',#1999,#291);
#163=LINE('',#2001,#292);
#164=LINE('',#2003,#293);
#165=LINE('',#2006,#294);
#166=LINE('',#2008,#295);
#167=LINE('',#2010,#296);
#168=LINE('',#2012,#297);
#169=LINE('',#2014,#298);
#170=LINE('',#2016,#299);
#171=LINE('',#2018,#300);
#172=LINE('',#2020,#301);
#173=LINE('',#2022,#302);
#174=LINE('',#2024,#303);
#175=LINE('',#2026,#304);
#176=LINE('',#2028,#305);
#177=LINE('',#2030,#306);
#178=LINE('',#2032,#307);
#179=LINE('',#2034,#308);
#180=LINE('',#2036,#309);
#181=LINE('',#2038,#310);
#182=LINE('',#2040,#311);
#183=LINE('',#2042,#312);
#184=LINE('',#2044,#313);
#185=VECTOR('',#1310,1.);
#186=VECTOR('',#1311,1.);
#187=VECTOR('',#1314,1.);
#188=VECTOR('',#1317,1.);
#189=VECTOR('',#1318,1.);
#190=VECTOR('',#1319,1.);
#191=VECTOR('',#1320,1.);
#192=VECTOR('',#1321,1.);
#193=VECTOR('',#1322,1.);
#194=VECTOR('',#1323,1.);
#195=VECTOR('',#1324,1.);
#196=VECTOR('',#1325,1.);
#197=VECTOR('',#1326,1.);
#198=VECTOR('',#1327,1.);
#199=VECTOR('',#1328,1.);
#200=VECTOR('',#1329,1.);
#201=VECTOR('',#1330,1.);
#202=VECTOR('',#1331,1.);
#203=VECTOR('',#1332,1.);
#204=VECTOR('',#1333,1.);
#205=VECTOR('',#1334,1.);
#206=VECTOR('',#1335,1.);
#207=VECTOR('',#1336,1.);
#208=VECTOR('',#1337,1.);
#209=VECTOR('',#1338,1.);
#210=VECTOR('',#1339,1.);
#211=VECTOR('',#1340,1.);
#212=VECTOR('',#1341,1.);
#213=VECTOR('',#1342,1.);
#214=VECTOR('',#1343,1.);
#215=VECTOR('',#1344,1.);
#216=VECTOR('',#1345,1.);
#217=VECTOR('',#1346,1.);
#218=VECTOR('',#1347,1.);
#219=VECTOR('',#1348,1.);
#220=VECTOR('',#1349,1.);
#221=VECTOR('',#1350,1.);
#222=VECTOR('',#1351,1.);
#223=VECTOR('',#1352,1.);
#224=VECTOR('',#1353,1.);
#225=VECTOR('',#1356,1.);
#226=VECTOR('',#1357,1.);
#227=VECTOR('',#1358,1.);
#228=VECTOR('',#1361,1.);
#229=VECTOR('',#1362,1.);
#230=VECTOR('',#1363,1.);
#231=VECTOR('',#1364,1.);
#232=VECTOR('',#1367,1.);
#233=VECTOR('',#1368,1.);
#234=VECTOR('',#1369,1.);
#235=VECTOR('',#1372,1.);
#236=VECTOR('',#1417,1.);
#237=VECTOR('',#1418,1.);
#238=VECTOR('',#1419,1.);
#239=VECTOR('',#1422,1.);
#240=VECTOR('',#1423,1.);
#241=VECTOR('',#1426,1.);
#242=VECTOR('',#1427,1.);
#243=VECTOR('',#1430,1.);
#244=VECTOR('',#1431,1.);
#245=VECTOR('',#1434,1.);
#246=VECTOR('',#1435,1.);
#247=VECTOR('',#1438,1.);
#248=VECTOR('',#1439,1.);
#249=VECTOR('',#1442,1.);
#250=VECTOR('',#1443,1.);
#251=VECTOR('',#1446,1.);
#252=VECTOR('',#1447,1.);
#253=VECTOR('',#1450,1.);
#254=VECTOR('',#1451,1.);
#255=VECTOR('',#1454,1.);
#256=VECTOR('',#1455,1.);
#257=VECTOR('',#1458,1.);
#258=VECTOR('',#1459,1.);
#259=VECTOR('',#1462,1.);
#260=VECTOR('',#1465,1.);
#261=VECTOR('',#1466,1.);
#262=VECTOR('',#1467,1.);
#263=VECTOR('',#1468,1.);
#264=VECTOR('',#1469,1.);
#265=VECTOR('',#1472,1.);
#266=VECTOR('',#1473,1.);
#267=VECTOR('',#1476,1.);
#268=VECTOR('',#1477,1.);
#269=VECTOR('',#1480,1.);
#270=VECTOR('',#1481,1.);
#271=VECTOR('',#1482,1.);
#272=VECTOR('',#1483,1.);
#273=VECTOR('',#1484,1.);
#274=VECTOR('',#1485,1.);
#275=VECTOR('',#1488,1.);
#276=VECTOR('',#1489,1.);
#277=VECTOR('',#1492,1.);
#278=VECTOR('',#1493,1.);
#279=VECTOR('',#1496,1.);
#280=VECTOR('',#1497,1.);
#281=VECTOR('',#1498,1.);
#282=VECTOR('',#1503,1.);
#283=VECTOR('',#1504,1.);
#284=VECTOR('',#1505,1.);
#285=VECTOR('',#1508,1.);
#286=VECTOR('',#1509,1.);
#287=VECTOR('',#1512,1.);
#288=VECTOR('',#1513,1.);
#289=VECTOR('',#1516,1.);
#290=VECTOR('',#1517,1.);
#291=VECTOR('',#1520,1.);
#292=VECTOR('',#1521,1.);
#293=VECTOR('',#1524,1.);
#294=VECTOR('',#1529,1.);
#295=VECTOR('',#1530,1.);
#296=VECTOR('',#1531,1.);
#297=VECTOR('',#1534,1.);
#298=VECTOR('',#1535,1.);
#299=VECTOR('',#1538,1.);
#300=VECTOR('',#1539,1.);
#301=VECTOR('',#1542,1.);
#302=VECTOR('',#1543,1.);
#303=VECTOR('',#1546,1.);
#304=VECTOR('',#1547,1.);
#305=VECTOR('',#1550,1.);
#306=VECTOR('',#1551,1.);
#307=VECTOR('',#1554,1.);
#308=VECTOR('',#1555,1.);
#309=VECTOR('',#1558,1.);
#310=VECTOR('',#1559,1.);
#311=VECTOR('',#1562,1.);
#312=VECTOR('',#1563,1.);
#313=VECTOR('',#1566,1.);
#314=ORIENTED_EDGE('',*,*,#648,.F.);
#315=ORIENTED_EDGE('',*,*,#649,.F.);
#316=ORIENTED_EDGE('',*,*,#650,.F.);
#317=ORIENTED_EDGE('',*,*,#651,.T.);
#318=ORIENTED_EDGE('',*,*,#652,.T.);
#319=ORIENTED_EDGE('',*,*,#653,.F.);
#320=ORIENTED_EDGE('',*,*,#654,.T.);
#321=ORIENTED_EDGE('',*,*,#655,.F.);
#322=ORIENTED_EDGE('',*,*,#656,.T.);
#323=ORIENTED_EDGE('',*,*,#657,.F.);
#324=ORIENTED_EDGE('',*,*,#658,.T.);
#325=ORIENTED_EDGE('',*,*,#659,.T.);
#326=ORIENTED_EDGE('',*,*,#660,.T.);
#327=ORIENTED_EDGE('',*,*,#661,.T.);
#328=ORIENTED_EDGE('',*,*,#662,.T.);
#329=ORIENTED_EDGE('',*,*,#663,.T.);
#330=ORIENTED_EDGE('',*,*,#664,.T.);
#331=ORIENTED_EDGE('',*,*,#665,.T.);
#332=ORIENTED_EDGE('',*,*,#666,.T.);
#333=ORIENTED_EDGE('',*,*,#667,.T.);
#334=ORIENTED_EDGE('',*,*,#668,.T.);
#335=ORIENTED_EDGE('',*,*,#669,.T.);
#336=ORIENTED_EDGE('',*,*,#670,.T.);
#337=ORIENTED_EDGE('',*,*,#671,.T.);
#338=ORIENTED_EDGE('',*,*,#672,.T.);
#339=ORIENTED_EDGE('',*,*,#673,.T.);
#340=ORIENTED_EDGE('',*,*,#674,.T.);
#341=ORIENTED_EDGE('',*,*,#675,.T.);
#342=ORIENTED_EDGE('',*,*,#676,.T.);
#343=ORIENTED_EDGE('',*,*,#677,.T.);
#344=ORIENTED_EDGE('',*,*,#678,.T.);
#345=ORIENTED_EDGE('',*,*,#679,.T.);
#346=ORIENTED_EDGE('',*,*,#680,.T.);
#347=ORIENTED_EDGE('',*,*,#681,.T.);
#348=ORIENTED_EDGE('',*,*,#682,.T.);
#349=ORIENTED_EDGE('',*,*,#683,.T.);
#350=ORIENTED_EDGE('',*,*,#684,.T.);
#351=ORIENTED_EDGE('',*,*,#685,.T.);
#352=ORIENTED_EDGE('',*,*,#686,.T.);
#353=ORIENTED_EDGE('',*,*,#687,.T.);
#354=ORIENTED_EDGE('',*,*,#688,.T.);
#355=ORIENTED_EDGE('',*,*,#689,.T.);
#356=ORIENTED_EDGE('',*,*,#690,.T.);
#357=ORIENTED_EDGE('',*,*,#691,.T.);
#358=ORIENTED_EDGE('',*,*,#692,.T.);
#359=ORIENTED_EDGE('',*,*,#693,.T.);
#360=ORIENTED_EDGE('',*,*,#694,.T.);
#361=ORIENTED_EDGE('',*,*,#695,.T.);
#362=ORIENTED_EDGE('',*,*,#696,.T.);
#363=ORIENTED_EDGE('',*,*,#697,.T.);
#364=ORIENTED_EDGE('',*,*,#698,.T.);
#365=ORIENTED_EDGE('',*,*,#699,.T.);
#366=ORIENTED_EDGE('',*,*,#700,.T.);
#367=ORIENTED_EDGE('',*,*,#701,.T.);
#368=ORIENTED_EDGE('',*,*,#702,.T.);
#369=ORIENTED_EDGE('',*,*,#703,.T.);
#370=ORIENTED_EDGE('',*,*,#704,.T.);
#371=ORIENTED_EDGE('',*,*,#705,.T.);
#372=ORIENTED_EDGE('',*,*,#657,.T.);
#373=ORIENTED_EDGE('',*,*,#706,.T.);
#374=ORIENTED_EDGE('',*,*,#707,.T.);
#375=ORIENTED_EDGE('',*,*,#708,.T.);
#376=ORIENTED_EDGE('',*,*,#709,.T.);
#377=ORIENTED_EDGE('',*,*,#710,.F.);
#378=ORIENTED_EDGE('',*,*,#711,.T.);
#379=ORIENTED_EDGE('',*,*,#651,.F.);
#380=ORIENTED_EDGE('',*,*,#712,.F.);
#381=ORIENTED_EDGE('',*,*,#713,.F.);
#382=ORIENTED_EDGE('',*,*,#712,.T.);
#383=ORIENTED_EDGE('',*,*,#658,.F.);
#384=ORIENTED_EDGE('',*,*,#705,.F.);
#385=ORIENTED_EDGE('',*,*,#714,.T.);
#386=ORIENTED_EDGE('',*,*,#655,.T.);
#387=ORIENTED_EDGE('',*,*,#715,.T.);
#388=ORIENTED_EDGE('',*,*,#716,.T.);
#389=ORIENTED_EDGE('',*,*,#653,.T.);
#390=ORIENTED_EDGE('',*,*,#717,.T.);
#391=ORIENTED_EDGE('',*,*,#718,.T.);
#392=ORIENTED_EDGE('',*,*,#650,.T.);
#393=ORIENTED_EDGE('',*,*,#719,.T.);
#394=ORIENTED_EDGE('',*,*,#649,.T.);
#395=ORIENTED_EDGE('',*,*,#720,.T.);
#396=ORIENTED_EDGE('',*,*,#721,.T.);
#397=ORIENTED_EDGE('',*,*,#722,.T.);
#398=ORIENTED_EDGE('',*,*,#648,.T.);
#399=ORIENTED_EDGE('',*,*,#723,.F.);
#400=ORIENTED_EDGE('',*,*,#706,.F.);
#401=ORIENTED_EDGE('',*,*,#724,.F.);
#402=ORIENTED_EDGE('',*,*,#711,.F.);
#403=ORIENTED_EDGE('',*,*,#724,.T.);
#404=ORIENTED_EDGE('',*,*,#709,.F.);
#405=ORIENTED_EDGE('',*,*,#725,.F.);
#406=ORIENTED_EDGE('',*,*,#656,.F.);
#407=ORIENTED_EDGE('',*,*,#715,.F.);
#408=ORIENTED_EDGE('',*,*,#654,.F.);
#409=ORIENTED_EDGE('',*,*,#717,.F.);
#410=ORIENTED_EDGE('',*,*,#652,.F.);
#411=ORIENTED_EDGE('',*,*,#726,.F.);
#412=ORIENTED_EDGE('',*,*,#703,.F.);
#413=ORIENTED_EDGE('',*,*,#725,.T.);
#414=ORIENTED_EDGE('',*,*,#708,.F.);
#415=ORIENTED_EDGE('',*,*,#722,.F.);
#416=ORIENTED_EDGE('',*,*,#721,.F.);
#417=ORIENTED_EDGE('',*,*,#660,.F.);
#418=ORIENTED_EDGE('',*,*,#727,.F.);
#419=ORIENTED_EDGE('',*,*,#728,.T.);
#420=ORIENTED_EDGE('',*,*,#729,.T.);
#421=ORIENTED_EDGE('',*,*,#659,.F.);
#422=ORIENTED_EDGE('',*,*,#730,.F.);
#423=ORIENTED_EDGE('',*,*,#731,.T.);
#424=ORIENTED_EDGE('',*,*,#727,.T.);
#425=ORIENTED_EDGE('',*,*,#670,.F.);
#426=ORIENTED_EDGE('',*,*,#732,.F.);
#427=ORIENTED_EDGE('',*,*,#733,.T.);
#428=ORIENTED_EDGE('',*,*,#730,.T.);
#429=ORIENTED_EDGE('',*,*,#669,.F.);
#430=ORIENTED_EDGE('',*,*,#734,.F.);
#431=ORIENTED_EDGE('',*,*,#735,.T.);
#432=ORIENTED_EDGE('',*,*,#732,.T.);
#433=ORIENTED_EDGE('',*,*,#668,.F.);
#434=ORIENTED_EDGE('',*,*,#736,.F.);
#435=ORIENTED_EDGE('',*,*,#737,.T.);
#436=ORIENTED_EDGE('',*,*,#734,.T.);
#437=ORIENTED_EDGE('',*,*,#667,.F.);
#438=ORIENTED_EDGE('',*,*,#738,.F.);
#439=ORIENTED_EDGE('',*,*,#739,.T.);
#440=ORIENTED_EDGE('',*,*,#736,.T.);
#441=ORIENTED_EDGE('',*,*,#666,.F.);
#442=ORIENTED_EDGE('',*,*,#740,.F.);
#443=ORIENTED_EDGE('',*,*,#741,.T.);
#444=ORIENTED_EDGE('',*,*,#738,.T.);
#445=ORIENTED_EDGE('',*,*,#665,.F.);
#446=ORIENTED_EDGE('',*,*,#742,.F.);
#447=ORIENTED_EDGE('',*,*,#743,.T.);
#448=ORIENTED_EDGE('',*,*,#740,.T.);
#449=ORIENTED_EDGE('',*,*,#664,.F.);
#450=ORIENTED_EDGE('',*,*,#744,.F.);
#451=ORIENTED_EDGE('',*,*,#745,.T.);
#452=ORIENTED_EDGE('',*,*,#742,.T.);
#453=ORIENTED_EDGE('',*,*,#663,.F.);
#454=ORIENTED_EDGE('',*,*,#746,.F.);
#455=ORIENTED_EDGE('',*,*,#747,.T.);
#456=ORIENTED_EDGE('',*,*,#744,.T.);
#457=ORIENTED_EDGE('',*,*,#662,.F.);
#458=ORIENTED_EDGE('',*,*,#748,.F.);
#459=ORIENTED_EDGE('',*,*,#749,.T.);
#460=ORIENTED_EDGE('',*,*,#746,.T.);
#461=ORIENTED_EDGE('',*,*,#661,.F.);
#462=ORIENTED_EDGE('',*,*,#729,.F.);
#463=ORIENTED_EDGE('',*,*,#750,.T.);
#464=ORIENTED_EDGE('',*,*,#748,.T.);
#465=ORIENTED_EDGE('',*,*,#728,.F.);
#466=ORIENTED_EDGE('',*,*,#731,.F.);
#467=ORIENTED_EDGE('',*,*,#733,.F.);
#468=ORIENTED_EDGE('',*,*,#735,.F.);
#469=ORIENTED_EDGE('',*,*,#737,.F.);
#470=ORIENTED_EDGE('',*,*,#739,.F.);
#471=ORIENTED_EDGE('',*,*,#741,.F.);
#472=ORIENTED_EDGE('',*,*,#743,.F.);
#473=ORIENTED_EDGE('',*,*,#745,.F.);
#474=ORIENTED_EDGE('',*,*,#747,.F.);
#475=ORIENTED_EDGE('',*,*,#749,.F.);
#476=ORIENTED_EDGE('',*,*,#750,.F.);
#477=ORIENTED_EDGE('',*,*,#672,.F.);
#478=ORIENTED_EDGE('',*,*,#751,.F.);
#479=ORIENTED_EDGE('',*,*,#752,.T.);
#480=ORIENTED_EDGE('',*,*,#753,.T.);
#481=ORIENTED_EDGE('',*,*,#671,.F.);
#482=ORIENTED_EDGE('',*,*,#754,.F.);
#483=ORIENTED_EDGE('',*,*,#755,.T.);
#484=ORIENTED_EDGE('',*,*,#751,.T.);
#485=ORIENTED_EDGE('',*,*,#686,.F.);
#486=ORIENTED_EDGE('',*,*,#756,.F.);
#487=ORIENTED_EDGE('',*,*,#757,.T.);
#488=ORIENTED_EDGE('',*,*,#754,.T.);
#489=ORIENTED_EDGE('',*,*,#685,.F.);
#490=ORIENTED_EDGE('',*,*,#758,.F.);
#491=ORIENTED_EDGE('',*,*,#759,.T.);
#492=ORIENTED_EDGE('',*,*,#756,.T.);
#493=ORIENTED_EDGE('',*,*,#684,.F.);
#494=ORIENTED_EDGE('',*,*,#760,.F.);
#495=ORIENTED_EDGE('',*,*,#761,.T.);
#496=ORIENTED_EDGE('',*,*,#758,.T.);
#497=ORIENTED_EDGE('',*,*,#683,.F.);
#498=ORIENTED_EDGE('',*,*,#762,.F.);
#499=ORIENTED_EDGE('',*,*,#763,.T.);
#500=ORIENTED_EDGE('',*,*,#760,.T.);
#501=ORIENTED_EDGE('',*,*,#682,.F.);
#502=ORIENTED_EDGE('',*,*,#764,.F.);
#503=ORIENTED_EDGE('',*,*,#765,.T.);
#504=ORIENTED_EDGE('',*,*,#762,.T.);
#505=ORIENTED_EDGE('',*,*,#681,.F.);
#506=ORIENTED_EDGE('',*,*,#766,.F.);
#507=ORIENTED_EDGE('',*,*,#767,.T.);
#508=ORIENTED_EDGE('',*,*,#764,.T.);
#509=ORIENTED_EDGE('',*,*,#680,.F.);
#510=ORIENTED_EDGE('',*,*,#768,.F.);
#511=ORIENTED_EDGE('',*,*,#769,.T.);
#512=ORIENTED_EDGE('',*,*,#766,.T.);
#513=ORIENTED_EDGE('',*,*,#679,.F.);
#514=ORIENTED_EDGE('',*,*,#770,.F.);
#515=ORIENTED_EDGE('',*,*,#771,.T.);
#516=ORIENTED_EDGE('',*,*,#768,.T.);
#517=ORIENTED_EDGE('',*,*,#678,.F.);
#518=ORIENTED_EDGE('',*,*,#772,.F.);
#519=ORIENTED_EDGE('',*,*,#773,.T.);
#520=ORIENTED_EDGE('',*,*,#770,.T.);
#521=ORIENTED_EDGE('',*,*,#677,.F.);
#522=ORIENTED_EDGE('',*,*,#774,.F.);
#523=ORIENTED_EDGE('',*,*,#775,.T.);
#524=ORIENTED_EDGE('',*,*,#772,.T.);
#525=ORIENTED_EDGE('',*,*,#676,.F.);
#526=ORIENTED_EDGE('',*,*,#776,.F.);
#527=ORIENTED_EDGE('',*,*,#777,.T.);
#528=ORIENTED_EDGE('',*,*,#774,.T.);
#529=ORIENTED_EDGE('',*,*,#675,.F.);
#530=ORIENTED_EDGE('',*,*,#778,.F.);
#531=ORIENTED_EDGE('',*,*,#779,.T.);
#532=ORIENTED_EDGE('',*,*,#776,.T.);
#533=ORIENTED_EDGE('',*,*,#674,.F.);
#534=ORIENTED_EDGE('',*,*,#780,.F.);
#535=ORIENTED_EDGE('',*,*,#781,.T.);
#536=ORIENTED_EDGE('',*,*,#778,.T.);
#537=ORIENTED_EDGE('',*,*,#673,.F.);
#538=ORIENTED_EDGE('',*,*,#753,.F.);
#539=ORIENTED_EDGE('',*,*,#782,.T.);
#540=ORIENTED_EDGE('',*,*,#780,.T.);
#541=ORIENTED_EDGE('',*,*,#752,.F.);
#542=ORIENTED_EDGE('',*,*,#755,.F.);
#543=ORIENTED_EDGE('',*,*,#757,.F.);
#544=ORIENTED_EDGE('',*,*,#759,.F.);
#545=ORIENTED_EDGE('',*,*,#761,.F.);
#546=ORIENTED_EDGE('',*,*,#763,.F.);
#547=ORIENTED_EDGE('',*,*,#765,.F.);
#548=ORIENTED_EDGE('',*,*,#767,.F.);
#549=ORIENTED_EDGE('',*,*,#769,.F.);
#550=ORIENTED_EDGE('',*,*,#771,.F.);
#551=ORIENTED_EDGE('',*,*,#773,.F.);
#552=ORIENTED_EDGE('',*,*,#775,.F.);
#553=ORIENTED_EDGE('',*,*,#777,.F.);
#554=ORIENTED_EDGE('',*,*,#779,.F.);
#555=ORIENTED_EDGE('',*,*,#781,.F.);
#556=ORIENTED_EDGE('',*,*,#782,.F.);
#557=ORIENTED_EDGE('',*,*,#688,.F.);
#558=ORIENTED_EDGE('',*,*,#783,.F.);
#559=ORIENTED_EDGE('',*,*,#784,.T.);
#560=ORIENTED_EDGE('',*,*,#785,.T.);
#561=ORIENTED_EDGE('',*,*,#687,.F.);
#562=ORIENTED_EDGE('',*,*,#786,.F.);
#563=ORIENTED_EDGE('',*,*,#787,.T.);
#564=ORIENTED_EDGE('',*,*,#783,.T.);
#565=ORIENTED_EDGE('',*,*,#692,.F.);
#566=ORIENTED_EDGE('',*,*,#788,.F.);
#567=ORIENTED_EDGE('',*,*,#789,.T.);
#568=ORIENTED_EDGE('',*,*,#786,.T.);
#569=ORIENTED_EDGE('',*,*,#691,.F.);
#570=ORIENTED_EDGE('',*,*,#790,.F.);
#571=ORIENTED_EDGE('',*,*,#791,.T.);
#572=ORIENTED_EDGE('',*,*,#788,.T.);
#573=ORIENTED_EDGE('',*,*,#690,.F.);
#574=ORIENTED_EDGE('',*,*,#792,.F.);
#575=ORIENTED_EDGE('',*,*,#793,.T.);
#576=ORIENTED_EDGE('',*,*,#790,.T.);
#577=ORIENTED_EDGE('',*,*,#689,.F.);
#578=ORIENTED_EDGE('',*,*,#785,.F.);
#579=ORIENTED_EDGE('',*,*,#794,.T.);
#580=ORIENTED_EDGE('',*,*,#792,.T.);
#581=ORIENTED_EDGE('',*,*,#784,.F.);
#582=ORIENTED_EDGE('',*,*,#787,.F.);
#583=ORIENTED_EDGE('',*,*,#789,.F.);
#584=ORIENTED_EDGE('',*,*,#791,.F.);
#585=ORIENTED_EDGE('',*,*,#793,.F.);
#586=ORIENTED_EDGE('',*,*,#794,.F.);
#587=ORIENTED_EDGE('',*,*,#694,.F.);
#588=ORIENTED_EDGE('',*,*,#795,.F.);
#589=ORIENTED_EDGE('',*,*,#796,.T.);
#590=ORIENTED_EDGE('',*,*,#797,.T.);
#591=ORIENTED_EDGE('',*,*,#693,.F.);
#592=ORIENTED_EDGE('',*,*,#798,.F.);
#593=ORIENTED_EDGE('',*,*,#799,.T.);
#594=ORIENTED_EDGE('',*,*,#795,.T.);
#595=ORIENTED_EDGE('',*,*,#702,.F.);
#596=ORIENTED_EDGE('',*,*,#800,.F.);
#597=ORIENTED_EDGE('',*,*,#801,.T.);
#598=ORIENTED_EDGE('',*,*,#798,.T.);
#599=ORIENTED_EDGE('',*,*,#701,.F.);
#600=ORIENTED_EDGE('',*,*,#802,.F.);
#601=ORIENTED_EDGE('',*,*,#803,.T.);
#602=ORIENTED_EDGE('',*,*,#800,.T.);
#603=ORIENTED_EDGE('',*,*,#700,.F.);
#604=ORIENTED_EDGE('',*,*,#804,.F.);
#605=ORIENTED_EDGE('',*,*,#805,.T.);
#606=ORIENTED_EDGE('',*,*,#802,.T.);
#607=ORIENTED_EDGE('',*,*,#699,.F.);
#608=ORIENTED_EDGE('',*,*,#806,.F.);
#609=ORIENTED_EDGE('',*,*,#807,.T.);
#610=ORIENTED_EDGE('',*,*,#804,.T.);
#611=ORIENTED_EDGE('',*,*,#698,.F.);
#612=ORIENTED_EDGE('',*,*,#808,.F.);
#613=ORIENTED_EDGE('',*,*,#809,.T.);
#614=ORIENTED_EDGE('',*,*,#806,.T.);
#615=ORIENTED_EDGE('',*,*,#697,.F.);
#616=ORIENTED_EDGE('',*,*,#810,.F.);
#617=ORIENTED_EDGE('',*,*,#811,.T.);
#618=ORIENTED_EDGE('',*,*,#808,.T.);
#619=ORIENTED_EDGE('',*,*,#696,.F.);
#620=ORIENTED_EDGE('',*,*,#812,.F.);
#621=ORIENTED_EDGE('',*,*,#813,.T.);
#622=ORIENTED_EDGE('',*,*,#810,.T.);
#623=ORIENTED_EDGE('',*,*,#695,.F.);
#624=ORIENTED_EDGE('',*,*,#797,.F.);
#625=ORIENTED_EDGE('',*,*,#814,.T.);
#626=ORIENTED_EDGE('',*,*,#812,.T.);
#627=ORIENTED_EDGE('',*,*,#796,.F.);
#628=ORIENTED_EDGE('',*,*,#799,.F.);
#629=ORIENTED_EDGE('',*,*,#801,.F.);
#630=ORIENTED_EDGE('',*,*,#803,.F.);
#631=ORIENTED_EDGE('',*,*,#805,.F.);
#632=ORIENTED_EDGE('',*,*,#807,.F.);
#633=ORIENTED_EDGE('',*,*,#809,.F.);
#634=ORIENTED_EDGE('',*,*,#811,.F.);
#635=ORIENTED_EDGE('',*,*,#813,.F.);
#636=ORIENTED_EDGE('',*,*,#814,.F.);
#637=ORIENTED_EDGE('',*,*,#716,.F.);
#638=ORIENTED_EDGE('',*,*,#719,.F.);
#639=ORIENTED_EDGE('',*,*,#710,.T.);
#640=ORIENTED_EDGE('',*,*,#713,.T.);
#641=ORIENTED_EDGE('',*,*,#704,.F.);
#642=ORIENTED_EDGE('',*,*,#726,.T.);
#643=ORIENTED_EDGE('',*,*,#707,.F.);
#644=ORIENTED_EDGE('',*,*,#723,.T.);
#645=ORIENTED_EDGE('',*,*,#720,.F.);
#646=ORIENTED_EDGE('',*,*,#718,.F.);
#647=ORIENTED_EDGE('',*,*,#714,.F.);
#648=EDGE_CURVE('',#815,#815,#929,.T.);
#649=EDGE_CURVE('',#816,#816,#930,.T.);
#650=EDGE_CURVE('',#817,#817,#931,.T.);
#651=EDGE_CURVE('',#818,#819,#56,.T.);
#652=EDGE_CURVE('',#819,#820,#57,.F.);
#653=EDGE_CURVE('',#821,#820,#932,.T.);
#654=EDGE_CURVE('',#821,#822,#58,.F.);
#655=EDGE_CURVE('',#823,#822,#933,.T.);
#656=EDGE_CURVE('',#823,#824,#59,.F.);
#657=EDGE_CURVE('',#825,#824,#60,.T.);
#658=EDGE_CURVE('',#825,#818,#61,.T.);
#659=EDGE_CURVE('',#826,#827,#62,.T.);
#660=EDGE_CURVE('',#827,#828,#63,.T.);
#661=EDGE_CURVE('',#828,#829,#64,.T.);
#662=EDGE_CURVE('',#829,#830,#65,.T.);
#663=EDGE_CURVE('',#830,#831,#66,.T.);
#664=EDGE_CURVE('',#831,#832,#67,.T.);
#665=EDGE_CURVE('',#832,#833,#68,.T.);
#666=EDGE_CURVE('',#833,#834,#69,.T.);
#667=EDGE_CURVE('',#834,#835,#70,.T.);
#668=EDGE_CURVE('',#835,#836,#71,.T.);
#669=EDGE_CURVE('',#836,#837,#72,.T.);
#670=EDGE_CURVE('',#837,#826,#73,.T.);
#671=EDGE_CURVE('',#838,#839,#34,.T.);
#672=EDGE_CURVE('',#839,#840,#35,.T.);
#673=EDGE_CURVE('',#840,#841,#36,.T.);
#674=EDGE_CURVE('',#841,#842,#37,.T.);
#675=EDGE_CURVE('',#842,#843,#74,.T.);
#676=EDGE_CURVE('',#843,#844,#75,.T.);
#677=EDGE_CURVE('',#844,#845,#76,.T.);
#678=EDGE_CURVE('',#845,#846,#38,.T.);
#679=EDGE_CURVE('',#846,#847,#39,.T.);
#680=EDGE_CURVE('',#847,#848,#40,.T.);
#681=EDGE_CURVE('',#848,#849,#41,.T.);
#682=EDGE_CURVE('',#849,#850,#77,.T.);
#683=EDGE_CURVE('',#850,#851,#78,.T.);
#684=EDGE_CURVE('',#851,#852,#79,.T.);
#685=EDGE_CURVE('',#852,#853,#42,.T.);
#686=EDGE_CURVE('',#853,#838,#43,.T.);
#687=EDGE_CURVE('',#854,#855,#80,.T.);
#688=EDGE_CURVE('',#855,#856,#81,.T.);
#689=EDGE_CURVE('',#856,#857,#82,.T.);
#690=EDGE_CURVE('',#857,#858,#83,.T.);
#691=EDGE_CURVE('',#858,#859,#84,.T.);
#692=EDGE_CURVE('',#859,#854,#85,.T.);
#693=EDGE_CURVE('',#860,#861,#86,.T.);
#694=EDGE_CURVE('',#861,#862,#87,.T.);
#695=EDGE_CURVE('',#862,#863,#88,.T.);
#696=EDGE_CURVE('',#863,#864,#89,.T.);
#697=EDGE_CURVE('',#864,#865,#90,.T.);
#698=EDGE_CURVE('',#865,#866,#91,.T.);
#699=EDGE_CURVE('',#866,#867,#92,.T.);
#700=EDGE_CURVE('',#867,#868,#93,.T.);
#701=EDGE_CURVE('',#868,#869,#94,.T.);
#702=EDGE_CURVE('',#869,#860,#95,.T.);
#703=EDGE_CURVE('',#824,#870,#96,.F.);
#704=EDGE_CURVE('',#870,#871,#97,.T.);
#705=EDGE_CURVE('',#871,#825,#98,.T.);
#706=EDGE_CURVE('',#872,#873,#99,.F.);
#707=EDGE_CURVE('',#873,#874,#100,.T.);
#708=EDGE_CURVE('',#874,#875,#101,.T.);
#709=EDGE_CURVE('',#875,#872,#102,.T.);
#710=EDGE_CURVE('',#876,#877,#103,.T.);
#711=EDGE_CURVE('',#876,#819,#104,.T.);
#712=EDGE_CURVE('',#877,#818,#105,.T.);
#713=EDGE_CURVE('',#877,#871,#106,.T.);
#714=EDGE_CURVE('',#878,#878,#934,.F.);
#715=EDGE_CURVE('',#822,#823,#44,.T.);
#716=EDGE_CURVE('',#879,#879,#935,.F.);
#717=EDGE_CURVE('',#820,#821,#45,.T.);
#718=EDGE_CURVE('',#880,#880,#936,.F.);
#719=EDGE_CURVE('',#881,#881,#937,.F.);
#720=EDGE_CURVE('',#882,#882,#938,.F.);
#721=EDGE_CURVE('',#883,#883,#939,.T.);
#722=EDGE_CURVE('',#884,#884,#940,.F.);
#723=EDGE_CURVE('',#873,#876,#941,.F.);
#724=EDGE_CURVE('',#819,#872,#23,.F.);
#725=EDGE_CURVE('',#824,#875,#24,.T.);
#726=EDGE_CURVE('',#870,#874,#942,.F.);
#727=EDGE_CURVE('',#885,#827,#107,.T.);
#728=EDGE_CURVE('',#885,#886,#108,.T.);
#729=EDGE_CURVE('',#886,#828,#109,.T.);
#730=EDGE_CURVE('',#887,#826,#110,.T.);
#731=EDGE_CURVE('',#887,#885,#111,.T.);
#732=EDGE_CURVE('',#888,#837,#112,.T.);
#733=EDGE_CURVE('',#888,#887,#113,.T.);
#734=EDGE_CURVE('',#889,#836,#114,.T.);
#735=EDGE_CURVE('',#889,#888,#115,.T.);
#736=EDGE_CURVE('',#890,#835,#116,.T.);
#737=EDGE_CURVE('',#890,#889,#117,.T.);
#738=EDGE_CURVE('',#891,#834,#118,.T.);
#739=EDGE_CURVE('',#891,#890,#119,.T.);
#740=EDGE_CURVE('',#892,#833,#120,.T.);
#741=EDGE_CURVE('',#892,#891,#121,.T.);
#742=EDGE_CURVE('',#893,#832,#122,.T.);
#743=EDGE_CURVE('',#893,#892,#123,.T.);
#744=EDGE_CURVE('',#894,#831,#124,.T.);
#745=EDGE_CURVE('',#894,#893,#125,.T.);
#746=EDGE_CURVE('',#895,#830,#126,.T.);
#747=EDGE_CURVE('',#895,#894,#127,.T.);
#748=EDGE_CURVE('',#896,#829,#128,.T.);
#749=EDGE_CURVE('',#896,#895,#129,.T.);
#750=EDGE_CURVE('',#886,#896,#130,.T.);
#751=EDGE_CURVE('',#897,#839,#131,.T.);
#752=EDGE_CURVE('',#897,#898,#46,.T.);
#753=EDGE_CURVE('',#898,#840,#132,.T.);
#754=EDGE_CURVE('',#899,#838,#133,.T.);
#755=EDGE_CURVE('',#899,#897,#47,.T.);
#756=EDGE_CURVE('',#900,#853,#134,.T.);
#757=EDGE_CURVE('',#900,#899,#48,.T.);
#758=EDGE_CURVE('',#901,#852,#135,.T.);
#759=EDGE_CURVE('',#901,#900,#49,.T.);
#760=EDGE_CURVE('',#902,#851,#136,.T.);
#761=EDGE_CURVE('',#902,#901,#137,.T.);
#762=EDGE_CURVE('',#903,#850,#138,.T.);
#763=EDGE_CURVE('',#903,#902,#139,.T.);
#764=EDGE_CURVE('',#904,#849,#140,.T.);
#765=EDGE_CURVE('',#904,#903,#141,.T.);
#766=EDGE_CURVE('',#905,#848,#142,.T.);
#767=EDGE_CURVE('',#905,#904,#50,.T.);
#768=EDGE_CURVE('',#906,#847,#143,.T.);
#769=EDGE_CURVE('',#906,#905,#51,.T.);
#770=EDGE_CURVE('',#907,#846,#144,.T.);
#771=EDGE_CURVE('',#907,#906,#52,.T.);
#772=EDGE_CURVE('',#908,#845,#145,.T.);
#773=EDGE_CURVE('',#908,#907,#53,.T.);
#774=EDGE_CURVE('',#909,#844,#146,.T.);
#775=EDGE_CURVE('',#909,#908,#147,.T.);
#776=EDGE_CURVE('',#910,#843,#148,.T.);
#777=EDGE_CURVE('',#910,#909,#149,.T.);
#778=EDGE_CURVE('',#911,#842,#150,.T.);
#779=EDGE_CURVE('',#911,#910,#151,.T.);
#780=EDGE_CURVE('',#912,#841,#152,.T.);
#781=EDGE_CURVE('',#912,#911,#54,.T.);
#782=EDGE_CURVE('',#898,#912,#55,.T.);
#783=EDGE_CURVE('',#913,#855,#153,.T.);
#784=EDGE_CURVE('',#913,#914,#154,.T.);
#785=EDGE_CURVE('',#914,#856,#155,.T.);
#786=EDGE_CURVE('',#915,#854,#156,.T.);
#787=EDGE_CURVE('',#915,#913,#157,.T.);
#788=EDGE_CURVE('',#916,#859,#158,.T.);
#789=EDGE_CURVE('',#916,#915,#159,.T.);
#790=EDGE_CURVE('',#917,#858,#160,.T.);
#791=EDGE_CURVE('',#917,#916,#161,.T.);
#792=EDGE_CURVE('',#918,#857,#162,.T.);
#793=EDGE_CURVE('',#918,#917,#163,.T.);
#794=EDGE_CURVE('',#914,#918,#164,.T.);
#795=EDGE_CURVE('',#919,#861,#165,.T.);
#796=EDGE_CURVE('',#919,#920,#166,.T.);
#797=EDGE_CURVE('',#920,#862,#167,.T.);
#798=EDGE_CURVE('',#921,#860,#168,.T.);
#799=EDGE_CURVE('',#921,#919,#169,.T.);
#800=EDGE_CURVE('',#922,#869,#170,.T.);
#801=EDGE_CURVE('',#922,#921,#171,.T.);
#802=EDGE_CURVE('',#923,#868,#172,.T.);
#803=EDGE_CURVE('',#923,#922,#173,.T.);
#804=EDGE_CURVE('',#924,#867,#174,.T.);
#805=EDGE_CURVE('',#924,#923,#175,.T.);
#806=EDGE_CURVE('',#925,#866,#176,.T.);
#807=EDGE_CURVE('',#925,#924,#177,.T.);
#808=EDGE_CURVE('',#926,#865,#178,.T.);
#809=EDGE_CURVE('',#926,#925,#179,.T.);
#810=EDGE_CURVE('',#927,#864,#180,.T.);
#811=EDGE_CURVE('',#927,#926,#181,.T.);
#812=EDGE_CURVE('',#928,#863,#182,.T.);
#813=EDGE_CURVE('',#928,#927,#183,.T.);
#814=EDGE_CURVE('',#920,#928,#184,.T.);
#815=VERTEX_POINT('',#1574);
#816=VERTEX_POINT('',#1576);
#817=VERTEX_POINT('',#1578);
#818=VERTEX_POINT('',#1580);
#819=VERTEX_POINT('',#1581);
#820=VERTEX_POINT('',#1583);
#821=VERTEX_POINT('',#1585);
#822=VERTEX_POINT('',#1587);
#823=VERTEX_POINT('',#1589);
#824=VERTEX_POINT('',#1591);
#825=VERTEX_POINT('',#1593);
#826=VERTEX_POINT('',#1596);
#827=VERTEX_POINT('',#1597);
#828=VERTEX_POINT('',#1599);
#829=VERTEX_POINT('',#1601);
#830=VERTEX_POINT('',#1603);
#831=VERTEX_POINT('',#1605);
#832=VERTEX_POINT('',#1607);
#833=VERTEX_POINT('',#1609);
#834=VERTEX_POINT('',#1611);
#835=VERTEX_POINT('',#1613);
#836=VERTEX_POINT('',#1615);
#837=VERTEX_POINT('',#1617);
#838=VERTEX_POINT('',#1622);
#839=VERTEX_POINT('',#1623);
#840=VERTEX_POINT('',#1627);
#841=VERTEX_POINT('',#1631);
#842=VERTEX_POINT('',#1635);
#843=VERTEX_POINT('',#1637);
#844=VERTEX_POINT('',#1639);
#845=VERTEX_POINT('',#1641);
#846=VERTEX_POINT('',#1645);
#847=VERTEX_POINT('',#1649);
#848=VERTEX_POINT('',#1653);
#849=VERTEX_POINT('',#1657);
#850=VERTEX_POINT('',#1659);
#851=VERTEX_POINT('',#1661);
#852=VERTEX_POINT('',#1663);
#853=VERTEX_POINT('',#1667);
#854=VERTEX_POINT('',#1672);
#855=VERTEX_POINT('',#1673);
#856=VERTEX_POINT('',#1675);
#857=VERTEX_POINT('',#1677);
#858=VERTEX_POINT('',#1679);
#859=VERTEX_POINT('',#1681);
#860=VERTEX_POINT('',#1684);
#861=VERTEX_POINT('',#1685);
#862=VERTEX_POINT('',#1687);
#863=VERTEX_POINT('',#1689);
#864=VERTEX_POINT('',#1691);
#865=VERTEX_POINT('',#1693);
#866=VERTEX_POINT('',#1695);
#867=VERTEX_POINT('',#1697);
#868=VERTEX_POINT('',#1699);
#869=VERTEX_POINT('',#1701);
#870=VERTEX_POINT('',#1705);
#871=VERTEX_POINT('',#1707);
#872=VERTEX_POINT('',#1711);
#873=VERTEX_POINT('',#1712);
#874=VERTEX_POINT('',#1714);
#875=VERTEX_POINT('',#1716);
#876=VERTEX_POINT('',#1720);
#877=VERTEX_POINT('',#1721);
#878=VERTEX_POINT('',#1728);
#879=VERTEX_POINT('',#1742);
#880=VERTEX_POINT('',#1756);
#881=VERTEX_POINT('',#1759);
#882=VERTEX_POINT('',#1762);
#883=VERTEX_POINT('',#1764);
#884=VERTEX_POINT('',#1767);
#885=VERTEX_POINT('',#1778);
#886=VERTEX_POINT('',#1780);
#887=VERTEX_POINT('',#1784);
#888=VERTEX_POINT('',#1788);
#889=VERTEX_POINT('',#1792);
#890=VERTEX_POINT('',#1796);
#891=VERTEX_POINT('',#1800);
#892=VERTEX_POINT('',#1804);
#893=VERTEX_POINT('',#1808);
#894=VERTEX_POINT('',#1812);
#895=VERTEX_POINT('',#1816);
#896=VERTEX_POINT('',#1820);
#897=VERTEX_POINT('',#1834);
#898=VERTEX_POINT('',#1838);
#899=VERTEX_POINT('',#1849);
#900=VERTEX_POINT('',#1862);
#901=VERTEX_POINT('',#1875);
#902=VERTEX_POINT('',#1881);
#903=VERTEX_POINT('',#1885);
#904=VERTEX_POINT('',#1889);
#905=VERTEX_POINT('',#1900);
#906=VERTEX_POINT('',#1913);
#907=VERTEX_POINT('',#1926);
#908=VERTEX_POINT('',#1939);
#909=VERTEX_POINT('',#1945);
#910=VERTEX_POINT('',#1949);
#911=VERTEX_POINT('',#1953);
#912=VERTEX_POINT('',#1964);
#913=VERTEX_POINT('',#1982);
#914=VERTEX_POINT('',#1984);
#915=VERTEX_POINT('',#1988);
#916=VERTEX_POINT('',#1992);
#917=VERTEX_POINT('',#1996);
#918=VERTEX_POINT('',#2000);
#919=VERTEX_POINT('',#2007);
#920=VERTEX_POINT('',#2009);
#921=VERTEX_POINT('',#2013);
#922=VERTEX_POINT('',#2017);
#923=VERTEX_POINT('',#2021);
#924=VERTEX_POINT('',#2025);
#925=VERTEX_POINT('',#2029);
#926=VERTEX_POINT('',#2033);
#927=VERTEX_POINT('',#2037);
#928=VERTEX_POINT('',#2041);
#929=CIRCLE('',#1231,0.039);
#930=CIRCLE('',#1232,0.0016);
#931=CIRCLE('',#1233,0.0016);
#932=CIRCLE('',#1234,0.0016);
#933=CIRCLE('',#1235,0.0016);
#934=CIRCLE('',#1241,0.0016);
#935=CIRCLE('',#1243,0.0016);
#936=CIRCLE('',#1245,0.0016);
#937=CIRCLE('',#1247,0.0016);
#938=CIRCLE('',#1249,0.0375);
#939=CIRCLE('',#1250,0.0375);
#940=CIRCLE('',#1252,0.039);
#941=CIRCLE('',#1254,0.0034798);
#942=CIRCLE('',#1259,0.0034798);
#943=EDGE_LOOP('',(#314));
#944=EDGE_LOOP('',(#315));
#945=EDGE_LOOP('',(#316));
#946=EDGE_LOOP('',(#317,#318,#319,#320,#321,#322,#323,#324));
#947=EDGE_LOOP('',(#325,#326,#327,#328,#329,#330,#331,#332,#333,#334,#335,
#336));
#948=EDGE_LOOP('',(#337,#338,#339,#340,#341,#342,#343,#344,#345,#346,#347,
#348,#349,#350,#351,#352));
#949=EDGE_LOOP('',(#353,#354,#355,#356,#357,#358));
#950=EDGE_LOOP('',(#359,#360,#361,#362,#363,#364,#365,#366,#367,#368));
#951=EDGE_LOOP('',(#369,#370,#371,#372));
#952=EDGE_LOOP('',(#373,#374,#375,#376));
#953=EDGE_LOOP('',(#377,#378,#379,#380));
#954=EDGE_LOOP('',(#381,#382,#383,#384));
#955=EDGE_LOOP('',(#385));
#956=EDGE_LOOP('',(#386,#387));
#957=EDGE_LOOP('',(#388));
#958=EDGE_LOOP('',(#389,#390));
#959=EDGE_LOOP('',(#391));
#960=EDGE_LOOP('',(#392));
#961=EDGE_LOOP('',(#393));
#962=EDGE_LOOP('',(#394));
#963=EDGE_LOOP('',(#395));
#964=EDGE_LOOP('',(#396));
#965=EDGE_LOOP('',(#397));
#966=EDGE_LOOP('',(#398));
#967=EDGE_LOOP('',(#399,#400,#401,#402));
#968=EDGE_LOOP('',(#403,#404,#405,#406,#407,#408,#409,#410));
#969=EDGE_LOOP('',(#411,#412,#413,#414));
#970=EDGE_LOOP('',(#415));
#971=EDGE_LOOP('',(#416));
#972=EDGE_LOOP('',(#417,#418,#419,#420));
#973=EDGE_LOOP('',(#421,#422,#423,#424));
#974=EDGE_LOOP('',(#425,#426,#427,#428));
#975=EDGE_LOOP('',(#429,#430,#431,#432));
#976=EDGE_LOOP('',(#433,#434,#435,#436));
#977=EDGE_LOOP('',(#437,#438,#439,#440));
#978=EDGE_LOOP('',(#441,#442,#443,#444));
#979=EDGE_LOOP('',(#445,#446,#447,#448));
#980=EDGE_LOOP('',(#449,#450,#451,#452));
#981=EDGE_LOOP('',(#453,#454,#455,#456));
#982=EDGE_LOOP('',(#457,#458,#459,#460));
#983=EDGE_LOOP('',(#461,#462,#463,#464));
#984=EDGE_LOOP('',(#465,#466,#467,#468,#469,#470,#471,#472,#473,#474,#475,
#476));
#985=EDGE_LOOP('',(#477,#478,#479,#480));
#986=EDGE_LOOP('',(#481,#482,#483,#484));
#987=EDGE_LOOP('',(#485,#486,#487,#488));
#988=EDGE_LOOP('',(#489,#490,#491,#492));
#989=EDGE_LOOP('',(#493,#494,#495,#496));
#990=EDGE_LOOP('',(#497,#498,#499,#500));
#991=EDGE_LOOP('',(#501,#502,#503,#504));
#992=EDGE_LOOP('',(#505,#506,#507,#508));
#993=EDGE_LOOP('',(#509,#510,#511,#512));
#994=EDGE_LOOP('',(#513,#514,#515,#516));
#995=EDGE_LOOP('',(#517,#518,#519,#520));
#996=EDGE_LOOP('',(#521,#522,#523,#524));
#997=EDGE_LOOP('',(#525,#526,#527,#528));
#998=EDGE_LOOP('',(#529,#530,#531,#532));
#999=EDGE_LOOP('',(#533,#534,#535,#536));
#1000=EDGE_LOOP('',(#537,#538,#539,#540));
#1001=EDGE_LOOP('',(#541,#542,#543,#544,#545,#546,#547,#548,#549,#550,#551,
#552,#553,#554,#555,#556));
#1002=EDGE_LOOP('',(#557,#558,#559,#560));
#1003=EDGE_LOOP('',(#561,#562,#563,#564));
#1004=EDGE_LOOP('',(#565,#566,#567,#568));
#1005=EDGE_LOOP('',(#569,#570,#571,#572));
#1006=EDGE_LOOP('',(#573,#574,#575,#576));
#1007=EDGE_LOOP('',(#577,#578,#579,#580));
#1008=EDGE_LOOP('',(#581,#582,#583,#584,#585,#586));
#1009=EDGE_LOOP('',(#587,#588,#589,#590));
#1010=EDGE_LOOP('',(#591,#592,#593,#594));
#1011=EDGE_LOOP('',(#595,#596,#597,#598));
#1012=EDGE_LOOP('',(#599,#600,#601,#602));
#1013=EDGE_LOOP('',(#603,#604,#605,#606));
#1014=EDGE_LOOP('',(#607,#608,#609,#610));
#1015=EDGE_LOOP('',(#611,#612,#613,#614));
#1016=EDGE_LOOP('',(#615,#616,#617,#618));
#1017=EDGE_LOOP('',(#619,#620,#621,#622));
#1018=EDGE_LOOP('',(#623,#624,#625,#626));
#1019=EDGE_LOOP('',(#627,#628,#629,#630,#631,#632,#633,#634,#635,#636));
#1020=EDGE_LOOP('',(#637));
#1021=EDGE_LOOP('',(#638));
#1022=EDGE_LOOP('',(#639,#640,#641,#642,#643,#644));
#1023=EDGE_LOOP('',(#645));
#1024=EDGE_LOOP('',(#646));
#1025=EDGE_LOOP('',(#647));
#1026=FACE_BOUND('',#943,.T.);
#1027=FACE_BOUND('',#944,.T.);
#1028=FACE_BOUND('',#945,.T.);
#1029=FACE_BOUND('',#946,.T.);
#1030=FACE_BOUND('',#947,.T.);
#1031=FACE_BOUND('',#948,.T.);
#1032=FACE_BOUND('',#949,.T.);
#1033=FACE_BOUND('',#950,.T.);
#1034=FACE_BOUND('',#951,.T.);
#1035=FACE_BOUND('',#952,.T.);
#1036=FACE_BOUND('',#953,.T.);
#1037=FACE_BOUND('',#954,.T.);
#1038=FACE_BOUND('',#955,.T.);
#1039=FACE_BOUND('',#956,.T.);
#1040=FACE_BOUND('',#957,.T.);
#1041=FACE_BOUND('',#958,.T.);
#1042=FACE_BOUND('',#959,.T.);
#1043=FACE_BOUND('',#960,.T.);
#1044=FACE_BOUND('',#961,.T.);
#1045=FACE_BOUND('',#962,.T.);
#1046=FACE_BOUND('',#963,.T.);
#1047=FACE_BOUND('',#964,.T.);
#1048=FACE_BOUND('',#965,.T.);
#1049=FACE_BOUND('',#966,.T.);
#1050=FACE_BOUND('',#967,.T.);
#1051=FACE_BOUND('',#968,.T.);
#1052=FACE_BOUND('',#969,.T.);
#1053=FACE_BOUND('',#970,.T.);
#1054=FACE_BOUND('',#971,.T.);
#1055=FACE_BOUND('',#972,.T.);
#1056=FACE_BOUND('',#973,.T.);
#1057=FACE_BOUND('',#974,.T.);
#1058=FACE_BOUND('',#975,.T.);
#1059=FACE_BOUND('',#976,.T.);
#1060=FACE_BOUND('',#977,.T.);
#1061=FACE_BOUND('',#978,.T.);
#1062=FACE_BOUND('',#979,.T.);
#1063=FACE_BOUND('',#980,.T.);
#1064=FACE_BOUND('',#981,.T.);
#1065=FACE_BOUND('',#982,.T.);
#1066=FACE_BOUND('',#983,.T.);
#1067=FACE_BOUND('',#984,.T.);
#1068=FACE_BOUND('',#985,.T.);
#1069=FACE_BOUND('',#986,.T.);
#1070=FACE_BOUND('',#987,.T.);
#1071=FACE_BOUND('',#988,.T.);
#1072=FACE_BOUND('',#989,.T.);
#1073=FACE_BOUND('',#990,.T.);
#1074=FACE_BOUND('',#991,.T.);
#1075=FACE_BOUND('',#992,.T.);
#1076=FACE_BOUND('',#993,.T.);
#1077=FACE_BOUND('',#994,.T.);
#1078=FACE_BOUND('',#995,.T.);
#1079=FACE_BOUND('',#996,.T.);
#1080=FACE_BOUND('',#997,.T.);
#1081=FACE_BOUND('',#998,.T.);
#1082=FACE_BOUND('',#999,.T.);
#1083=FACE_BOUND('',#1000,.T.);
#1084=FACE_BOUND('',#1001,.T.);
#1085=FACE_BOUND('',#1002,.T.);
#1086=FACE_BOUND('',#1003,.T.);
#1087=FACE_BOUND('',#1004,.T.);
#1088=FACE_BOUND('',#1005,.T.);
#1089=FACE_BOUND('',#1006,.T.);
#1090=FACE_BOUND('',#1007,.T.);
#1091=FACE_BOUND('',#1008,.T.);
#1092=FACE_BOUND('',#1009,.T.);
#1093=FACE_BOUND('',#1010,.T.);
#1094=FACE_BOUND('',#1011,.T.);
#1095=FACE_BOUND('',#1012,.T.);
#1096=FACE_BOUND('',#1013,.T.);
#1097=FACE_BOUND('',#1014,.T.);
#1098=FACE_BOUND('',#1015,.T.);
#1099=FACE_BOUND('',#1016,.T.);
#1100=FACE_BOUND('',#1017,.T.);
#1101=FACE_BOUND('',#1018,.T.);
#1102=FACE_BOUND('',#1019,.T.);
#1103=FACE_BOUND('',#1020,.T.);
#1104=FACE_BOUND('',#1021,.T.);
#1105=FACE_BOUND('',#1022,.T.);
#1106=FACE_BOUND('',#1023,.T.);
#1107=FACE_BOUND('',#1024,.T.);
#1108=FACE_BOUND('',#1025,.T.);
#1109=PLANE('',#1230);
#1110=PLANE('',#1236);
#1111=PLANE('',#1237);
#1112=PLANE('',#1238);
#1113=PLANE('',#1239);
#1114=PLANE('',#1261);
#1115=PLANE('',#1262);
#1116=PLANE('',#1263);
#1117=PLANE('',#1264);
#1118=PLANE('',#1265);
#1119=PLANE('',#1266);
#1120=PLANE('',#1267);
#1121=PLANE('',#1268);
#1122=PLANE('',#1269);
#1123=PLANE('',#1270);
#1124=PLANE('',#1271);
#1125=PLANE('',#1272);
#1126=PLANE('',#1273);
#1127=PLANE('',#1274);
#1128=PLANE('',#1275);
#1129=PLANE('',#1276);
#1130=PLANE('',#1277);
#1131=PLANE('',#1278);
#1132=PLANE('',#1279);
#1133=PLANE('',#1280);
#1134=PLANE('',#1281);
#1135=PLANE('',#1282);
#1136=PLANE('',#1283);
#1137=PLANE('',#1284);
#1138=PLANE('',#1285);
#1139=PLANE('',#1286);
#1140=PLANE('',#1287);
#1141=PLANE('',#1288);
#1142=PLANE('',#1289);
#1143=PLANE('',#1290);
#1144=PLANE('',#1291);
#1145=PLANE('',#1292);
#1146=PLANE('',#1293);
#1147=PLANE('',#1294);
#1148=PLANE('',#1295);
#1149=PLANE('',#1296);
#1150=PLANE('',#1297);
#1151=PLANE('',#1298);
#1152=PLANE('',#1299);
#1153=ADVANCED_FACE('',(#1026,#1027,#1028,#1029,#1030,#1031,#1032,#1033),
#1109,.T.);
#1154=ADVANCED_FACE('',(#1034),#1110,.F.);
#1155=ADVANCED_FACE('',(#1035),#1111,.F.);
#1156=ADVANCED_FACE('',(#1036),#1112,.T.);
#1157=ADVANCED_FACE('',(#1037),#1113,.T.);
#1158=ADVANCED_FACE('',(#1038,#1039),#25,.F.);
#1159=ADVANCED_FACE('',(#1040,#1041),#26,.F.);
#1160=ADVANCED_FACE('',(#1042,#1043),#27,.F.);
#1161=ADVANCED_FACE('',(#1044,#1045),#28,.F.);
#1162=ADVANCED_FACE('',(#1046,#1047),#29,.F.);
#1163=ADVANCED_FACE('',(#1048,#1049),#30,.T.);
#1164=ADVANCED_FACE('',(#1050),#31,.T.);
#1165=ADVANCED_FACE('',(#1051),#32,.T.);
#1166=ADVANCED_FACE('',(#1052),#33,.T.);
#1167=ADVANCED_FACE('',(#1053,#1054),#22,.T.);
#1168=ADVANCED_FACE('',(#1055),#1114,.T.);
#1169=ADVANCED_FACE('',(#1056),#1115,.T.);
#1170=ADVANCED_FACE('',(#1057),#1116,.T.);
#1171=ADVANCED_FACE('',(#1058),#1117,.T.);
#1172=ADVANCED_FACE('',(#1059),#1118,.T.);
#1173=ADVANCED_FACE('',(#1060),#1119,.T.);
#1174=ADVANCED_FACE('',(#1061),#1120,.T.);
#1175=ADVANCED_FACE('',(#1062),#1121,.T.);
#1176=ADVANCED_FACE('',(#1063),#1122,.T.);
#1177=ADVANCED_FACE('',(#1064),#1123,.T.);
#1178=ADVANCED_FACE('',(#1065),#1124,.T.);
#1179=ADVANCED_FACE('',(#1066),#1125,.T.);
#1180=ADVANCED_FACE('',(#1067),#1126,.T.);
#1181=ADVANCED_FACE('',(#1068),#12,.T.);
#1182=ADVANCED_FACE('',(#1069),#13,.T.);
#1183=ADVANCED_FACE('',(#1070),#14,.T.);
#1184=ADVANCED_FACE('',(#1071),#15,.T.);
#1185=ADVANCED_FACE('',(#1072),#1127,.T.);
#1186=ADVANCED_FACE('',(#1073),#1128,.T.);
#1187=ADVANCED_FACE('',(#1074),#1129,.T.);
#1188=ADVANCED_FACE('',(#1075),#16,.T.);
#1189=ADVANCED_FACE('',(#1076),#17,.T.);
#1190=ADVANCED_FACE('',(#1077),#18,.T.);
#1191=ADVANCED_FACE('',(#1078),#19,.T.);
#1192=ADVANCED_FACE('',(#1079),#1130,.T.);
#1193=ADVANCED_FACE('',(#1080),#1131,.T.);
#1194=ADVANCED_FACE('',(#1081),#1132,.T.);
#1195=ADVANCED_FACE('',(#1082),#20,.T.);
#1196=ADVANCED_FACE('',(#1083),#21,.T.);
#1197=ADVANCED_FACE('',(#1084),#1133,.T.);
#1198=ADVANCED_FACE('',(#1085),#1134,.T.);
#1199=ADVANCED_FACE('',(#1086),#1135,.T.);
#1200=ADVANCED_FACE('',(#1087),#1136,.T.);
#1201=ADVANCED_FACE('',(#1088),#1137,.T.);
#1202=ADVANCED_FACE('',(#1089),#1138,.T.);
#1203=ADVANCED_FACE('',(#1090),#1139,.T.);
#1204=ADVANCED_FACE('',(#1091),#1140,.T.);
#1205=ADVANCED_FACE('',(#1092),#1141,.T.);
#1206=ADVANCED_FACE('',(#1093),#1142,.T.);
#1207=ADVANCED_FACE('',(#1094),#1143,.T.);
#1208=ADVANCED_FACE('',(#1095),#1144,.T.);
#1209=ADVANCED_FACE('',(#1096),#1145,.T.);
#1210=ADVANCED_FACE('',(#1097),#1146,.T.);
#1211=ADVANCED_FACE('',(#1098),#1147,.T.);
#1212=ADVANCED_FACE('',(#1099),#1148,.T.);
#1213=ADVANCED_FACE('',(#1100),#1149,.T.);
#1214=ADVANCED_FACE('',(#1101),#1150,.T.);
#1215=ADVANCED_FACE('',(#1102),#1151,.T.);
#1216=ADVANCED_FACE('',(#1103,#1104,#1105,#1106,#1107,#1108),#1152,.F.);
#1217=CLOSED_SHELL('',(#1153,#1154,#1155,#1156,#1157,#1158,#1159,#1160,
#1161,#1162,#1163,#1164,#1165,#1166,#1167,#1168,#1169,#1170,#1171,#1172,
#1173,#1174,#1175,#1176,#1177,#1178,#1179,#1180,#1181,#1182,#1183,#1184,
#1185,#1186,#1187,#1188,#1189,#1190,#1191,#1192,#1193,#1194,#1195,#1196,
#1197,#1198,#1199,#1200,#1201,#1202,#1203,#1204,#1205,#1206,#1207,#1208,
#1209,#1210,#1211,#1212,#1213,#1214,#1215,#1216));
#1218=STYLED_ITEM('',(#1219),#1226);
#1219=PRESENTATION_STYLE_ASSIGNMENT((#1220));
#1220=SURFACE_STYLE_USAGE(.BOTH.,#1221);
#1221=SURFACE_SIDE_STYLE('',(#1222));
#1222=SURFACE_STYLE_FILL_AREA(#1223);
#1223=FILL_AREA_STYLE('',(#1224));
#1224=FILL_AREA_STYLE_COLOUR('',#1225);
#1225=COLOUR_RGB('',0.615686274509804,0.811764705882353,0.929411764705882);
#1226=MANIFOLD_SOLID_BREP('Part 6',#1217);
#1227=SHAPE_DEFINITION_REPRESENTATION(#2053,#1228);
#1228=SHAPE_REPRESENTATION('Part 6',(#1229),#2048);
#1229=AXIS2_PLACEMENT_3D('',#1571,#1300,#1301);
#1230=AXIS2_PLACEMENT_3D('',#1572,#1302,#1303);
#1231=AXIS2_PLACEMENT_3D('',#1573,#1304,#1305);
#1232=AXIS2_PLACEMENT_3D('',#1575,#1306,#1307);
#1233=AXIS2_PLACEMENT_3D('',#1577,#1308,#1309);
#1234=AXIS2_PLACEMENT_3D('',#1584,#1312,#1313);
#1235=AXIS2_PLACEMENT_3D('',#1588,#1315,#1316);
#1236=AXIS2_PLACEMENT_3D('',#1703,#1354,#1355);
#1237=AXIS2_PLACEMENT_3D('',#1709,#1359,#1360);
#1238=AXIS2_PLACEMENT_3D('',#1718,#1365,#1366);
#1239=AXIS2_PLACEMENT_3D('',#1724,#1370,#1371);
#1240=AXIS2_PLACEMENT_3D('',#1726,#1373,#1374);
#1241=AXIS2_PLACEMENT_3D('',#1727,#1375,#1376);
#1242=AXIS2_PLACEMENT_3D('',#1740,#1377,#1378);
#1243=AXIS2_PLACEMENT_3D('',#1741,#1379,#1380);
#1244=AXIS2_PLACEMENT_3D('',#1754,#1381,#1382);
#1245=AXIS2_PLACEMENT_3D('',#1755,#1383,#1384);
#1246=AXIS2_PLACEMENT_3D('',#1757,#1385,#1386);
#1247=AXIS2_PLACEMENT_3D('',#1758,#1387,#1388);
#1248=AXIS2_PLACEMENT_3D('',#1760,#1389,#1390);
#1249=AXIS2_PLACEMENT_3D('',#1761,#1391,#1392);
#1250=AXIS2_PLACEMENT_3D('',#1763,#1393,#1394);
#1251=AXIS2_PLACEMENT_3D('',#1765,#1395,#1396);
#1252=AXIS2_PLACEMENT_3D('',#1766,#1397,#1398);
#1253=AXIS2_PLACEMENT_3D('',#1768,#1399,#1400);
#1254=AXIS2_PLACEMENT_3D('',#1769,#1401,#1402);
#1255=AXIS2_PLACEMENT_3D('',#1770,#1403,#1404);
#1256=AXIS2_PLACEMENT_3D('',#1771,#1405,#1406);
#1257=AXIS2_PLACEMENT_3D('',#1772,#1407,#1408);
#1258=AXIS2_PLACEMENT_3D('',#1773,#1409,#1410);
#1259=AXIS2_PLACEMENT_3D('',#1774,#1411,#1412);
#1260=AXIS2_PLACEMENT_3D('',#1775,#1413,#1414);
#1261=AXIS2_PLACEMENT_3D('',#1776,#1415,#1416);
#1262=AXIS2_PLACEMENT_3D('',#1782,#1420,#1421);
#1263=AXIS2_PLACEMENT_3D('',#1786,#1424,#1425);
#1264=AXIS2_PLACEMENT_3D('',#1790,#1428,#1429);
#1265=AXIS2_PLACEMENT_3D('',#1794,#1432,#1433);
#1266=AXIS2_PLACEMENT_3D('',#1798,#1436,#1437);
#1267=AXIS2_PLACEMENT_3D('',#1802,#1440,#1441);
#1268=AXIS2_PLACEMENT_3D('',#1806,#1444,#1445);
#1269=AXIS2_PLACEMENT_3D('',#1810,#1448,#1449);
#1270=AXIS2_PLACEMENT_3D('',#1814,#1452,#1453);
#1271=AXIS2_PLACEMENT_3D('',#1818,#1456,#1457);
#1272=AXIS2_PLACEMENT_3D('',#1822,#1460,#1461);
#1273=AXIS2_PLACEMENT_3D('',#1824,#1463,#1464);
#1274=AXIS2_PLACEMENT_3D('',#1879,#1470,#1471);
#1275=AXIS2_PLACEMENT_3D('',#1883,#1474,#1475);
#1276=AXIS2_PLACEMENT_3D('',#1887,#1478,#1479);
#1277=AXIS2_PLACEMENT_3D('',#1943,#1486,#1487);
#1278=AXIS2_PLACEMENT_3D('',#1947,#1490,#1491);
#1279=AXIS2_PLACEMENT_3D('',#1951,#1494,#1495);
#1280=AXIS2_PLACEMENT_3D('',#1979,#1499,#1500);
#1281=AXIS2_PLACEMENT_3D('',#1980,#1501,#1502);
#1282=AXIS2_PLACEMENT_3D('',#1986,#1506,#1507);
#1283=AXIS2_PLACEMENT_3D('',#1990,#1510,#1511);
#1284=AXIS2_PLACEMENT_3D('',#1994,#1514,#1515);
#1285=AXIS2_PLACEMENT_3D('',#1998,#1518,#1519);
#1286=AXIS2_PLACEMENT_3D('',#2002,#1522,#1523);
#1287=AXIS2_PLACEMENT_3D('',#2004,#1525,#1526);
#1288=AXIS2_PLACEMENT_3D('',#2005,#1527,#1528);
#1289=AXIS2_PLACEMENT_3D('',#2011,#1532,#1533);
#1290=AXIS2_PLACEMENT_3D('',#2015,#1536,#1537);
#1291=AXIS2_PLACEMENT_3D('',#2019,#1540,#1541);
#1292=AXIS2_PLACEMENT_3D('',#2023,#1544,#1545);
#1293=AXIS2_PLACEMENT_3D('',#2027,#1548,#1549);
#1294=AXIS2_PLACEMENT_3D('',#2031,#1552,#1553);
#1295=AXIS2_PLACEMENT_3D('',#2035,#1556,#1557);
#1296=AXIS2_PLACEMENT_3D('',#2039,#1560,#1561);
#1297=AXIS2_PLACEMENT_3D('',#2043,#1564,#1565);
#1298=AXIS2_PLACEMENT_3D('',#2045,#1567,#1568);
#1299=AXIS2_PLACEMENT_3D('',#2046,#1569,#1570);
#1300=DIRECTION('',(0.,0.,1.));
#1301=DIRECTION('',(1.,0.,0.));
#1302=DIRECTION('',(0.,1.,0.));
#1303=DIRECTION('',(-1.,0.,0.));
#1304=DIRECTION('',(0.,1.,0.));
#1305=DIRECTION('',(0.,0.,1.));
#1306=DIRECTION('',(0.,1.,0.));
#1307=DIRECTION('',(0.,0.,1.));
#1308=DIRECTION('',(0.,1.,0.));
#1309=DIRECTION('',(0.,0.,1.));
#1310=DIRECTION('',(0.,0.,1.));
#1311=DIRECTION('',(-1.,0.,0.));
#1312=DIRECTION('',(0.,1.,0.));
#1313=DIRECTION('',(0.,0.,1.));
#1314=DIRECTION('',(-1.,0.,0.));
#1315=DIRECTION('',(0.,1.,0.));
#1316=DIRECTION('',(0.,0.,1.));
#1317=DIRECTION('',(-1.,0.,0.));
#1318=DIRECTION('',(0.,0.,1.));
#1319=DIRECTION('',(-1.,0.,0.));
#1320=DIRECTION('',(1.,0.,0.));
#1321=DIRECTION('',(0.566110749872388,0.,0.824329193271064));
#1322=DIRECTION('',(0.574175743182164,0.,-0.818732078241234));
#1323=DIRECTION('',(1.,0.,0.));
#1324=DIRECTION('',(-0.590706051179799,0.,0.806886832895152));
#1325=DIRECTION('',(0.590370554981622,0.,0.807132335996206));
#1326=DIRECTION('',(-1.,0.,0.));
#1327=DIRECTION('',(-0.578331672351847,0.,-0.81580173863183));
#1328=DIRECTION('',(-0.567499103600913,0.,0.823374014292509));
#1329=DIRECTION('',(-1.,0.,0.));
#1330=DIRECTION('',(0.583875682533143,0.,-0.811843080494289));
#1331=DIRECTION('',(-0.577654361976577,0.,-0.816281469892239));
#1332=DIRECTION('',(0.,0.,1.));
#1333=DIRECTION('',(-1.,0.,0.));
#1334=DIRECTION('',(0.,0.,-1.));
#1335=DIRECTION('',(0.,0.,1.));
#1336=DIRECTION('',(-1.,0.,0.));
#1337=DIRECTION('',(0.,0.,-1.));
#1338=DIRECTION('',(1.,0.,0.));
#1339=DIRECTION('',(0.,0.,1.));
#1340=DIRECTION('',(-1.,0.,0.));
#1341=DIRECTION('',(0.,0.,-1.));
#1342=DIRECTION('',(-1.,0.,0.));
#1343=DIRECTION('',(0.,0.,-1.));
#1344=DIRECTION('',(1.,0.,0.));
#1345=DIRECTION('',(0.,0.,-1.));
#1346=DIRECTION('',(-1.,0.,0.));
#1347=DIRECTION('',(0.,0.,-1.));
#1348=DIRECTION('',(1.,0.,0.));
#1349=DIRECTION('',(0.,0.,-1.));
#1350=DIRECTION('',(1.,0.,0.));
#1351=DIRECTION('',(0.,0.,1.));
#1352=DIRECTION('',(-1.,0.,0.));
#1353=DIRECTION('',(0.,0.,-1.));
#1354=DIRECTION('',(-1.,0.,0.));
#1355=DIRECTION('',(0.,0.,1.));
#1356=DIRECTION('',(0.,1.,0.));
#1357=DIRECTION('',(0.,0.,-1.));
#1358=DIRECTION('',(0.,1.,0.));
#1359=DIRECTION('',(0.,0.,-1.));
#1360=DIRECTION('',(-1.,0.,0.));
#1361=DIRECTION('',(0.,1.,0.));
#1362=DIRECTION('',(1.,0.,0.));
#1363=DIRECTION('',(0.,1.,0.));
#1364=DIRECTION('',(-1.,0.,0.));
#1365=DIRECTION('',(-1.,0.,0.));
#1366=DIRECTION('',(0.,0.,1.));
#1367=DIRECTION('',(0.,0.,-1.));
#1368=DIRECTION('',(0.,1.,0.));
#1369=DIRECTION('',(0.,1.,0.));
#1370=DIRECTION('',(0.,0.,-1.));
#1371=DIRECTION('',(-1.,0.,0.));
#1372=DIRECTION('',(1.,0.,0.));
#1373=DIRECTION('',(0.,1.,0.));
#1374=DIRECTION('',(0.,0.,1.));
#1375=DIRECTION('',(0.,1.,0.));
#1376=DIRECTION('',(0.,0.,1.));
#1377=DIRECTION('',(0.,1.,0.));
#1378=DIRECTION('',(0.,0.,1.));
#1379=DIRECTION('',(0.,1.,0.));
#1380=DIRECTION('',(0.,0.,1.));
#1381=DIRECTION('',(0.,1.,0.));
#1382=DIRECTION('',(0.,0.,1.));
#1383=DIRECTION('',(0.,1.,0.));
#1384=DIRECTION('',(0.,0.,1.));
#1385=DIRECTION('',(0.,1.,0.));
#1386=DIRECTION('',(0.,0.,1.));
#1387=DIRECTION('',(0.,1.,0.));
#1388=DIRECTION('',(0.,0.,1.));
#1389=DIRECTION('',(0.,1.,0.));
#1390=DIRECTION('',(0.,0.,1.));
#1391=DIRECTION('',(0.,1.,0.));
#1392=DIRECTION('',(0.,0.,1.));
#1393=DIRECTION('',(0.,1.,0.));
#1394=DIRECTION('',(0.,0.,1.));
#1395=DIRECTION('',(0.,-1.,0.));
#1396=DIRECTION('',(0.,0.,-1.));
#1397=DIRECTION('',(0.,1.,0.));
#1398=DIRECTION('',(0.,0.,1.));
#1399=DIRECTION('',(0.,-1.,0.));
#1400=DIRECTION('',(0.,0.,-1.));
#1401=DIRECTION('',(0.,1.,0.));
#1402=DIRECTION('',(0.,0.,1.));
#1403=DIRECTION('',(-0.707106781186548,-0.707106781186548,0.));
#1404=DIRECTION('',(0.707106781186548,-0.707106781186548,0.));
#1405=DIRECTION('',(1.,0.,0.));
#1406=DIRECTION('',(0.,0.,-1.));
#1407=DIRECTION('',(0.707106781186548,-0.707106781186548,0.));
#1408=DIRECTION('',(0.707106781186548,0.707106781186548,0.));
#1409=DIRECTION('',(0.,1.,0.));
#1410=DIRECTION('',(0.,0.,1.));
#1411=DIRECTION('',(0.,1.,0.));
#1412=DIRECTION('',(0.,0.,1.));
#1413=DIRECTION('',(0.,1.,0.));
#1414=DIRECTION('',(0.,0.,1.));
#1415=DIRECTION('',(-0.824329193271064,0.,0.566110749872388));
#1416=DIRECTION('',(0.566110749872388,0.,0.824329193271064));
#1417=DIRECTION('',(0.,1.,0.));
#1418=DIRECTION('',(0.566110749872388,0.,0.824329193271064));
#1419=DIRECTION('',(0.,1.,0.));
#1420=DIRECTION('',(0.,0.,1.));
#1421=DIRECTION('',(1.,0.,0.));
#1422=DIRECTION('',(0.,1.,0.));
#1423=DIRECTION('',(1.,0.,0.));
#1424=DIRECTION('',(0.816281469892239,0.,-0.577654361976577));
#1425=DIRECTION('',(-0.577654361976577,0.,-0.816281469892239));
#1426=DIRECTION('',(0.,1.,0.));
#1427=DIRECTION('',(-0.577654361976577,0.,-0.816281469892239));
#1428=DIRECTION('',(0.811843080494289,0.,0.583875682533143));
#1429=DIRECTION('',(0.583875682533143,0.,-0.811843080494289));
#1430=DIRECTION('',(0.,1.,0.));
#1431=DIRECTION('',(0.583875682533143,0.,-0.811843080494289));
#1432=DIRECTION('',(0.,0.,-1.));
#1433=DIRECTION('',(-1.,0.,0.));
#1434=DIRECTION('',(0.,1.,0.));
#1435=DIRECTION('',(-1.,0.,0.));
#1436=DIRECTION('',(-0.823374014292509,0.,-0.567499103600912));
#1437=DIRECTION('',(-0.567499103600912,0.,0.823374014292509));
#1438=DIRECTION('',(0.,1.,0.));
#1439=DIRECTION('',(-0.567499103600913,0.,0.823374014292509));
#1440=DIRECTION('',(0.81580173863183,0.,-0.578331672351847));
#1441=DIRECTION('',(-0.578331672351847,0.,-0.81580173863183));
#1442=DIRECTION('',(0.,1.,0.));
#1443=DIRECTION('',(-0.578331672351847,0.,-0.81580173863183));
#1444=DIRECTION('',(0.,0.,-1.));
#1445=DIRECTION('',(-1.,0.,0.));
#1446=DIRECTION('',(0.,1.,0.));
#1447=DIRECTION('',(-1.,0.,0.));
#1448=DIRECTION('',(-0.807132335996206,0.,0.590370554981622));
#1449=DIRECTION('',(0.590370554981622,0.,0.807132335996206));
#1450=DIRECTION('',(0.,1.,0.));
#1451=DIRECTION('',(0.590370554981622,0.,0.807132335996206));
#1452=DIRECTION('',(-0.806886832895152,0.,-0.590706051179799));
#1453=DIRECTION('',(-0.590706051179799,0.,0.806886832895152));
#1454=DIRECTION('',(0.,1.,0.));
#1455=DIRECTION('',(-0.590706051179799,0.,0.806886832895152));
#1456=DIRECTION('',(0.,0.,1.));
#1457=DIRECTION('',(1.,0.,0.));
#1458=DIRECTION('',(0.,1.,0.));
#1459=DIRECTION('',(1.,0.,0.));
#1460=DIRECTION('',(0.818732078241234,0.,0.574175743182164));
#1461=DIRECTION('',(0.574175743182164,0.,-0.818732078241234));
#1462=DIRECTION('',(0.574175743182164,0.,-0.818732078241234));
#1463=DIRECTION('',(0.,1.,0.));
#1464=DIRECTION('',(-1.,0.,0.));
#1465=DIRECTION('',(0.,1.,0.));
#1466=DIRECTION('',(0.,1.,0.));
#1467=DIRECTION('',(0.,1.,0.));
#1468=DIRECTION('',(0.,1.,0.));
#1469=DIRECTION('',(0.,1.,0.));
#1470=DIRECTION('',(1.,0.,0.));
#1471=DIRECTION('',(0.,0.,-1.));
#1472=DIRECTION('',(0.,1.,0.));
#1473=DIRECTION('',(0.,0.,-1.));
#1474=DIRECTION('',(0.,0.,-1.));
#1475=DIRECTION('',(-1.,0.,0.));
#1476=DIRECTION('',(0.,1.,0.));
#1477=DIRECTION('',(-1.,0.,0.));
#1478=DIRECTION('',(-1.,0.,0.));
#1479=DIRECTION('',(0.,0.,1.));
#1480=DIRECTION('',(0.,1.,0.));
#1481=DIRECTION('',(0.,0.,1.));
#1482=DIRECTION('',(0.,1.,0.));
#1483=DIRECTION('',(0.,1.,0.));
#1484=DIRECTION('',(0.,1.,0.));
#1485=DIRECTION('',(0.,1.,0.));
#1486=DIRECTION('',(1.,0.,0.));
#1487=DIRECTION('',(0.,0.,-1.));
#1488=DIRECTION('',(0.,1.,0.));
#1489=DIRECTION('',(0.,0.,-1.));
#1490=DIRECTION('',(0.,0.,-1.));
#1491=DIRECTION('',(-1.,0.,0.));
#1492=DIRECTION('',(0.,1.,0.));
#1493=DIRECTION('',(-1.,0.,0.));
#1494=DIRECTION('',(-1.,0.,0.));
#1495=DIRECTION('',(0.,0.,1.));
#1496=DIRECTION('',(0.,1.,0.));
#1497=DIRECTION('',(0.,0.,1.));
#1498=DIRECTION('',(0.,1.,0.));
#1499=DIRECTION('',(0.,1.,0.));
#1500=DIRECTION('',(-1.,0.,0.));
#1501=DIRECTION('',(-1.,0.,0.));
#1502=DIRECTION('',(0.,0.,1.));
#1503=DIRECTION('',(0.,1.,0.));
#1504=DIRECTION('',(0.,0.,1.));
#1505=DIRECTION('',(0.,1.,0.));
#1506=DIRECTION('',(0.,0.,1.));
#1507=DIRECTION('',(1.,0.,0.));
#1508=DIRECTION('',(0.,1.,0.));
#1509=DIRECTION('',(1.,0.,0.));
#1510=DIRECTION('',(1.,0.,0.));
#1511=DIRECTION('',(0.,0.,-1.));
#1512=DIRECTION('',(0.,1.,0.));
#1513=DIRECTION('',(0.,0.,-1.));
#1514=DIRECTION('',(0.,0.,-1.));
#1515=DIRECTION('',(-1.,0.,0.));
#1516=DIRECTION('',(0.,1.,0.));
#1517=DIRECTION('',(-1.,0.,0.));
#1518=DIRECTION('',(1.,0.,0.));
#1519=DIRECTION('',(0.,0.,-1.));
#1520=DIRECTION('',(0.,1.,0.));
#1521=DIRECTION('',(0.,0.,-1.));
#1522=DIRECTION('',(0.,0.,-1.));
#1523=DIRECTION('',(-1.,0.,0.));
#1524=DIRECTION('',(-1.,0.,0.));
#1525=DIRECTION('',(0.,1.,0.));
#1526=DIRECTION('',(-1.,0.,0.));
#1527=DIRECTION('',(1.,0.,0.));
#1528=DIRECTION('',(0.,0.,-1.));
#1529=DIRECTION('',(0.,1.,0.));
#1530=DIRECTION('',(0.,0.,-1.));
#1531=DIRECTION('',(0.,1.,0.));
#1532=DIRECTION('',(0.,0.,1.));
#1533=DIRECTION('',(1.,0.,0.));
#1534=DIRECTION('',(0.,1.,0.));
#1535=DIRECTION('',(1.,0.,0.));
#1536=DIRECTION('',(1.,0.,0.));
#1537=DIRECTION('',(0.,0.,-1.));
#1538=DIRECTION('',(0.,1.,0.));
#1539=DIRECTION('',(0.,0.,-1.));
#1540=DIRECTION('',(0.,0.,-1.));
#1541=DIRECTION('',(-1.,0.,0.));
#1542=DIRECTION('',(0.,1.,0.));
#1543=DIRECTION('',(-1.,0.,0.));
#1544=DIRECTION('',(-1.,0.,0.));
#1545=DIRECTION('',(0.,0.,1.));
#1546=DIRECTION('',(0.,1.,0.));
#1547=DIRECTION('',(0.,0.,1.));
#1548=DIRECTION('',(0.,0.,1.));
#1549=DIRECTION('',(1.,0.,0.));
#1550=DIRECTION('',(0.,1.,0.));
#1551=DIRECTION('',(1.,0.,0.));
#1552=DIRECTION('',(1.,0.,0.));
#1553=DIRECTION('',(0.,0.,-1.));
#1554=DIRECTION('',(0.,1.,0.));
#1555=DIRECTION('',(0.,0.,-1.));
#1556=DIRECTION('',(0.,0.,1.));
#1557=DIRECTION('',(1.,0.,0.));
#1558=DIRECTION('',(0.,1.,0.));
#1559=DIRECTION('',(1.,0.,0.));
#1560=DIRECTION('',(1.,0.,0.));
#1561=DIRECTION('',(0.,0.,-1.));
#1562=DIRECTION('',(0.,1.,0.));
#1563=DIRECTION('',(0.,0.,-1.));
#1564=DIRECTION('',(0.,0.,-1.));
#1565=DIRECTION('',(-1.,0.,0.));
#1566=DIRECTION('',(-1.,0.,0.));
#1567=DIRECTION('',(0.,1.,0.));
#1568=DIRECTION('',(-1.,0.,0.));
#1569=DIRECTION('',(0.,1.,0.));
#1570=DIRECTION('',(-1.,0.,0.));
#1571=CARTESIAN_POINT('',(0.,0.,0.));
#1572=CARTESIAN_POINT('',(0.,0.137,0.00531425915900674));
#1573=CARTESIAN_POINT('',(4.31114741718901E-18,0.137,-0.0759697109460831));
#1574=CARTESIAN_POINT('',(4.31114741718901E-18,0.137,-0.0369697109460831));
#1575=CARTESIAN_POINT('',(0.0702000036835671,0.137,-0.134557247161865));
#1576=CARTESIAN_POINT('',(0.0702000036835671,0.137,-0.132957247161865));
#1577=CARTESIAN_POINT('',(-0.0702005475759506,0.137,-0.134556472301483));
#1578=CARTESIAN_POINT('',(-0.0702005475759506,0.137,-0.132956472301483));
#1579=CARTESIAN_POINT('',(-0.0727,0.137,0.00531425915900674));
#1580=CARTESIAN_POINT('',(-0.0727,0.137,-0.1370572404515));
#1581=CARTESIAN_POINT('',(-0.0727,0.137,0.144205958769513));
#1582=CARTESIAN_POINT('',(0.0727,0.137,0.144205958769513));
#1583=CARTESIAN_POINT('',(-0.0714594785492827,0.137,0.144205958769513));
#1584=CARTESIAN_POINT('',(-0.0702000111341476,0.137,0.145192742347717));
#1585=CARTESIAN_POINT('',(-0.0689405437190126,0.137,0.144205958769513));
#1586=CARTESIAN_POINT('',(0.0727,0.137,0.144205958769513));
#1587=CARTESIAN_POINT('',(0.068940536268432,0.137,0.144205958769513));
#1588=CARTESIAN_POINT('',(0.0702000036835671,0.137,0.145192742347717));
#1589=CARTESIAN_POINT('',(0.0714594710987021,0.137,0.144205958769513));
#1590=CARTESIAN_POINT('',(0.0727,0.137,0.144205958769513));
#1591=CARTESIAN_POINT('',(0.0727,0.137,0.144205958769513));
#1592=CARTESIAN_POINT('',(0.0727,0.137,0.00531425915900674));
#1593=CARTESIAN_POINT('',(0.0727,0.137,-0.1370572404515));
#1594=CARTESIAN_POINT('',(-0.00635,0.137,-0.1370572404515));
#1595=CARTESIAN_POINT('',(-0.0659525257979361,0.137,0.0835091600227905));
#1596=CARTESIAN_POINT('',(-0.0688268538516918,0.137,0.0835091600227905));
#1597=CARTESIAN_POINT('',(-0.0630781977441804,0.137,0.0835091600227905));
#1598=CARTESIAN_POINT('',(-0.0573120950323974,0.137,0.0919053383285261));
#1599=CARTESIAN_POINT('',(-0.0515459923206143,0.137,0.100301516634262));
#1600=CARTESIAN_POINT('',(-0.0456577633789297,0.137,0.0919053383285261));
#1601=CARTESIAN_POINT('',(-0.039769534437245,0.137,0.0835091600227905));
#1602=CARTESIAN_POINT('',(-0.0368952063834893,0.137,0.0835091600227905));
#1603=CARTESIAN_POINT('',(-0.0340208783297336,0.137,0.0835091600227905));
#1604=CARTESIAN_POINT('',(-0.0413266438684905,0.137,0.0934886176661791));
#1605=CARTESIAN_POINT('',(-0.0486324094072474,0.137,0.103468075309568));
#1606=CARTESIAN_POINT('',(-0.0418849352051835,0.137,0.112692967318207));
#1607=CARTESIAN_POINT('',(-0.0351374610031197,0.137,0.121917859326846));
#1608=CARTESIAN_POINT('',(-0.0380117890568754,0.137,0.121917859326846));
#1609=CARTESIAN_POINT('',(-0.0408861171106311,0.137,0.121917859326846));
#1610=CARTESIAN_POINT('',(-0.0462291396688265,0.137,0.11438092628149));
#1611=CARTESIAN_POINT('',(-0.0515721622270218,0.137,0.106843993236133));
#1612=CARTESIAN_POINT('',(-0.0567668886489081,0.137,0.11438092628149));
#1613=CARTESIAN_POINT('',(-0.0619616150707943,0.137,0.121917859326846));
#1614=CARTESIAN_POINT('',(-0.06483594312455,0.137,0.121917859326846));
#1615=CARTESIAN_POINT('',(-0.0677102711783057,0.137,0.121917859326846));
#1616=CARTESIAN_POINT('',(-0.0611416246700264,0.137,0.112784561990633));
#1617=CARTESIAN_POINT('',(-0.054572978161747,0.137,0.10365126465442));
#1618=CARTESIAN_POINT('',(-0.0616999160067194,0.137,0.0935802123386053));
#1619=CARTESIAN_POINT('',(-0.0208923086153107,0.137,0.0847478689260783));
#1620=CARTESIAN_POINT('',(-0.0172808615310775,0.137,0.0829595919882333));
#1621=CARTESIAN_POINT('',(-0.0123696424286057,0.137,0.0829595919882333));
#1622=CARTESIAN_POINT('',(-0.0208923086153107,0.137,0.0847478689260783));
#1623=CARTESIAN_POINT('',(-0.0123696424286057,0.137,0.0829595919882333));
#1624=CARTESIAN_POINT('',(-0.0123696424286057,0.137,0.0829595919882333));
#1625=CARTESIAN_POINT('',(-0.00765905927525798,0.137,0.0829595919882333));
#1626=CARTESIAN_POINT('',(-0.00414356851451885,0.137,0.0846780825089916));
#1627=CARTESIAN_POINT('',(-0.00414356851451885,0.137,0.0846780825089916));
#1628=CARTESIAN_POINT('',(-0.00414356851451885,0.137,0.0846780825089916));
#1629=CARTESIAN_POINT('',(-0.00062807775377971,0.137,0.08639657302975));
#1630=CARTESIAN_POINT('',(0.00130849532037436,0.137,0.0896678113306859));
#1631=CARTESIAN_POINT('',(0.00130849532037436,0.137,0.0896678113306859));
#1632=CARTESIAN_POINT('',(0.00130849532037436,0.137,0.0896678113306859));
#1633=CARTESIAN_POINT('',(0.00324506839452843,0.137,0.0929390496316218));
#1634=CARTESIAN_POINT('',(0.00324506839452843,0.137,0.0974664434401171));
#1635=CARTESIAN_POINT('',(0.00324506839452843,0.137,0.0974664434401171));
#1636=CARTESIAN_POINT('',(0.00324506839452843,0.137,0.109692151383482));
#1637=CARTESIAN_POINT('',(0.00324506839452843,0.137,0.121917859326846));
#1638=CARTESIAN_POINT('',(0.000641162706983431,0.137,0.121917859326846));
#1639=CARTESIAN_POINT('',(-0.00196274298056157,0.137,0.121917859326846));
#1640=CARTESIAN_POINT('',(-0.00196274298056157,0.137,0.109910233936877));
#1641=CARTESIAN_POINT('',(-0.00196274298056157,0.137,0.0979026085469086));
#1642=CARTESIAN_POINT('',(-0.00196274298056157,0.137,0.0979026085469086));
#1643=CARTESIAN_POINT('',(-0.00196274298056157,0.137,0.0926424573590036));
#1644=CARTESIAN_POINT('',(-0.00463207343412528,0.137,0.089916425441557));
#1645=CARTESIAN_POINT('',(-0.00463207343412528,0.137,0.089916425441557));
#1646=CARTESIAN_POINT('',(-0.00463207343412528,0.137,0.089916425441557));
#1647=CARTESIAN_POINT('',(-0.00730140388768899,0.137,0.0871903935241104));
#1648=CARTESIAN_POINT('',(-0.0123434725221982,0.137,0.0871903935241104));
#1649=CARTESIAN_POINT('',(-0.0123434725221982,0.137,0.0871903935241104));
#1650=CARTESIAN_POINT('',(-0.0123434725221982,0.137,0.0871903935241104));
#1651=CARTESIAN_POINT('',(-0.0175251139908807,0.137,0.0871903935241104));
#1652=CARTESIAN_POINT('',(-0.0203994420446364,0.137,0.0900123817650512));
#1653=CARTESIAN_POINT('',(-0.0203994420446364,0.137,0.0900123817650512));
#1654=CARTESIAN_POINT('',(-0.0203994420446364,0.137,0.0900123817650512));
#1655=CARTESIAN_POINT('',(-0.0232737700983921,0.137,0.0928343700059919));
#1656=CARTESIAN_POINT('',(-0.0232737700983921,0.137,0.0982602639344776));
#1657=CARTESIAN_POINT('',(-0.0232737700983921,0.137,0.0982602639344776));
#1658=CARTESIAN_POINT('',(-0.0232737700983921,0.137,0.110089061630662));
#1659=CARTESIAN_POINT('',(-0.0232737700983921,0.137,0.121917859326846));
#1660=CARTESIAN_POINT('',(-0.0258645908327334,0.137,0.121917859326846));
#1661=CARTESIAN_POINT('',(-0.0284554115670747,0.137,0.121917859326846));
#1662=CARTESIAN_POINT('',(-0.0284554115670747,0.137,0.109936403843285));
#1663=CARTESIAN_POINT('',(-0.0284554115670747,0.137,0.0979549483597236));
#1664=CARTESIAN_POINT('',(-0.0284554115670747,0.137,0.0979549483597236));
#1665=CARTESIAN_POINT('',(-0.0284554115670747,0.137,0.0932967050191908));
#1666=CARTESIAN_POINT('',(-0.0264795836333093,0.137,0.089916425441557));
#1667=CARTESIAN_POINT('',(-0.0264795836333093,0.137,0.089916425441557));
#1668=CARTESIAN_POINT('',(-0.0264795836333093,0.137,0.089916425441557));
#1669=CARTESIAN_POINT('',(-0.024503755699544,0.137,0.0865361458639232));
#1670=CARTESIAN_POINT('',(-0.0208923086153107,0.137,0.0847478689260783));
#1671=CARTESIAN_POINT('',(0.0217122990160787,0.137,0.0835091600227905));
#1672=CARTESIAN_POINT('',(0.00940371970242379,0.137,0.0835091600227905));
#1673=CARTESIAN_POINT('',(0.0340208783297336,0.137,0.0835091600227905));
#1674=CARTESIAN_POINT('',(0.0340208783297336,0.137,0.102713509674818));
#1675=CARTESIAN_POINT('',(0.0340208783297336,0.137,0.121917859326846));
#1676=CARTESIAN_POINT('',(0.0314169726421886,0.137,0.121917859326846));
#1677=CARTESIAN_POINT('',(0.0288130669546436,0.137,0.121917859326846));
#1678=CARTESIAN_POINT('',(0.0288130669546436,0.137,0.104841995395961));
#1679=CARTESIAN_POINT('',(0.0288130669546436,0.137,0.0877661314650751));
#1680=CARTESIAN_POINT('',(0.0191083933285337,0.137,0.0877661314650751));
#1681=CARTESIAN_POINT('',(0.00940371970242379,0.137,0.0877661314650752));
#1682=CARTESIAN_POINT('',(0.00940371970242379,0.137,0.0856376457439328));
#1683=CARTESIAN_POINT('',(0.0518731161507079,0.137,0.117669611186697));
#1684=CARTESIAN_POINT('',(0.0408337772978161,0.137,0.117669611186697));
#1685=CARTESIAN_POINT('',(0.0629124550035997,0.137,0.117669611186697));
#1686=CARTESIAN_POINT('',(0.0629124550035997,0.137,0.110525226737453));
#1687=CARTESIAN_POINT('',(0.0629124550035997,0.137,0.103380842288209));
#1688=CARTESIAN_POINT('',(0.0522002399808015,0.137,0.103380842288209));
#1689=CARTESIAN_POINT('',(0.0414880249580033,0.137,0.103380842288209));
#1690=CARTESIAN_POINT('',(0.0414880249580033,0.137,0.101226186660659));
#1691=CARTESIAN_POINT('',(0.0414880249580033,0.137,0.0990715310331097));
#1692=CARTESIAN_POINT('',(0.0522002399808015,0.137,0.0990715310331097));
#1693=CARTESIAN_POINT('',(0.0629124550035997,0.137,0.0990715310331097));
#1694=CARTESIAN_POINT('',(0.0629124550035997,0.137,0.0912903455279501));
#1695=CARTESIAN_POINT('',(0.0629124550035997,0.137,0.0835091600227905));
#1696=CARTESIAN_POINT('',(0.0655163606911447,0.137,0.0835091600227905));
#1697=CARTESIAN_POINT('',(0.0681202663786896,0.137,0.0835091600227905));
#1698=CARTESIAN_POINT('',(0.0681202663786896,0.137,0.102713509674818));
#1699=CARTESIAN_POINT('',(0.0681202663786896,0.137,0.121917859326846));
#1700=CARTESIAN_POINT('',(0.0544770218382529,0.137,0.121917859326846));
#1701=CARTESIAN_POINT('',(0.0408337772978161,0.137,0.121917859326846));
#1702=CARTESIAN_POINT('',(0.0408337772978161,0.137,0.119793735256772));
#1703=CARTESIAN_POINT('',(0.0727,-0.015,0.00531425915900674));
#1704=CARTESIAN_POINT('',(0.0727,-0.015,0.144205958769513));
#1705=CARTESIAN_POINT('',(0.0727,0.12938,0.144205958769513));
#1706=CARTESIAN_POINT('',(0.0727,0.12938,0.00531425915900674));
#1707=CARTESIAN_POINT('',(0.0727,0.12938,-0.1370572404515));
#1708=CARTESIAN_POINT('',(0.0727,-0.015,-0.1370572404515));
#1709=CARTESIAN_POINT('',(0.00635,-0.015,0.147685758769513));
#1710=CARTESIAN_POINT('',(-0.0692202,-0.015,0.147685758769513));
#1711=CARTESIAN_POINT('',(-0.0692202,0.1335202,0.147685758769513));
#1712=CARTESIAN_POINT('',(-0.0692202,0.12938,0.147685758769513));
#1713=CARTESIAN_POINT('',(0.00635,0.12938,0.147685758769513));
#1714=CARTESIAN_POINT('',(0.0692202,0.12938,0.147685758769513));
#1715=CARTESIAN_POINT('',(0.0692202,-0.015,0.147685758769513));
#1716=CARTESIAN_POINT('',(0.0692202,0.1335202,0.147685758769513));
#1717=CARTESIAN_POINT('',(-0.0727,0.1335202,0.147685758769513));
#1718=CARTESIAN_POINT('',(-0.0727,-0.015,0.00531425915900674));
#1719=CARTESIAN_POINT('',(-0.0727,0.12938,0.00531425915900674));
#1720=CARTESIAN_POINT('',(-0.0727,0.12938,0.144205958769513));
#1721=CARTESIAN_POINT('',(-0.0727,0.12938,-0.1370572404515));
#1722=CARTESIAN_POINT('',(-0.0727,0.137,0.144205958769513));
#1723=CARTESIAN_POINT('',(-0.0727,-0.015,-0.1370572404515));
#1724=CARTESIAN_POINT('',(-0.00635,-0.015,-0.1370572404515));
#1725=CARTESIAN_POINT('',(-0.00635,0.12938,-0.1370572404515));
#1726=CARTESIAN_POINT('',(0.0702000036835671,0.127,0.145192742347717));
#1727=CARTESIAN_POINT('',(0.0702000036835671,0.12938,0.145192742347717));
#1728=CARTESIAN_POINT('',(0.0702000036835671,0.12938,0.146792742347717));
#1729=CARTESIAN_POINT('',(0.068940536268432,0.137,0.144205958769513));
#1730=CARTESIAN_POINT('',(0.0687432214939716,0.137,0.144457798721501));
#1731=CARTESIAN_POINT('',(0.0685122825168029,0.136937339566266,0.145076525562217));
#1732=CARTESIAN_POINT('',(0.0687199713692449,0.13656370330336,0.145972246126058));
#1733=CARTESIAN_POINT('',(0.069278065574792,0.136075872473564,0.146595794481029));
#1734=CARTESIAN_POINT('',(0.070199386670104,0.135733843994645,0.146891000568671));
#1735=CARTESIAN_POINT('',(0.0711215482614797,0.136075341932021,0.146596656904098));
#1736=CARTESIAN_POINT('',(0.0716799955439404,0.13656417876075,0.145970615602295));
#1737=CARTESIAN_POINT('',(0.0718880415125967,0.136935705295205,0.145082647404744));
#1738=CARTESIAN_POINT('',(0.071657095534176,0.137,0.144458193953004));
#1739=CARTESIAN_POINT('',(0.0714594710987021,0.137,0.144205958769513));
#1740=CARTESIAN_POINT('',(-0.0702000111341476,0.127,0.145192742347717));
#1741=CARTESIAN_POINT('',(-0.0702000111341476,0.12938,0.145192742347717));
#1742=CARTESIAN_POINT('',(-0.0702000111341476,0.12938,0.146792742347717));
#1743=CARTESIAN_POINT('',(-0.0714594785492827,0.137,0.144205958769513));
#1744=CARTESIAN_POINT('',(-0.0716567933237431,0.137,0.144457798721501));
#1745=CARTESIAN_POINT('',(-0.0718877323009118,0.136937339566266,0.145076525562217));
#1746=CARTESIAN_POINT('',(-0.0716800434484699,0.13656370330336,0.145972246126058));
#1747=CARTESIAN_POINT('',(-0.0711219492429227,0.136075872473564,0.146595794481029));
#1748=CARTESIAN_POINT('',(-0.0702006281476108,0.135733843994645,0.146891000568671));
#1749=CARTESIAN_POINT('',(-0.069278466556235,0.136075341932021,0.146596656904098));
#1750=CARTESIAN_POINT('',(-0.0687200192737743,0.13656417876075,0.145970615602295));
#1751=CARTESIAN_POINT('',(-0.0685119733051181,0.136935705295205,0.145082647404744));
#1752=CARTESIAN_POINT('',(-0.0687429192835387,0.137,0.144458193953004));
#1753=CARTESIAN_POINT('',(-0.0689405437190126,0.137,0.144205958769513));
#1754=CARTESIAN_POINT('',(-0.0702005475759506,0.127,-0.134556472301483));
#1755=CARTESIAN_POINT('',(-0.0702005475759506,0.12938,-0.134556472301483));
#1756=CARTESIAN_POINT('',(-0.0702005475759506,0.12938,-0.132956472301483));
#1757=CARTESIAN_POINT('',(0.0702000036835671,0.127,-0.134557247161865));
#1758=CARTESIAN_POINT('',(0.0702000036835671,0.12938,-0.134557247161865));
#1759=CARTESIAN_POINT('',(0.0702000036835671,0.12938,-0.132957247161865));
#1760=CARTESIAN_POINT('',(8.3826352495973E-18,0.1116,-0.0759697109460831));
#1761=CARTESIAN_POINT('',(8.3826352495973E-18,0.12938,-0.0759697109460831));
#1762=CARTESIAN_POINT('',(8.3826352495973E-18,0.12938,-0.0384697109460831));
#1763=CARTESIAN_POINT('',(8.3826352495973E-18,0.161781912773847,-0.0759697109460831));
#1764=CARTESIAN_POINT('',(8.3826352495973E-18,0.161781912773847,-0.0384697109460831));
#1765=CARTESIAN_POINT('',(4.31114741718901E-18,0.1624,-0.0759697109460831));
#1766=CARTESIAN_POINT('',(4.31114741718901E-18,0.1589202,-0.0759697109460831));
#1767=CARTESIAN_POINT('',(4.31114741718901E-18,0.1589202,-0.0369697109460831));
#1768=CARTESIAN_POINT('',(-0.0692202,-0.015,0.144205958769513));
#1769=CARTESIAN_POINT('',(-0.0692202,0.12938,0.144205958769513));
#1770=CARTESIAN_POINT('',(-0.0692202,0.1335202,0.144205958769513));
#1771=CARTESIAN_POINT('',(0.00635,0.1335202,0.144205958769513));
#1772=CARTESIAN_POINT('',(0.0692202,0.1335202,0.144205958769513));
#1773=CARTESIAN_POINT('',(0.0692202,-0.015,0.144205958769513));
#1774=CARTESIAN_POINT('',(0.0692202,0.12938,0.144205958769513));
#1775=CARTESIAN_POINT('',(4.31114741718901E-18,0.1589202,-0.0759697109460831));
#1776=CARTESIAN_POINT('',(-0.0573120950323974,0.134206,0.0919053383285261));
#1777=CARTESIAN_POINT('',(-0.0630781977441804,0.134206,0.0835091600227905));
#1778=CARTESIAN_POINT('',(-0.0630781977441804,0.134206,0.0835091600227905));
#1779=CARTESIAN_POINT('',(-0.0573120950323974,0.134206,0.0919053383285261));
#1780=CARTESIAN_POINT('',(-0.0515459923206143,0.134206,0.100301516634262));
#1781=CARTESIAN_POINT('',(-0.0515459923206143,0.134206,0.100301516634262));
#1782=CARTESIAN_POINT('',(-0.0659525257979361,0.134206,0.0835091600227905));
#1783=CARTESIAN_POINT('',(-0.0688268538516918,0.134206,0.0835091600227905));
#1784=CARTESIAN_POINT('',(-0.0688268538516918,0.134206,0.0835091600227905));
#1785=CARTESIAN_POINT('',(-0.0659525257979361,0.134206,0.0835091600227905));
#1786=CARTESIAN_POINT('',(-0.0616999160067194,0.134206,0.0935802123386053));
#1787=CARTESIAN_POINT('',(-0.054572978161747,0.134206,0.10365126465442));
#1788=CARTESIAN_POINT('',(-0.054572978161747,0.134206,0.10365126465442));
#1789=CARTESIAN_POINT('',(-0.0616999160067194,0.134206,0.0935802123386053));
#1790=CARTESIAN_POINT('',(-0.0611416246700264,0.134206,0.112784561990633));
#1791=CARTESIAN_POINT('',(-0.0677102711783057,0.134206,0.121917859326846));
#1792=CARTESIAN_POINT('',(-0.0677102711783057,0.134206,0.121917859326846));
#1793=CARTESIAN_POINT('',(-0.0611416246700264,0.134206,0.112784561990633));
#1794=CARTESIAN_POINT('',(-0.06483594312455,0.134206,0.121917859326846));
#1795=CARTESIAN_POINT('',(-0.0619616150707943,0.134206,0.121917859326846));
#1796=CARTESIAN_POINT('',(-0.0619616150707943,0.134206,0.121917859326846));
#1797=CARTESIAN_POINT('',(-0.06483594312455,0.134206,0.121917859326846));
#1798=CARTESIAN_POINT('',(-0.0567668886489081,0.134206,0.11438092628149));
#1799=CARTESIAN_POINT('',(-0.0515721622270218,0.134206,0.106843993236133));
#1800=CARTESIAN_POINT('',(-0.0515721622270218,0.134206,0.106843993236133));
#1801=CARTESIAN_POINT('',(-0.0567668886489081,0.134206,0.11438092628149));
#1802=CARTESIAN_POINT('',(-0.0462291396688265,0.134206,0.11438092628149));
#1803=CARTESIAN_POINT('',(-0.0408861171106311,0.134206,0.121917859326846));
#1804=CARTESIAN_POINT('',(-0.0408861171106311,0.134206,0.121917859326846));
#1805=CARTESIAN_POINT('',(-0.0462291396688265,0.134206,0.11438092628149));
#1806=CARTESIAN_POINT('',(-0.0380117890568754,0.134206,0.121917859326846));
#1807=CARTESIAN_POINT('',(-0.0351374610031197,0.134206,0.121917859326846));
#1808=CARTESIAN_POINT('',(-0.0351374610031197,0.134206,0.121917859326846));
#1809=CARTESIAN_POINT('',(-0.0380117890568754,0.134206,0.121917859326846));
#1810=CARTESIAN_POINT('',(-0.0418849352051835,0.134206,0.112692967318207));
#1811=CARTESIAN_POINT('',(-0.0486324094072474,0.134206,0.103468075309568));
#1812=CARTESIAN_POINT('',(-0.0486324094072474,0.134206,0.103468075309568));
#1813=CARTESIAN_POINT('',(-0.0418849352051835,0.134206,0.112692967318207));
#1814=CARTESIAN_POINT('',(-0.0413266438684905,0.134206,0.0934886176661791));
#1815=CARTESIAN_POINT('',(-0.0340208783297336,0.134206,0.0835091600227905));
#1816=CARTESIAN_POINT('',(-0.0340208783297336,0.134206,0.0835091600227905));
#1817=CARTESIAN_POINT('',(-0.0413266438684905,0.134206,0.0934886176661791));
#1818=CARTESIAN_POINT('',(-0.0368952063834893,0.134206,0.0835091600227905));
#1819=CARTESIAN_POINT('',(-0.039769534437245,0.134206,0.0835091600227905));
#1820=CARTESIAN_POINT('',(-0.039769534437245,0.134206,0.0835091600227905));
#1821=CARTESIAN_POINT('',(-0.0368952063834893,0.134206,0.0835091600227905));
#1822=CARTESIAN_POINT('',(-0.0456577633789297,0.134206,0.0919053383285261));
#1823=CARTESIAN_POINT('',(-0.0456577633789297,0.134206,0.0919053383285261));
#1824=CARTESIAN_POINT('',(0.,0.134206,0.00357435915900672));
#1825=CARTESIAN_POINT('',(-0.0123696424286057,0.134206,0.0829595919882333));
#1826=CARTESIAN_POINT('',(-0.0123696424286057,0.137,0.0829595919882333));
#1827=CARTESIAN_POINT('',(-0.00922925365970722,0.134206,0.0829595919882333));
#1828=CARTESIAN_POINT('',(-0.00922925365970722,0.137,0.0829595919882333));
#1829=CARTESIAN_POINT('',(-0.00648722902167827,0.134206,0.0835324221618194));
#1830=CARTESIAN_POINT('',(-0.00648722902167827,0.137,0.0835324221618194));
#1831=CARTESIAN_POINT('',(-0.00414356851451885,0.134206,0.0846780825089916));
#1832=CARTESIAN_POINT('',(-0.00414356851451885,0.137,0.0846780825089916));
#1833=CARTESIAN_POINT('',(-0.0123696424286057,0.134206,0.0829595919882333));
#1834=CARTESIAN_POINT('',(-0.0123696424286057,0.134206,0.0829595919882333));
#1835=CARTESIAN_POINT('',(-0.0123696424286057,0.134206,0.0829595919882333));
#1836=CARTESIAN_POINT('',(-0.00765905927525798,0.134206,0.0829595919882333));
#1837=CARTESIAN_POINT('',(-0.00414356851451885,0.134206,0.0846780825089916));
#1838=CARTESIAN_POINT('',(-0.00414356851451885,0.134206,0.0846780825089916));
#1839=CARTESIAN_POINT('',(-0.00414356851451885,0.134206,0.0846780825089916));
#1840=CARTESIAN_POINT('',(-0.0208923086153107,0.134206,0.0847478689260783));
#1841=CARTESIAN_POINT('',(-0.0208923086153107,0.137,0.0847478689260783));
#1842=CARTESIAN_POINT('',(-0.0184846772258219,0.134206,0.0835556843008483));
#1843=CARTESIAN_POINT('',(-0.0184846772258219,0.137,0.0835556843008483));
#1844=CARTESIAN_POINT('',(-0.0156437884969202,0.134206,0.0829595919882333));
#1845=CARTESIAN_POINT('',(-0.0156437884969202,0.137,0.0829595919882333));
#1846=CARTESIAN_POINT('',(-0.0123696424286057,0.134206,0.0829595919882333));
#1847=CARTESIAN_POINT('',(-0.0123696424286057,0.137,0.0829595919882333));
#1848=CARTESIAN_POINT('',(-0.0208923086153107,0.134206,0.0847478689260783));
#1849=CARTESIAN_POINT('',(-0.0208923086153107,0.134206,0.0847478689260783));
#1850=CARTESIAN_POINT('',(-0.0208923086153107,0.134206,0.0847478689260783));
#1851=CARTESIAN_POINT('',(-0.0172808615310775,0.134206,0.0829595919882333));
#1852=CARTESIAN_POINT('',(-0.0123696424286057,0.134206,0.0829595919882333));
#1853=CARTESIAN_POINT('',(-0.0264795836333093,0.134206,0.089916425441557));
#1854=CARTESIAN_POINT('',(-0.0264795836333093,0.137,0.089916425441557));
#1855=CARTESIAN_POINT('',(-0.0251623650107991,0.134206,0.0876629057231345));
#1856=CARTESIAN_POINT('',(-0.0251623650107991,0.137,0.0876629057231345));
#1857=CARTESIAN_POINT('',(-0.0232999400047996,0.134206,0.0859400535513082));
#1858=CARTESIAN_POINT('',(-0.0232999400047996,0.137,0.0859400535513082));
#1859=CARTESIAN_POINT('',(-0.0208923086153107,0.134206,0.0847478689260783));
#1860=CARTESIAN_POINT('',(-0.0208923086153107,0.137,0.0847478689260783));
#1861=CARTESIAN_POINT('',(-0.0264795836333093,0.134206,0.089916425441557));
#1862=CARTESIAN_POINT('',(-0.0264795836333093,0.134206,0.089916425441557));
#1863=CARTESIAN_POINT('',(-0.0264795836333093,0.134206,0.089916425441557));
#1864=CARTESIAN_POINT('',(-0.024503755699544,0.134206,0.0865361458639232));
#1865=CARTESIAN_POINT('',(-0.0208923086153107,0.134206,0.0847478689260783));
#1866=CARTESIAN_POINT('',(-0.0284554115670747,0.134206,0.0979549483597236));
#1867=CARTESIAN_POINT('',(-0.0284554115670747,0.137,0.0979549483597236));
#1868=CARTESIAN_POINT('',(-0.0284554115670747,0.134206,0.0948494527993684));
#1869=CARTESIAN_POINT('',(-0.0284554115670747,0.137,0.0948494527993684));
#1870=CARTESIAN_POINT('',(-0.0277968022558196,0.134206,0.0921699451599795));
#1871=CARTESIAN_POINT('',(-0.0277968022558196,0.137,0.0921699451599795));
#1872=CARTESIAN_POINT('',(-0.0264795836333093,0.134206,0.089916425441557));
#1873=CARTESIAN_POINT('',(-0.0264795836333093,0.137,0.089916425441557));
#1874=CARTESIAN_POINT('',(-0.0284554115670747,0.134206,0.0979549483597236));
#1875=CARTESIAN_POINT('',(-0.0284554115670747,0.134206,0.0979549483597236));
#1876=CARTESIAN_POINT('',(-0.0284554115670747,0.134206,0.0979549483597236));
#1877=CARTESIAN_POINT('',(-0.0284554115670747,0.134206,0.0932967050191908));
#1878=CARTESIAN_POINT('',(-0.0264795836333093,0.134206,0.089916425441557));
#1879=CARTESIAN_POINT('',(-0.0284554115670747,0.134206,0.109936403843285));
#1880=CARTESIAN_POINT('',(-0.0284554115670747,0.134206,0.121917859326846));
#1881=CARTESIAN_POINT('',(-0.0284554115670747,0.134206,0.121917859326846));
#1882=CARTESIAN_POINT('',(-0.0284554115670747,0.134206,0.109936403843285));
#1883=CARTESIAN_POINT('',(-0.0258645908327334,0.134206,0.121917859326846));
#1884=CARTESIAN_POINT('',(-0.0232737700983921,0.134206,0.121917859326846));
#1885=CARTESIAN_POINT('',(-0.0232737700983921,0.134206,0.121917859326846));
#1886=CARTESIAN_POINT('',(-0.0258645908327334,0.134206,0.121917859326846));
#1887=CARTESIAN_POINT('',(-0.0232737700983921,0.134206,0.110089061630662));
#1888=CARTESIAN_POINT('',(-0.0232737700983921,0.134206,0.0982602639344776));
#1889=CARTESIAN_POINT('',(-0.0232737700983921,0.134206,0.0982602639344776));
#1890=CARTESIAN_POINT('',(-0.0232737700983921,0.134206,0.110089061630662));
#1891=CARTESIAN_POINT('',(-0.0203994420446364,0.134206,0.0900123817650512));
#1892=CARTESIAN_POINT('',(-0.0203994420446364,0.137,0.0900123817650512));
#1893=CARTESIAN_POINT('',(-0.0223156607471402,0.134206,0.0918937072590117));
#1894=CARTESIAN_POINT('',(-0.0223156607471402,0.137,0.0918937072590117));
#1895=CARTESIAN_POINT('',(-0.0232737700983921,0.134206,0.0946430013154871));
#1896=CARTESIAN_POINT('',(-0.0232737700983921,0.137,0.0946430013154871));
#1897=CARTESIAN_POINT('',(-0.0232737700983921,0.134206,0.0982602639344776));
#1898=CARTESIAN_POINT('',(-0.0232737700983921,0.137,0.0982602639344776));
#1899=CARTESIAN_POINT('',(-0.0203994420446364,0.134206,0.0900123817650512));
#1900=CARTESIAN_POINT('',(-0.0203994420446364,0.134206,0.0900123817650512));
#1901=CARTESIAN_POINT('',(-0.0203994420446364,0.134206,0.0900123817650512));
#1902=CARTESIAN_POINT('',(-0.0232737700983921,0.134206,0.0928343700059919));
#1903=CARTESIAN_POINT('',(-0.0232737700983921,0.134206,0.0982602639344776));
#1904=CARTESIAN_POINT('',(-0.0123434725221982,0.134206,0.0871903935241104));
#1905=CARTESIAN_POINT('',(-0.0123434725221982,0.137,0.0871903935241104));
#1906=CARTESIAN_POINT('',(-0.0157979001679865,0.134206,0.0871903935241104));
#1907=CARTESIAN_POINT('',(-0.0157979001679865,0.137,0.0871903935241104));
#1908=CARTESIAN_POINT('',(-0.0184832233421326,0.134206,0.0881310562710907));
#1909=CARTESIAN_POINT('',(-0.0184832233421326,0.137,0.0881310562710907));
#1910=CARTESIAN_POINT('',(-0.0203994420446364,0.134206,0.0900123817650512));
#1911=CARTESIAN_POINT('',(-0.0203994420446364,0.137,0.0900123817650512));
#1912=CARTESIAN_POINT('',(-0.0123434725221982,0.134206,0.0871903935241104));
#1913=CARTESIAN_POINT('',(-0.0123434725221982,0.134206,0.0871903935241104));
#1914=CARTESIAN_POINT('',(-0.0123434725221982,0.134206,0.0871903935241104));
#1915=CARTESIAN_POINT('',(-0.0175251139908807,0.134206,0.0871903935241104));
#1916=CARTESIAN_POINT('',(-0.0203994420446364,0.134206,0.0900123817650512));
#1917=CARTESIAN_POINT('',(-0.00463207343412528,0.134206,0.089916425441557));
#1918=CARTESIAN_POINT('',(-0.00463207343412528,0.137,0.089916425441557));
#1919=CARTESIAN_POINT('',(-0.00641162706983442,0.134206,0.0880990708299259));
#1920=CARTESIAN_POINT('',(-0.00641162706983442,0.137,0.0880990708299259));
#1921=CARTESIAN_POINT('',(-0.0089820934325254,0.134206,0.0871903935241104));
#1922=CARTESIAN_POINT('',(-0.0089820934325254,0.137,0.0871903935241104));
#1923=CARTESIAN_POINT('',(-0.0123434725221982,0.134206,0.0871903935241104));
#1924=CARTESIAN_POINT('',(-0.0123434725221982,0.137,0.0871903935241104));
#1925=CARTESIAN_POINT('',(-0.00463207343412528,0.134206,0.089916425441557));
#1926=CARTESIAN_POINT('',(-0.00463207343412528,0.134206,0.089916425441557));
#1927=CARTESIAN_POINT('',(-0.00463207343412528,0.134206,0.089916425441557));
#1928=CARTESIAN_POINT('',(-0.00730140388768899,0.134206,0.0871903935241104));
#1929=CARTESIAN_POINT('',(-0.0123434725221982,0.134206,0.0871903935241104));
#1930=CARTESIAN_POINT('',(-0.00196274298056157,0.134206,0.0979026085469086));
#1931=CARTESIAN_POINT('',(-0.00196274298056157,0.137,0.0979026085469086));
#1932=CARTESIAN_POINT('',(-0.00196274298056157,0.134206,0.0943958410883053));
#1933=CARTESIAN_POINT('',(-0.00196274298056157,0.137,0.0943958410883053));
#1934=CARTESIAN_POINT('',(-0.00285251979841614,0.134206,0.0917337800531881));
#1935=CARTESIAN_POINT('',(-0.00285251979841614,0.137,0.0917337800531881));
#1936=CARTESIAN_POINT('',(-0.00463207343412528,0.134206,0.089916425441557));
#1937=CARTESIAN_POINT('',(-0.00463207343412528,0.137,0.089916425441557));
#1938=CARTESIAN_POINT('',(-0.00196274298056157,0.134206,0.0979026085469086));
#1939=CARTESIAN_POINT('',(-0.00196274298056157,0.134206,0.0979026085469086));
#1940=CARTESIAN_POINT('',(-0.00196274298056157,0.134206,0.0979026085469086));
#1941=CARTESIAN_POINT('',(-0.00196274298056157,0.134206,0.0926424573590036));
#1942=CARTESIAN_POINT('',(-0.00463207343412528,0.134206,0.089916425441557));
#1943=CARTESIAN_POINT('',(-0.00196274298056157,0.134206,0.109910233936877));
#1944=CARTESIAN_POINT('',(-0.00196274298056157,0.134206,0.121917859326846));
#1945=CARTESIAN_POINT('',(-0.00196274298056157,0.134206,0.121917859326846));
#1946=CARTESIAN_POINT('',(-0.00196274298056157,0.134206,0.109910233936877));
#1947=CARTESIAN_POINT('',(0.000641162706983431,0.134206,0.121917859326846));
#1948=CARTESIAN_POINT('',(0.00324506839452843,0.134206,0.121917859326846));
#1949=CARTESIAN_POINT('',(0.00324506839452843,0.134206,0.121917859326846));
#1950=CARTESIAN_POINT('',(0.000641162706983431,0.134206,0.121917859326846));
#1951=CARTESIAN_POINT('',(0.00324506839452843,0.134206,0.109692151383482));
#1952=CARTESIAN_POINT('',(0.00324506839452843,0.134206,0.0974664434401171));
#1953=CARTESIAN_POINT('',(0.00324506839452843,0.134206,0.0974664434401171));
#1954=CARTESIAN_POINT('',(0.00324506839452843,0.134206,0.109692151383482));
#1955=CARTESIAN_POINT('',(0.00130849532037436,0.134206,0.0896678113306859));
#1956=CARTESIAN_POINT('',(0.00130849532037436,0.137,0.0896678113306859));
#1957=CARTESIAN_POINT('',(0.00259954403647707,0.134206,0.0918486368646432));
#1958=CARTESIAN_POINT('',(0.00259954403647707,0.137,0.0918486368646432));
#1959=CARTESIAN_POINT('',(0.00324506839452843,0.134206,0.0944481809011202));
#1960=CARTESIAN_POINT('',(0.00324506839452843,0.137,0.0944481809011202));
#1961=CARTESIAN_POINT('',(0.00324506839452843,0.134206,0.0974664434401171));
#1962=CARTESIAN_POINT('',(0.00324506839452843,0.137,0.0974664434401171));
#1963=CARTESIAN_POINT('',(0.00130849532037436,0.134206,0.0896678113306859));
#1964=CARTESIAN_POINT('',(0.00130849532037436,0.134206,0.0896678113306859));
#1965=CARTESIAN_POINT('',(0.00130849532037436,0.134206,0.0896678113306859));
#1966=CARTESIAN_POINT('',(0.00324506839452843,0.134206,0.0929390496316218));
#1967=CARTESIAN_POINT('',(0.00324506839452843,0.134206,0.0974664434401171));
#1968=CARTESIAN_POINT('',(-0.00414356851451885,0.134206,0.0846780825089916));
#1969=CARTESIAN_POINT('',(-0.00414356851451885,0.137,0.0846780825089916));
#1970=CARTESIAN_POINT('',(-0.00179990800735942,0.134206,0.0858237428561639));
#1971=CARTESIAN_POINT('',(-0.00179990800735942,0.137,0.0858237428561639));
#1972=CARTESIAN_POINT('',(1.74466042716466E-5,0.134206,0.0874869857967286));
#1973=CARTESIAN_POINT('',(1.74466042716466E-5,0.137,0.0874869857967286));
#1974=CARTESIAN_POINT('',(0.00130849532037436,0.134206,0.0896678113306859));
#1975=CARTESIAN_POINT('',(0.00130849532037436,0.137,0.0896678113306859));
#1976=CARTESIAN_POINT('',(-0.00414356851451885,0.134206,0.0846780825089916));
#1977=CARTESIAN_POINT('',(-0.00062807775377971,0.134206,0.08639657302975));
#1978=CARTESIAN_POINT('',(0.00130849532037436,0.134206,0.0896678113306859));
#1979=CARTESIAN_POINT('',(0.,0.134206,0.00357435915900672));
#1980=CARTESIAN_POINT('',(0.0340208783297336,0.134206,0.102713509674818));
#1981=CARTESIAN_POINT('',(0.0340208783297336,0.134206,0.0835091600227905));
#1982=CARTESIAN_POINT('',(0.0340208783297336,0.134206,0.0835091600227905));
#1983=CARTESIAN_POINT('',(0.0340208783297336,0.134206,0.102713509674818));
#1984=CARTESIAN_POINT('',(0.0340208783297336,0.134206,0.121917859326846));
#1985=CARTESIAN_POINT('',(0.0340208783297336,0.134206,0.121917859326846));
#1986=CARTESIAN_POINT('',(0.0217122990160787,0.134206,0.0835091600227905));
#1987=CARTESIAN_POINT('',(0.00940371970242379,0.134206,0.0835091600227905));
#1988=CARTESIAN_POINT('',(0.00940371970242379,0.134206,0.0835091600227905));
#1989=CARTESIAN_POINT('',(0.0217122990160787,0.134206,0.0835091600227905));
#1990=CARTESIAN_POINT('',(0.00940371970242379,0.134206,0.0856376457439328));
#1991=CARTESIAN_POINT('',(0.00940371970242379,0.134206,0.0877661314650752));
#1992=CARTESIAN_POINT('',(0.00940371970242379,0.134206,0.0877661314650752));
#1993=CARTESIAN_POINT('',(0.00940371970242379,0.134206,0.0856376457439328));
#1994=CARTESIAN_POINT('',(0.0191083933285337,0.134206,0.0877661314650751));
#1995=CARTESIAN_POINT('',(0.0288130669546436,0.134206,0.0877661314650751));
#1996=CARTESIAN_POINT('',(0.0288130669546436,0.134206,0.0877661314650751));
#1997=CARTESIAN_POINT('',(0.0191083933285337,0.134206,0.0877661314650751));
#1998=CARTESIAN_POINT('',(0.0288130669546436,0.134206,0.104841995395961));
#1999=CARTESIAN_POINT('',(0.0288130669546436,0.134206,0.121917859326846));
#2000=CARTESIAN_POINT('',(0.0288130669546436,0.134206,0.121917859326846));
#2001=CARTESIAN_POINT('',(0.0288130669546436,0.134206,0.104841995395961));
#2002=CARTESIAN_POINT('',(0.0314169726421886,0.134206,0.121917859326846));
#2003=CARTESIAN_POINT('',(0.0314169726421886,0.134206,0.121917859326846));
#2004=CARTESIAN_POINT('',(0.,0.134206,0.00357435915900672));
#2005=CARTESIAN_POINT('',(0.0629124550035997,0.134206,0.110525226737453));
#2006=CARTESIAN_POINT('',(0.0629124550035997,0.134206,0.117669611186697));
#2007=CARTESIAN_POINT('',(0.0629124550035997,0.134206,0.117669611186697));
#2008=CARTESIAN_POINT('',(0.0629124550035997,0.134206,0.110525226737453));
#2009=CARTESIAN_POINT('',(0.0629124550035997,0.134206,0.103380842288209));
#2010=CARTESIAN_POINT('',(0.0629124550035997,0.134206,0.103380842288209));
#2011=CARTESIAN_POINT('',(0.0518731161507079,0.134206,0.117669611186697));
#2012=CARTESIAN_POINT('',(0.0408337772978161,0.134206,0.117669611186697));
#2013=CARTESIAN_POINT('',(0.0408337772978161,0.134206,0.117669611186697));
#2014=CARTESIAN_POINT('',(0.0518731161507079,0.134206,0.117669611186697));
#2015=CARTESIAN_POINT('',(0.0408337772978161,0.134206,0.119793735256772));
#2016=CARTESIAN_POINT('',(0.0408337772978161,0.134206,0.121917859326846));
#2017=CARTESIAN_POINT('',(0.0408337772978161,0.134206,0.121917859326846));
#2018=CARTESIAN_POINT('',(0.0408337772978161,0.134206,0.119793735256772));
#2019=CARTESIAN_POINT('',(0.0544770218382529,0.134206,0.121917859326846));
#2020=CARTESIAN_POINT('',(0.0681202663786896,0.134206,0.121917859326846));
#2021=CARTESIAN_POINT('',(0.0681202663786896,0.134206,0.121917859326846));
#2022=CARTESIAN_POINT('',(0.0544770218382529,0.134206,0.121917859326846));
#2023=CARTESIAN_POINT('',(0.0681202663786896,0.134206,0.102713509674818));
#2024=CARTESIAN_POINT('',(0.0681202663786896,0.134206,0.0835091600227905));
#2025=CARTESIAN_POINT('',(0.0681202663786896,0.134206,0.0835091600227905));
#2026=CARTESIAN_POINT('',(0.0681202663786896,0.134206,0.102713509674818));
#2027=CARTESIAN_POINT('',(0.0655163606911447,0.134206,0.0835091600227905));
#2028=CARTESIAN_POINT('',(0.0629124550035997,0.134206,0.0835091600227905));
#2029=CARTESIAN_POINT('',(0.0629124550035997,0.134206,0.0835091600227905));
#2030=CARTESIAN_POINT('',(0.0655163606911447,0.134206,0.0835091600227905));
#2031=CARTESIAN_POINT('',(0.0629124550035997,0.134206,0.0912903455279501));
#2032=CARTESIAN_POINT('',(0.0629124550035997,0.134206,0.0990715310331097));
#2033=CARTESIAN_POINT('',(0.0629124550035997,0.134206,0.0990715310331097));
#2034=CARTESIAN_POINT('',(0.0629124550035997,0.134206,0.0912903455279501));
#2035=CARTESIAN_POINT('',(0.0522002399808015,0.134206,0.0990715310331097));
#2036=CARTESIAN_POINT('',(0.0414880249580033,0.134206,0.0990715310331097));
#2037=CARTESIAN_POINT('',(0.0414880249580033,0.134206,0.0990715310331097));
#2038=CARTESIAN_POINT('',(0.0522002399808015,0.134206,0.0990715310331097));
#2039=CARTESIAN_POINT('',(0.0414880249580033,0.134206,0.101226186660659));
#2040=CARTESIAN_POINT('',(0.0414880249580033,0.134206,0.103380842288209));
#2041=CARTESIAN_POINT('',(0.0414880249580033,0.134206,0.103380842288209));
#2042=CARTESIAN_POINT('',(0.0414880249580033,0.134206,0.101226186660659));
#2043=CARTESIAN_POINT('',(0.0522002399808015,0.134206,0.103380842288209));
#2044=CARTESIAN_POINT('',(0.0522002399808015,0.134206,0.103380842288209));
#2045=CARTESIAN_POINT('',(0.,0.134206,0.00357435915900672));
#2046=CARTESIAN_POINT('',(6.93889390390723E-18,0.12938,0.00357435915900674));
#2047=MECHANICAL_DESIGN_GEOMETRIC_PRESENTATION_REPRESENTATION('',(#1218),
#2048);
#2048=(
GEOMETRIC_REPRESENTATION_CONTEXT(3)
GLOBAL_UNCERTAINTY_ASSIGNED_CONTEXT((#2049))
GLOBAL_UNIT_ASSIGNED_CONTEXT((#2052,#2051,#2050))
REPRESENTATION_CONTEXT('Part 6','TOP_LEVEL_ASSEMBLY_PART')
);
#2049=UNCERTAINTY_MEASURE_WITH_UNIT(LENGTH_MEASURE(2.E-5),#2052,
'DISTANCE_ACCURACY_VALUE','Maximum Tolerance applied to model');
#2050=(
NAMED_UNIT(*)
SI_UNIT($,.STERADIAN.)
SOLID_ANGLE_UNIT()
);
#2051=(
NAMED_UNIT(*)
PLANE_ANGLE_UNIT()
SI_UNIT($,.RADIAN.)
);
#2052=(
LENGTH_UNIT()
NAMED_UNIT(*)
SI_UNIT($,.METRE.)
);
#2053=PRODUCT_DEFINITION_SHAPE('','',#2054);
#2054=PRODUCT_DEFINITION('','',#2056,#2055);
#2055=PRODUCT_DEFINITION_CONTEXT('',#2062,'design');
#2056=PRODUCT_DEFINITION_FORMATION_WITH_SPECIFIED_SOURCE('','',#2058,
 .NOT_KNOWN.);
#2057=PRODUCT_RELATED_PRODUCT_CATEGORY('','',(#2058));
#2058=PRODUCT('Part 6','Part 6','Part 6',(#2060));
#2059=PRODUCT_CATEGORY('','');
#2060=PRODUCT_CONTEXT('',#2062,'mechanical');
#2061=APPLICATION_PROTOCOL_DEFINITION('international standard',
'ap242_managed_model_based_3d_engineering',2020,#2062);
#2062=APPLICATION_CONTEXT('managed model based 3d engineering');
ENDSEC;
END-ISO-10303-21;
