ISO-10303-21;
HEADER;
/* Generated by software containing ST-Developer
 * from STEP Tools, Inc. (www.steptools.com) 
 */
/* OPTION: using custom renumber hook */

FILE_DESCRIPTION(
/* description */ ('STEP AP242 Edition 2',
'CAx-IF Rec.Pracs.---Representation and Presentation of Product Manufa
cturing Information (PMI)---4.0---2014-10-13',
'CAx-IF Rec.Pracs.---3D Tessellated Geometry---0.4---2014-09-14','2;1',
'CAx-IF Rec.Pracs.---User Defined Attributes---1.5---2016-08-15'),
/* implementation_level */ '2;1');

FILE_NAME(
/* name */ 'Part Studio 1 - Part 4',
/* time_stamp */ '2026-06-03T18:16:32Z',
/* author */ (''),
/* organization */ (''),
/* preprocessor_version */ 'ST-DEVELOPER v20',
/* originating_system */ 'ONSHAPE BY PTC INC, 1.215',
/* authorisation */ '  ');

FILE_SCHEMA (('AP242_MANAGED_MODEL_BASED_3D_ENGINEERING_MIM_LF { 1 0 10303 442 3 1 4 }'));
ENDSEC;

DATA;
#10=SHAPE_REPRESENTATION_RELATIONSHIP('','',#157,#11);
#11=ADVANCED_BREP_SHAPE_REPRESENTATION('',(#155),#251);
#12=CIRCLE('',#163,0.0375);
#13=CIRCLE('',#164,0.0375);
#14=CIRCLE('',#168,0.039);
#15=CIRCLE('',#170,0.039);
#16=CYLINDRICAL_SURFACE('',#162,0.0375);
#17=CYLINDRICAL_SURFACE('',#169,0.039);
#18=ORIENTED_EDGE('',*,*,#50,.F.);
#19=ORIENTED_EDGE('',*,*,#51,.F.);
#20=ORIENTED_EDGE('',*,*,#52,.T.);
#21=ORIENTED_EDGE('',*,*,#53,.T.);
#22=ORIENTED_EDGE('',*,*,#54,.T.);
#23=ORIENTED_EDGE('',*,*,#55,.F.);
#24=ORIENTED_EDGE('',*,*,#56,.F.);
#25=ORIENTED_EDGE('',*,*,#51,.T.);
#26=ORIENTED_EDGE('',*,*,#57,.T.);
#27=ORIENTED_EDGE('',*,*,#58,.F.);
#28=ORIENTED_EDGE('',*,*,#59,.F.);
#29=ORIENTED_EDGE('',*,*,#55,.T.);
#30=ORIENTED_EDGE('',*,*,#60,.T.);
#31=ORIENTED_EDGE('',*,*,#61,.F.);
#32=ORIENTED_EDGE('',*,*,#62,.F.);
#33=ORIENTED_EDGE('',*,*,#53,.F.);
#34=ORIENTED_EDGE('',*,*,#63,.T.);
#35=ORIENTED_EDGE('',*,*,#58,.T.);
#36=ORIENTED_EDGE('',*,*,#60,.F.);
#37=ORIENTED_EDGE('',*,*,#52,.F.);
#38=ORIENTED_EDGE('',*,*,#56,.T.);
#39=ORIENTED_EDGE('',*,*,#59,.T.);
#40=ORIENTED_EDGE('',*,*,#63,.F.);
#41=ORIENTED_EDGE('',*,*,#64,.T.);
#42=ORIENTED_EDGE('',*,*,#50,.T.);
#43=ORIENTED_EDGE('',*,*,#62,.T.);
#44=ORIENTED_EDGE('',*,*,#57,.F.);
#45=ORIENTED_EDGE('',*,*,#54,.F.);
#46=ORIENTED_EDGE('',*,*,#65,.T.);
#47=ORIENTED_EDGE('',*,*,#64,.F.);
#48=ORIENTED_EDGE('',*,*,#65,.F.);
#49=ORIENTED_EDGE('',*,*,#61,.T.);
#50=EDGE_CURVE('',#66,#67,#78,.T.);
#51=EDGE_CURVE('',#68,#66,#79,.T.);
#52=EDGE_CURVE('',#68,#69,#80,.T.);
#53=EDGE_CURVE('',#69,#67,#81,.T.);
#54=EDGE_CURVE('',#66,#70,#82,.T.);
#55=EDGE_CURVE('',#71,#70,#83,.T.);
#56=EDGE_CURVE('',#68,#71,#84,.T.);
#57=EDGE_CURVE('',#70,#72,#85,.T.);
#58=EDGE_CURVE('',#73,#72,#86,.T.);
#59=EDGE_CURVE('',#71,#73,#87,.T.);
#60=EDGE_CURVE('',#74,#74,#12,.T.);
#61=EDGE_CURVE('',#75,#75,#13,.T.);
#62=EDGE_CURVE('',#67,#72,#88,.T.);
#63=EDGE_CURVE('',#69,#73,#89,.T.);
#64=EDGE_CURVE('',#76,#76,#14,.T.);
#65=EDGE_CURVE('',#77,#77,#15,.T.);
#66=VERTEX_POINT('',#215);
#67=VERTEX_POINT('',#216);
#68=VERTEX_POINT('',#218);
#69=VERTEX_POINT('',#220);
#70=VERTEX_POINT('',#224);
#71=VERTEX_POINT('',#226);
#72=VERTEX_POINT('',#230);
#73=VERTEX_POINT('',#232);
#74=VERTEX_POINT('',#236);
#75=VERTEX_POINT('',#238);
#76=VERTEX_POINT('',#245);
#77=VERTEX_POINT('',#248);
#78=LINE('',#214,#90);
#79=LINE('',#217,#91);
#80=LINE('',#219,#92);
#81=LINE('',#221,#93);
#82=LINE('',#223,#94);
#83=LINE('',#225,#95);
#84=LINE('',#227,#96);
#85=LINE('',#229,#97);
#86=LINE('',#231,#98);
#87=LINE('',#233,#99);
#88=LINE('',#240,#100);
#89=LINE('',#241,#101);
#90=VECTOR('',#176,1.);
#91=VECTOR('',#177,1.);
#92=VECTOR('',#178,1.);
#93=VECTOR('',#179,1.);
#94=VECTOR('',#182,1.);
#95=VECTOR('',#183,1.);
#96=VECTOR('',#184,1.);
#97=VECTOR('',#187,1.);
#98=VECTOR('',#188,1.);
#99=VECTOR('',#189,1.);
#100=VECTOR('',#198,1.);
#101=VECTOR('',#199,1.);
#102=EDGE_LOOP('',(#18,#19,#20,#21));
#103=EDGE_LOOP('',(#22,#23,#24,#25));
#104=EDGE_LOOP('',(#26,#27,#28,#29));
#105=EDGE_LOOP('',(#30));
#106=EDGE_LOOP('',(#31));
#107=EDGE_LOOP('',(#32,#33,#34,#35));
#108=EDGE_LOOP('',(#36));
#109=EDGE_LOOP('',(#37,#38,#39,#40));
#110=EDGE_LOOP('',(#41));
#111=EDGE_LOOP('',(#42,#43,#44,#45));
#112=EDGE_LOOP('',(#46));
#113=EDGE_LOOP('',(#47));
#114=EDGE_LOOP('',(#48));
#115=EDGE_LOOP('',(#49));
#116=FACE_BOUND('',#102,.T.);
#117=FACE_BOUND('',#103,.T.);
#118=FACE_BOUND('',#104,.T.);
#119=FACE_BOUND('',#105,.T.);
#120=FACE_BOUND('',#106,.T.);
#121=FACE_BOUND('',#107,.T.);
#122=FACE_BOUND('',#108,.T.);
#123=FACE_BOUND('',#109,.T.);
#124=FACE_BOUND('',#110,.T.);
#125=FACE_BOUND('',#111,.T.);
#126=FACE_BOUND('',#112,.T.);
#127=FACE_BOUND('',#113,.T.);
#128=FACE_BOUND('',#114,.T.);
#129=FACE_BOUND('',#115,.T.);
#130=PLANE('',#159);
#131=PLANE('',#160);
#132=PLANE('',#161);
#133=PLANE('',#165);
#134=PLANE('',#166);
#135=PLANE('',#167);
#136=PLANE('',#171);
#137=ADVANCED_FACE('',(#116),#130,.T.);
#138=ADVANCED_FACE('',(#117),#131,.F.);
#139=ADVANCED_FACE('',(#118),#132,.F.);
#140=ADVANCED_FACE('',(#119,#120),#16,.F.);
#141=ADVANCED_FACE('',(#121),#133,.T.);
#142=ADVANCED_FACE('',(#122,#123),#134,.T.);
#143=ADVANCED_FACE('',(#124,#125),#135,.F.);
#144=ADVANCED_FACE('',(#126,#127),#17,.T.);
#145=ADVANCED_FACE('',(#128,#129),#136,.F.);
#146=CLOSED_SHELL('',(#137,#138,#139,#140,#141,#142,#143,#144,#145));
#147=STYLED_ITEM('',(#148),#155);
#148=PRESENTATION_STYLE_ASSIGNMENT((#149));
#149=SURFACE_STYLE_USAGE(.BOTH.,#150);
#150=SURFACE_SIDE_STYLE('',(#151));
#151=SURFACE_STYLE_FILL_AREA(#152);
#152=FILL_AREA_STYLE('',(#153));
#153=FILL_AREA_STYLE_COLOUR('',#154);
#154=COLOUR_RGB('',0.768627450980392,0.886274509803922,0.952941176470588);
#155=MANIFOLD_SOLID_BREP('Part 4',#146);
#156=SHAPE_DEFINITION_REPRESENTATION(#256,#157);
#157=SHAPE_REPRESENTATION('Part 4',(#158),#251);
#158=AXIS2_PLACEMENT_3D('',#212,#172,#173);
#159=AXIS2_PLACEMENT_3D('',#213,#174,#175);
#160=AXIS2_PLACEMENT_3D('',#222,#180,#181);
#161=AXIS2_PLACEMENT_3D('',#228,#185,#186);
#162=AXIS2_PLACEMENT_3D('',#234,#190,#191);
#163=AXIS2_PLACEMENT_3D('',#235,#192,#193);
#164=AXIS2_PLACEMENT_3D('',#237,#194,#195);
#165=AXIS2_PLACEMENT_3D('',#239,#196,#197);
#166=AXIS2_PLACEMENT_3D('',#242,#200,#201);
#167=AXIS2_PLACEMENT_3D('',#243,#202,#203);
#168=AXIS2_PLACEMENT_3D('',#244,#204,#205);
#169=AXIS2_PLACEMENT_3D('',#246,#206,#207);
#170=AXIS2_PLACEMENT_3D('',#247,#208,#209);
#171=AXIS2_PLACEMENT_3D('',#249,#210,#211);
#172=DIRECTION('',(0.,0.,1.));
#173=DIRECTION('',(1.,0.,0.));
#174=DIRECTION('',(-1.,2.08166817117217E-16,-1.27465413135646E-32));
#175=DIRECTION('',(-2.08166817117217E-16,-1.,0.));
#176=DIRECTION('',(-2.08166817117217E-16,-1.,6.12323399573677E-17));
#177=DIRECTION('',(0.,6.12323399573677E-17,1.));
#178=DIRECTION('',(-2.08166817117217E-16,-1.,6.12323399573677E-17));
#179=DIRECTION('',(0.,6.12323399573677E-17,1.));
#180=DIRECTION('',(0.,-1.,6.12323399573677E-17));
#181=DIRECTION('',(0.,-6.12323399573677E-17,-1.));
#182=DIRECTION('',(1.,0.,0.));
#183=DIRECTION('',(0.,6.12323399573677E-17,1.));
#184=DIRECTION('',(1.,0.,0.));
#185=DIRECTION('',(-1.,2.08166817117217E-16,-1.27465413135646E-32));
#186=DIRECTION('',(-2.08166817117217E-16,-1.,0.));
#187=DIRECTION('',(-2.08166817117217E-16,-1.,6.12323399573677E-17));
#188=DIRECTION('',(0.,6.12323399573677E-17,1.));
#189=DIRECTION('',(-2.08166817117217E-16,-1.,6.12323399573677E-17));
#190=DIRECTION('',(0.,6.12323399573677E-17,1.));
#191=DIRECTION('',(0.,-1.,6.12323399573677E-17));
#192=DIRECTION('',(0.,-6.12323399573677E-17,-1.));
#193=DIRECTION('',(0.,1.,-6.12323399573677E-17));
#194=DIRECTION('',(0.,-6.12323399573677E-17,-1.));
#195=DIRECTION('',(0.,1.,-6.12323399573677E-17));
#196=DIRECTION('',(0.,-1.,6.12323399573677E-17));
#197=DIRECTION('',(0.,-6.12323399573677E-17,-1.));
#198=DIRECTION('',(1.,0.,0.));
#199=DIRECTION('',(1.,0.,0.));
#200=DIRECTION('',(0.,-6.12323399573677E-17,-1.));
#201=DIRECTION('',(1.,0.,0.));
#202=DIRECTION('',(0.,-6.12323399573677E-17,-1.));
#203=DIRECTION('',(1.,0.,0.));
#204=DIRECTION('',(0.,-6.12323399573677E-17,-1.));
#205=DIRECTION('',(0.,1.,-6.12323399573677E-17));
#206=DIRECTION('',(0.,-6.12323399573677E-17,-1.));
#207=DIRECTION('',(0.,1.,-6.12323399573677E-17));
#208=DIRECTION('',(0.,-6.12323399573677E-17,-1.));
#209=DIRECTION('',(0.,1.,-6.12323399573677E-17));
#210=DIRECTION('',(0.,-6.12323399573677E-17,-1.));
#211=DIRECTION('',(1.,0.,0.));
#212=CARTESIAN_POINT('',(0.,0.,0.));
#213=CARTESIAN_POINT('',(-0.122251305033445,0.22939909696579,-0.0417182412304868));
#214=CARTESIAN_POINT('',(-0.122251305033445,0.22939909696579,-0.0366382412304867));
#215=CARTESIAN_POINT('',(-0.122251305033445,0.27939909696579,-0.0366382412304867));
#216=CARTESIAN_POINT('',(-0.122251305033445,0.17939909696579,-0.0366382412304867));
#217=CARTESIAN_POINT('',(-0.122251305033445,0.27939909696579,-0.0417182412304868));
#218=CARTESIAN_POINT('',(-0.122251305033445,0.27939909696579,-0.0417182412304868));
#219=CARTESIAN_POINT('',(-0.122251305033445,0.22939909696579,-0.0417182412304868));
#220=CARTESIAN_POINT('',(-0.122251305033445,0.17939909696579,-0.0417182412304868));
#221=CARTESIAN_POINT('',(-0.122251305033445,0.17939909696579,-0.0417182412304868));
#222=CARTESIAN_POINT('',(-0.0722513050334453,0.27939909696579,-0.0417182412304868));
#223=CARTESIAN_POINT('',(-0.0722513050334453,0.27939909696579,-0.0366382412304867));
#224=CARTESIAN_POINT('',(-0.0222513050334453,0.27939909696579,-0.0366382412304867));
#225=CARTESIAN_POINT('',(-0.0222513050334453,0.27939909696579,-0.0417182412304868));
#226=CARTESIAN_POINT('',(-0.0222513050334453,0.27939909696579,-0.0417182412304868));
#227=CARTESIAN_POINT('',(-0.0722513050334453,0.27939909696579,-0.0417182412304868));
#228=CARTESIAN_POINT('',(-0.0222513050334453,0.22939909696579,-0.0417182412304868));
#229=CARTESIAN_POINT('',(-0.0222513050334453,0.22939909696579,-0.0366382412304867));
#230=CARTESIAN_POINT('',(-0.0222513050334453,0.17939909696579,-0.0366382412304867));
#231=CARTESIAN_POINT('',(-0.0222513050334453,0.17939909696579,-0.0417182412304868));
#232=CARTESIAN_POINT('',(-0.0222513050334453,0.17939909696579,-0.0417182412304868));
#233=CARTESIAN_POINT('',(-0.0222513050334453,0.22939909696579,-0.0417182412304868));
#234=CARTESIAN_POINT('',(-0.0722513050334453,0.22939909696579,-0.0417182412304868));
#235=CARTESIAN_POINT('',(-0.0722513050334453,0.22939909696579,-0.0417182412304868));
#236=CARTESIAN_POINT('',(-0.0722513050334453,0.26689909696579,-0.0417182412304868));
#237=CARTESIAN_POINT('',(-0.0722513050334453,0.22939909696579,-0.0112382412304867));
#238=CARTESIAN_POINT('',(-0.0722513050334453,0.26689909696579,-0.0112382412304867));
#239=CARTESIAN_POINT('',(-0.0722513050334454,0.17939909696579,-0.0417182412304868));
#240=CARTESIAN_POINT('',(-0.0722513050334454,0.17939909696579,-0.0366382412304867));
#241=CARTESIAN_POINT('',(-0.0722513050334454,0.17939909696579,-0.0417182412304868));
#242=CARTESIAN_POINT('',(-0.0703791592516877,0.0806683337395453,-0.0417182412304868));
#243=CARTESIAN_POINT('',(-0.0703791592516877,0.0806683337395453,-0.0366382412304867));
#244=CARTESIAN_POINT('',(-0.0722513050334454,0.22939909696579,-0.0366382412304867));
#245=CARTESIAN_POINT('',(-0.0722513050334454,0.26839909696579,-0.0366382412304867));
#246=CARTESIAN_POINT('',(-0.0722513050334454,0.22939909696579,-0.0112382412304867));
#247=CARTESIAN_POINT('',(-0.0722513050334454,0.22939909696579,-0.0112382412304867));
#248=CARTESIAN_POINT('',(-0.0722513050334454,0.26839909696579,-0.0112382412304867));
#249=CARTESIAN_POINT('',(-0.0703791592516877,0.0806683337395453,-0.0112382412304867));
#250=MECHANICAL_DESIGN_GEOMETRIC_PRESENTATION_REPRESENTATION('',(#147),
#251);
#251=(
GEOMETRIC_REPRESENTATION_CONTEXT(3)
GLOBAL_UNCERTAINTY_ASSIGNED_CONTEXT((#252))
GLOBAL_UNIT_ASSIGNED_CONTEXT((#255,#254,#253))
REPRESENTATION_CONTEXT('Part 4','TOP_LEVEL_ASSEMBLY_PART')
);
#252=UNCERTAINTY_MEASURE_WITH_UNIT(LENGTH_MEASURE(1.E-8),#255,
'DISTANCE_ACCURACY_VALUE','Maximum Tolerance applied to model');
#253=(
NAMED_UNIT(*)
SI_UNIT($,.STERADIAN.)
SOLID_ANGLE_UNIT()
);
#254=(
NAMED_UNIT(*)
PLANE_ANGLE_UNIT()
SI_UNIT($,.RADIAN.)
);
#255=(
LENGTH_UNIT()
NAMED_UNIT(*)
SI_UNIT($,.METRE.)
);
#256=PRODUCT_DEFINITION_SHAPE('','',#257);
#257=PRODUCT_DEFINITION('','',#259,#258);
#258=PRODUCT_DEFINITION_CONTEXT('',#265,'design');
#259=PRODUCT_DEFINITION_FORMATION_WITH_SPECIFIED_SOURCE('','',#261,
 .NOT_KNOWN.);
#260=PRODUCT_RELATED_PRODUCT_CATEGORY('','',(#261));
#261=PRODUCT('Part 4','Part 4','Part 4',(#263));
#262=PRODUCT_CATEGORY('','');
#263=PRODUCT_CONTEXT('',#265,'mechanical');
#264=APPLICATION_PROTOCOL_DEFINITION('international standard',
'ap242_managed_model_based_3d_engineering',2020,#265);
#265=APPLICATION_CONTEXT('managed model based 3d engineering');
ENDSEC;
END-ISO-10303-21;
