ISO-10303-21;
HEADER;
/* Generated by software containing ST-Developer
 * from STEP Tools, Inc. (www.steptools.com) 
 */
/* OPTION: using custom renumber hook */

FILE_DESCRIPTION(
/* description */ ('STEP AP242 Edition 2',
'CAx-IF Rec.Pracs.---Representation and Presentation of Product Manufa
cturing Information (PMI)---4.0---2014-10-13',
'CAx-IF Rec.Pracs.---3D Tessellated Geometry---0.4---2014-09-14','2;1',
'CAx-IF Rec.Pracs.---User Defined Attributes---1.5---2016-08-15'),
/* implementation_level */ '2;1');

FILE_NAME(
/* name */ 'Part Studio 1 - Part 3',
/* time_stamp */ '2026-06-03T18:16:25Z',
/* author */ (''),
/* organization */ (''),
/* preprocessor_version */ 'ST-DEVELOPER v20',
/* originating_system */ 'ONSHAPE BY PTC INC, 1.215',
/* authorisation */ '  ');

FILE_SCHEMA (('AP242_MANAGED_MODEL_BASED_3D_ENGINEERING_MIM_LF { 1 0 10303 442 3 1 4 }'));
ENDSEC;

DATA;
#10=SHAPE_REPRESENTATION_RELATIONSHIP('','',#283,#11);
#11=ADVANCED_BREP_SHAPE_REPRESENTATION('',(#281),#441);
#12=ORIENTED_EDGE('',*,*,#84,.T.);
#13=ORIENTED_EDGE('',*,*,#85,.T.);
#14=ORIENTED_EDGE('',*,*,#86,.F.);
#15=ORIENTED_EDGE('',*,*,#87,.F.);
#16=ORIENTED_EDGE('',*,*,#86,.T.);
#17=ORIENTED_EDGE('',*,*,#88,.T.);
#18=ORIENTED_EDGE('',*,*,#89,.T.);
#19=ORIENTED_EDGE('',*,*,#90,.F.);
#20=ORIENTED_EDGE('',*,*,#91,.T.);
#21=ORIENTED_EDGE('',*,*,#92,.F.);
#22=ORIENTED_EDGE('',*,*,#93,.T.);
#23=ORIENTED_EDGE('',*,*,#94,.T.);
#24=ORIENTED_EDGE('',*,*,#95,.T.);
#25=ORIENTED_EDGE('',*,*,#96,.F.);
#26=ORIENTED_EDGE('',*,*,#97,.F.);
#27=ORIENTED_EDGE('',*,*,#98,.T.);
#28=ORIENTED_EDGE('',*,*,#89,.F.);
#29=ORIENTED_EDGE('',*,*,#99,.T.);
#30=ORIENTED_EDGE('',*,*,#100,.T.);
#31=ORIENTED_EDGE('',*,*,#101,.T.);
#32=ORIENTED_EDGE('',*,*,#93,.F.);
#33=ORIENTED_EDGE('',*,*,#102,.F.);
#34=ORIENTED_EDGE('',*,*,#103,.F.);
#35=ORIENTED_EDGE('',*,*,#104,.F.);
#36=ORIENTED_EDGE('',*,*,#105,.F.);
#37=ORIENTED_EDGE('',*,*,#102,.T.);
#38=ORIENTED_EDGE('',*,*,#92,.T.);
#39=ORIENTED_EDGE('',*,*,#106,.T.);
#40=ORIENTED_EDGE('',*,*,#90,.T.);
#41=ORIENTED_EDGE('',*,*,#104,.T.);
#42=ORIENTED_EDGE('',*,*,#107,.F.);
#43=ORIENTED_EDGE('',*,*,#108,.T.);
#44=ORIENTED_EDGE('',*,*,#107,.T.);
#45=ORIENTED_EDGE('',*,*,#103,.T.);
#46=ORIENTED_EDGE('',*,*,#105,.T.);
#47=ORIENTED_EDGE('',*,*,#109,.T.);
#48=ORIENTED_EDGE('',*,*,#106,.F.);
#49=ORIENTED_EDGE('',*,*,#91,.F.);
#50=ORIENTED_EDGE('',*,*,#108,.F.);
#51=ORIENTED_EDGE('',*,*,#109,.F.);
#52=ORIENTED_EDGE('',*,*,#97,.T.);
#53=ORIENTED_EDGE('',*,*,#110,.F.);
#54=ORIENTED_EDGE('',*,*,#111,.F.);
#55=ORIENTED_EDGE('',*,*,#112,.T.);
#56=ORIENTED_EDGE('',*,*,#96,.T.);
#57=ORIENTED_EDGE('',*,*,#113,.F.);
#58=ORIENTED_EDGE('',*,*,#114,.F.);
#59=ORIENTED_EDGE('',*,*,#110,.T.);
#60=ORIENTED_EDGE('',*,*,#115,.F.);
#61=ORIENTED_EDGE('',*,*,#116,.T.);
#62=ORIENTED_EDGE('',*,*,#113,.T.);
#63=ORIENTED_EDGE('',*,*,#95,.F.);
#64=ORIENTED_EDGE('',*,*,#98,.F.);
#65=ORIENTED_EDGE('',*,*,#112,.F.);
#66=ORIENTED_EDGE('',*,*,#117,.T.);
#67=ORIENTED_EDGE('',*,*,#87,.T.);
#68=ORIENTED_EDGE('',*,*,#111,.T.);
#69=ORIENTED_EDGE('',*,*,#114,.T.);
#70=ORIENTED_EDGE('',*,*,#116,.F.);
#71=ORIENTED_EDGE('',*,*,#118,.F.);
#72=ORIENTED_EDGE('',*,*,#100,.F.);
#73=ORIENTED_EDGE('',*,*,#119,.F.);
#74=ORIENTED_EDGE('',*,*,#84,.F.);
#75=ORIENTED_EDGE('',*,*,#117,.F.);
#76=ORIENTED_EDGE('',*,*,#88,.F.);
#77=ORIENTED_EDGE('',*,*,#85,.F.);
#78=ORIENTED_EDGE('',*,*,#119,.T.);
#79=ORIENTED_EDGE('',*,*,#99,.F.);
#80=ORIENTED_EDGE('',*,*,#118,.T.);
#81=ORIENTED_EDGE('',*,*,#115,.T.);
#82=ORIENTED_EDGE('',*,*,#94,.F.);
#83=ORIENTED_EDGE('',*,*,#101,.F.);
#84=EDGE_CURVE('',#120,#121,#144,.T.);
#85=EDGE_CURVE('',#121,#122,#145,.T.);
#86=EDGE_CURVE('',#123,#122,#146,.T.);
#87=EDGE_CURVE('',#120,#123,#147,.T.);
#88=EDGE_CURVE('',#122,#124,#148,.T.);
#89=EDGE_CURVE('',#124,#125,#149,.T.);
#90=EDGE_CURVE('',#126,#125,#150,.T.);
#91=EDGE_CURVE('',#126,#127,#151,.T.);
#92=EDGE_CURVE('',#128,#127,#152,.T.);
#93=EDGE_CURVE('',#128,#129,#153,.T.);
#94=EDGE_CURVE('',#129,#130,#154,.T.);
#95=EDGE_CURVE('',#130,#131,#155,.T.);
#96=EDGE_CURVE('',#132,#131,#156,.T.);
#97=EDGE_CURVE('',#133,#132,#157,.T.);
#98=EDGE_CURVE('',#133,#123,#158,.T.);
#99=EDGE_CURVE('',#124,#134,#159,.F.);
#100=EDGE_CURVE('',#134,#135,#160,.F.);
#101=EDGE_CURVE('',#135,#129,#161,.F.);
#102=EDGE_CURVE('',#136,#128,#162,.F.);
#103=EDGE_CURVE('',#137,#136,#163,.F.);
#104=EDGE_CURVE('',#125,#137,#164,.F.);
#105=EDGE_CURVE('',#136,#138,#165,.T.);
#106=EDGE_CURVE('',#127,#138,#166,.F.);
#107=EDGE_CURVE('',#139,#137,#167,.T.);
#108=EDGE_CURVE('',#139,#126,#168,.F.);
#109=EDGE_CURVE('',#138,#139,#169,.F.);
#110=EDGE_CURVE('',#140,#132,#170,.T.);
#111=EDGE_CURVE('',#141,#140,#171,.T.);
#112=EDGE_CURVE('',#141,#133,#172,.T.);
#113=EDGE_CURVE('',#142,#131,#173,.T.);
#114=EDGE_CURVE('',#140,#142,#174,.T.);
#115=EDGE_CURVE('',#143,#130,#175,.T.);
#116=EDGE_CURVE('',#143,#142,#176,.T.);
#117=EDGE_CURVE('',#141,#120,#177,.T.);
#118=EDGE_CURVE('',#135,#143,#178,.T.);
#119=EDGE_CURVE('',#121,#134,#179,.T.);
#120=VERTEX_POINT('',#368);
#121=VERTEX_POINT('',#369);
#122=VERTEX_POINT('',#371);
#123=VERTEX_POINT('',#373);
#124=VERTEX_POINT('',#377);
#125=VERTEX_POINT('',#379);
#126=VERTEX_POINT('',#381);
#127=VERTEX_POINT('',#383);
#128=VERTEX_POINT('',#385);
#129=VERTEX_POINT('',#387);
#130=VERTEX_POINT('',#389);
#131=VERTEX_POINT('',#391);
#132=VERTEX_POINT('',#393);
#133=VERTEX_POINT('',#395);
#134=VERTEX_POINT('',#399);
#135=VERTEX_POINT('',#401);
#136=VERTEX_POINT('',#404);
#137=VERTEX_POINT('',#406);
#138=VERTEX_POINT('',#410);
#139=VERTEX_POINT('',#414);
#140=VERTEX_POINT('',#421);
#141=VERTEX_POINT('',#423);
#142=VERTEX_POINT('',#427);
#143=VERTEX_POINT('',#431);
#144=LINE('',#367,#180);
#145=LINE('',#370,#181);
#146=LINE('',#372,#182);
#147=LINE('',#374,#183);
#148=LINE('',#376,#184);
#149=LINE('',#378,#185);
#150=LINE('',#380,#186);
#151=LINE('',#382,#187);
#152=LINE('',#384,#188);
#153=LINE('',#386,#189);
#154=LINE('',#388,#190);
#155=LINE('',#390,#191);
#156=LINE('',#392,#192);
#157=LINE('',#394,#193);
#158=LINE('',#396,#194);
#159=LINE('',#398,#195);
#160=LINE('',#400,#196);
#161=LINE('',#402,#197);
#162=LINE('',#403,#198);
#163=LINE('',#405,#199);
#164=LINE('',#407,#200);
#165=LINE('',#409,#201);
#166=LINE('',#411,#202);
#167=LINE('',#413,#203);
#168=LINE('',#415,#204);
#169=LINE('',#417,#205);
#170=LINE('',#420,#206);
#171=LINE('',#422,#207);
#172=LINE('',#424,#208);
#173=LINE('',#426,#209);
#174=LINE('',#428,#210);
#175=LINE('',#430,#211);
#176=LINE('',#432,#212);
#177=LINE('',#434,#213);
#178=LINE('',#436,#214);
#179=LINE('',#437,#215);
#180=VECTOR('',#303,1.);
#181=VECTOR('',#304,1.);
#182=VECTOR('',#305,1.);
#183=VECTOR('',#306,1.);
#184=VECTOR('',#309,1.);
#185=VECTOR('',#310,1.);
#186=VECTOR('',#311,1.);
#187=VECTOR('',#312,1.);
#188=VECTOR('',#313,1.);
#189=VECTOR('',#314,1.);
#190=VECTOR('',#315,1.);
#191=VECTOR('',#316,1.);
#192=VECTOR('',#317,1.);
#193=VECTOR('',#318,1.);
#194=VECTOR('',#319,1.);
#195=VECTOR('',#322,1.);
#196=VECTOR('',#323,1.);
#197=VECTOR('',#324,1.);
#198=VECTOR('',#325,1.);
#199=VECTOR('',#326,1.);
#200=VECTOR('',#327,1.);
#201=VECTOR('',#330,1.);
#202=VECTOR('',#331,1.);
#203=VECTOR('',#334,1.);
#204=VECTOR('',#335,1.);
#205=VECTOR('',#338,1.);
#206=VECTOR('',#343,1.);
#207=VECTOR('',#344,1.);
#208=VECTOR('',#345,1.);
#209=VECTOR('',#348,1.);
#210=VECTOR('',#349,1.);
#211=VECTOR('',#352,1.);
#212=VECTOR('',#353,1.);
#213=VECTOR('',#356,1.);
#214=VECTOR('',#359,1.);
#215=VECTOR('',#360,1.);
#216=EDGE_LOOP('',(#12,#13,#14,#15));
#217=EDGE_LOOP('',(#16,#17,#18,#19,#20,#21,#22,#23,#24,#25,#26,#27));
#218=EDGE_LOOP('',(#28,#29,#30,#31,#32,#33,#34,#35));
#219=EDGE_LOOP('',(#36,#37,#38,#39));
#220=EDGE_LOOP('',(#40,#41,#42,#43));
#221=EDGE_LOOP('',(#44,#45,#46,#47));
#222=EDGE_LOOP('',(#48,#49,#50,#51));
#223=EDGE_LOOP('',(#52,#53,#54,#55));
#224=EDGE_LOOP('',(#56,#57,#58,#59));
#225=EDGE_LOOP('',(#60,#61,#62,#63));
#226=EDGE_LOOP('',(#64,#65,#66,#67));
#227=EDGE_LOOP('',(#68,#69,#70,#71,#72,#73,#74,#75));
#228=EDGE_LOOP('',(#76,#77,#78,#79));
#229=EDGE_LOOP('',(#80,#81,#82,#83));
#230=FACE_BOUND('',#216,.T.);
#231=FACE_BOUND('',#217,.T.);
#232=FACE_BOUND('',#218,.T.);
#233=FACE_BOUND('',#219,.T.);
#234=FACE_BOUND('',#220,.T.);
#235=FACE_BOUND('',#221,.T.);
#236=FACE_BOUND('',#222,.T.);
#237=FACE_BOUND('',#223,.T.);
#238=FACE_BOUND('',#224,.T.);
#239=FACE_BOUND('',#225,.T.);
#240=FACE_BOUND('',#226,.T.);
#241=FACE_BOUND('',#227,.T.);
#242=FACE_BOUND('',#228,.T.);
#243=FACE_BOUND('',#229,.T.);
#244=PLANE('',#285);
#245=PLANE('',#286);
#246=PLANE('',#287);
#247=PLANE('',#288);
#248=PLANE('',#289);
#249=PLANE('',#290);
#250=PLANE('',#291);
#251=PLANE('',#292);
#252=PLANE('',#293);
#253=PLANE('',#294);
#254=PLANE('',#295);
#255=PLANE('',#296);
#256=PLANE('',#297);
#257=PLANE('',#298);
#258=ADVANCED_FACE('',(#230),#244,.T.);
#259=ADVANCED_FACE('',(#231),#245,.T.);
#260=ADVANCED_FACE('',(#232),#246,.F.);
#261=ADVANCED_FACE('',(#233),#247,.T.);
#262=ADVANCED_FACE('',(#234),#248,.T.);
#263=ADVANCED_FACE('',(#235),#249,.F.);
#264=ADVANCED_FACE('',(#236),#250,.F.);
#265=ADVANCED_FACE('',(#237),#251,.F.);
#266=ADVANCED_FACE('',(#238),#252,.F.);
#267=ADVANCED_FACE('',(#239),#253,.T.);
#268=ADVANCED_FACE('',(#240),#254,.T.);
#269=ADVANCED_FACE('',(#241),#255,.T.);
#270=ADVANCED_FACE('',(#242),#256,.T.);
#271=ADVANCED_FACE('',(#243),#257,.T.);
#272=CLOSED_SHELL('',(#258,#259,#260,#261,#262,#263,#264,#265,#266,#267,
#268,#269,#270,#271));
#273=STYLED_ITEM('',(#274),#281);
#274=PRESENTATION_STYLE_ASSIGNMENT((#275));
#275=SURFACE_STYLE_USAGE(.BOTH.,#276);
#276=SURFACE_SIDE_STYLE('',(#277));
#277=SURFACE_STYLE_FILL_AREA(#278);
#278=FILL_AREA_STYLE('',(#279));
#279=FILL_AREA_STYLE_COLOUR('',#280);
#280=COLOUR_RGB('',0.917647058823529,0.917647058823529,0.917647058823529);
#281=MANIFOLD_SOLID_BREP('Part 3',#272);
#282=SHAPE_DEFINITION_REPRESENTATION(#446,#283);
#283=SHAPE_REPRESENTATION('Part 3',(#284),#441);
#284=AXIS2_PLACEMENT_3D('',#365,#299,#300);
#285=AXIS2_PLACEMENT_3D('',#366,#301,#302);
#286=AXIS2_PLACEMENT_3D('',#375,#307,#308);
#287=AXIS2_PLACEMENT_3D('',#397,#320,#321);
#288=AXIS2_PLACEMENT_3D('',#408,#328,#329);
#289=AXIS2_PLACEMENT_3D('',#412,#332,#333);
#290=AXIS2_PLACEMENT_3D('',#416,#336,#337);
#291=AXIS2_PLACEMENT_3D('',#418,#339,#340);
#292=AXIS2_PLACEMENT_3D('',#419,#341,#342);
#293=AXIS2_PLACEMENT_3D('',#425,#346,#347);
#294=AXIS2_PLACEMENT_3D('',#429,#350,#351);
#295=AXIS2_PLACEMENT_3D('',#433,#354,#355);
#296=AXIS2_PLACEMENT_3D('',#435,#357,#358);
#297=AXIS2_PLACEMENT_3D('',#438,#361,#362);
#298=AXIS2_PLACEMENT_3D('',#439,#363,#364);
#299=DIRECTION('',(0.,0.,1.));
#300=DIRECTION('',(1.,0.,0.));
#301=DIRECTION('',(-0.702943272720956,-0.711245917623681,4.35512518212231E-17));
#302=DIRECTION('',(0.711245917623681,-0.702943272720956,0.));
#303=DIRECTION('',(-0.711245917623681,0.702943272720956,-4.30428614459942E-17));
#304=DIRECTION('',(0.,-6.12323399573677E-17,-1.));
#305=DIRECTION('',(-0.711245917623681,0.702943272720956,-4.30428614459942E-17));
#306=DIRECTION('',(0.,-6.12323399573677E-17,-1.));
#307=DIRECTION('',(0.,-6.12323399573677E-17,-1.));
#308=DIRECTION('',(1.,0.,0.));
#309=DIRECTION('',(1.,0.,0.));
#310=DIRECTION('',(0.707083407313861,-0.707130154286621,4.32992340013842E-17));
#311=DIRECTION('',(0.999999991427338,-0.000130940151363934,8.01777186238559E-21));
#312=DIRECTION('',(0.707399451092366,0.706813990095145,-4.32798745281294E-17));
#313=DIRECTION('',(-1.,0.,0.));
#314=DIRECTION('',(0.707083407313861,-0.707130154286621,4.32992340013842E-17));
#315=DIRECTION('',(-1.,0.,0.));
#316=DIRECTION('',(-0.711245917623681,0.702943272720956,-4.30428614459942E-17));
#317=DIRECTION('',(1.,0.,0.));
#318=DIRECTION('',(0.711068673370727,0.703122565240794,-4.30538399465207E-17));
#319=DIRECTION('',(1.,0.,0.));
#320=DIRECTION('',(-0.50001652727756,-0.499983472176122,0.707106781186547));
#321=DIRECTION('',(-0.707083407313861,0.707130154286621,-4.32992340013842E-17));
#322=DIRECTION('',(-0.816487584617315,-3.53532869855702E-17,-0.577362991683553));
#323=DIRECTION('',(0.707083407313861,-0.707130154286621,4.32992340013842E-17));
#324=DIRECTION('',(0.816487584617315,3.53532869855702E-17,0.577362991683553));
#325=DIRECTION('',(0.816487584617315,3.53532869855702E-17,0.577362991683553));
#326=DIRECTION('',(0.707083407313861,-0.707130154286621,4.32992340013842E-17));
#327=DIRECTION('',(-0.81652321616802,0.000106915674433755,-0.577312589528127));
#328=DIRECTION('',(0.,1.,-6.12323399573677E-17));
#329=DIRECTION('',(-1.,0.,0.));
#330=DIRECTION('',(-1.,0.,0.));
#331=DIRECTION('',(0.816609276267058,-3.53427470153446E-17,-0.577190860907024));
#332=DIRECTION('',(-0.000130940151363934,-0.999999991427338,6.12323394324435E-17));
#333=DIRECTION('',(0.999999991427338,-0.000130940151363934,8.01777186238559E-21));
#334=DIRECTION('',(0.999999991427338,-0.000130940151363934,8.01777186238559E-21));
#335=DIRECTION('',(-0.816573619456452,0.000106922274248067,0.577241294932558));
#336=DIRECTION('',(0.,-6.12323399573677E-17,-1.));
#337=DIRECTION('',(1.,0.,0.));
#338=DIRECTION('',(0.707399451092366,0.706813990095145,-4.32798745281294E-17));
#339=DIRECTION('',(0.499792965433797,-0.500206948875051,0.70710678118655));
#340=DIRECTION('',(-0.707399451092366,-0.706813990095145,4.32798745281294E-17));
#341=DIRECTION('',(-0.703122565240794,0.711068673370727,-4.35403987408708E-17));
#342=DIRECTION('',(-0.711068673370727,-0.703122565240794,0.));
#343=DIRECTION('',(0.,-6.12323399573677E-17,-1.));
#344=DIRECTION('',(0.711068673370727,0.703122565240794,-4.30538399465207E-17));
#345=DIRECTION('',(0.,-6.12323399573677E-17,-1.));
#346=DIRECTION('',(0.,1.,-6.12323399573677E-17));
#347=DIRECTION('',(0.,6.12323399573677E-17,1.));
#348=DIRECTION('',(0.,-6.12323399573677E-17,-1.));
#349=DIRECTION('',(1.,0.,0.));
#350=DIRECTION('',(-0.702943272720956,-0.711245917623681,4.35512518212231E-17));
#351=DIRECTION('',(0.711245917623681,-0.702943272720956,0.));
#352=DIRECTION('',(0.,-6.12323399573677E-17,-1.));
#353=DIRECTION('',(-0.711245917623681,0.702943272720956,-4.30428614459942E-17));
#354=DIRECTION('',(0.,1.,-6.12323399573677E-17));
#355=DIRECTION('',(0.,6.12323399573677E-17,1.));
#356=DIRECTION('',(1.,0.,0.));
#357=DIRECTION('',(0.,-6.12323399573677E-17,-1.));
#358=DIRECTION('',(1.,0.,0.));
#359=DIRECTION('',(-1.,0.,0.));
#360=DIRECTION('',(1.,0.,0.));
#361=DIRECTION('',(0.,1.,-6.12323399573677E-17));
#362=DIRECTION('',(0.,6.12323399573677E-17,1.));
#363=DIRECTION('',(0.,-1.,6.12323399573677E-17));
#364=DIRECTION('',(0.,-6.12323399573677E-17,-1.));
#365=CARTESIAN_POINT('',(0.,0.,0.));
#366=CARTESIAN_POINT('',(0.14951967818359,-0.10409924961288,0.201054958769514));
#367=CARTESIAN_POINT('',(0.14951967818359,-0.10409924961288,0.201054958769514));
#368=CARTESIAN_POINT('',(0.159199663188331,-0.113666236460209,0.201054958769514));
#369=CARTESIAN_POINT('',(0.156717747921859,-0.111213293537374,0.201054958769514));
#370=CARTESIAN_POINT('',(0.156717747921859,-0.111213293537374,0.201054958769514));
#371=CARTESIAN_POINT('',(0.156717747921859,-0.111213293537374,0.198565758769514));
#372=CARTESIAN_POINT('',(0.14951967818359,-0.10409924961288,0.198565758769514));
#373=CARTESIAN_POINT('',(0.159199663188331,-0.113666236460209,0.198565758769514));
#374=CARTESIAN_POINT('',(0.159199663188331,-0.113666236460209,0.201054958769514));
#375=CARTESIAN_POINT('',(0.00158612430095667,0.0776035206695203,0.198565758769514));
#376=CARTESIAN_POINT('',(0.159094515173275,-0.111213293537374,0.198565758769514));
#377=CARTESIAN_POINT('',(0.16147128242469,-0.111213293537374,0.198565758769514));
#378=CARTESIAN_POINT('',(-0.0128744185141977,0.0631439338121864,0.198565758769514));
#379=CARTESIAN_POINT('',(0.168319965591215,-0.118062429486699,0.198565758769514));
#380=CARTESIAN_POINT('',(-2.18247392695242E-5,-0.118040386787004,0.198565758769514));
#381=CARTESIAN_POINT('',(-0.168362284094591,-0.118018344261586,0.198565758769514));
#382=CARTESIAN_POINT('',(0.0144931748635277,0.0646857790697041,0.198565758769514));
#383=CARTESIAN_POINT('',(-0.0655128191133904,-0.015254,0.198565758769514));
#384=CARTESIAN_POINT('',(0.00635,-0.015254,0.198565758769514));
#385=CARTESIAN_POINT('',(0.0655183325659922,-0.015254,0.198565758769514));
#386=CARTESIAN_POINT('',(-0.0128744185141977,0.0631439338121864,0.198565758769514));
#387=CARTESIAN_POINT('',(0.155790627214551,-0.105532262765551,0.198565758769514));
#388=CARTESIAN_POINT('',(0.153380122119997,-0.105532262765551,0.198565758769514));
#389=CARTESIAN_POINT('',(0.150969617025445,-0.105532262765551,0.198565758769514));
#390=CARTESIAN_POINT('',(0.14951967818359,-0.10409924961288,0.198565758769514));
#391=CARTESIAN_POINT('',(0.148069739341736,-0.102666236460209,0.198565758769514));
#392=CARTESIAN_POINT('',(-3.77520918846131E-5,-0.102666236460209,0.198565758769514));
#393=CARTESIAN_POINT('',(-0.148145243525505,-0.102666236460209,0.198565758769514));
#394=CARTESIAN_POINT('',(-0.153707399964333,-0.108166236460209,0.198565758769514));
#395=CARTESIAN_POINT('',(-0.15926955640316,-0.113666236460209,0.198565758769514));
#396=CARTESIAN_POINT('',(-3.49466074146543E-5,-0.113666236460209,0.198565758769514));
#397=CARTESIAN_POINT('',(0.0777021347217612,-0.0202541652727756,0.203645758769514));
#398=CARTESIAN_POINT('',(0.108021175944382,-0.111213293537374,0.160769576727457));
#399=CARTESIAN_POINT('',(0.164991426467355,-0.111213293537374,0.201054958769514));
#400=CARTESIAN_POINT('',(0.0758701019180355,-0.0220860769644444,0.201054958769514));
#401=CARTESIAN_POINT('',(0.159310771257214,-0.105532262765551,0.201054958769514));
#402=CARTESIAN_POINT('',(0.106127540754115,-0.105532262765551,0.163447492778396));
#403=CARTESIAN_POINT('',(0.0260736467540575,-0.015254,0.170673232005532));
#404=CARTESIAN_POINT('',(0.0725891666545826,-0.015254,0.203565758769513));
#405=CARTESIAN_POINT('',(0.0776455643094183,-0.0203107319453607,0.203565758769513));
#406=CARTESIAN_POINT('',(0.175391725595924,-0.118063355464033,0.203565758769513));
#407=CARTESIAN_POINT('',(0.0560847812731644,-0.11804773339455,0.119211266929214));
#408=CARTESIAN_POINT('',(0.00635,-0.015254,0.198565758769514));
#409=CARTESIAN_POINT('',(0.00635,-0.015254,0.203565758769513));
#410=CARTESIAN_POINT('',(-0.0725868160490297,-0.015254,0.203565758769513));
#411=CARTESIAN_POINT('',(-0.0175910471588867,-0.015254,0.164693979921921));
#412=CARTESIAN_POINT('',(-2.18247392695242E-5,-0.118040386787004,0.198565758769514));
#413=CARTESIAN_POINT('',(-2.18247392695242E-5,-0.118040386787004,0.203565758769513));
#414=CARTESIAN_POINT('',(-0.175435354114225,-0.118017418112719,0.203565758769513));
#415=CARTESIAN_POINT('',(-0.056114130466859,-0.118033042051938,0.119216796214257));
#416=CARTESIAN_POINT('',(0.00158612430095667,0.0776035206695203,0.203565758769513));
#417=CARTESIAN_POINT('',(-0.129071789475144,-0.07169222508779,0.203565758769513));
#418=CARTESIAN_POINT('',(-0.129128334594351,-0.0716356331317026,0.203645758769514));
#419=CARTESIAN_POINT('',(-0.153707399964333,-0.108166236460209,0.201054958769514));
#420=CARTESIAN_POINT('',(-0.148145243525505,-0.102666236460209,0.201054958769514));
#421=CARTESIAN_POINT('',(-0.148145243525505,-0.102666236460209,0.201054958769514));
#422=CARTESIAN_POINT('',(-0.153707399964333,-0.108166236460209,0.201054958769514));
#423=CARTESIAN_POINT('',(-0.15926955640316,-0.113666236460209,0.201054958769514));
#424=CARTESIAN_POINT('',(-0.15926955640316,-0.113666236460209,0.201054958769514));
#425=CARTESIAN_POINT('',(-3.77520918846131E-5,-0.102666236460209,0.201054958769514));
#426=CARTESIAN_POINT('',(0.148069739341736,-0.102666236460209,0.201054958769514));
#427=CARTESIAN_POINT('',(0.148069739341736,-0.102666236460209,0.201054958769514));
#428=CARTESIAN_POINT('',(-3.77520918846131E-5,-0.102666236460209,0.201054958769514));
#429=CARTESIAN_POINT('',(0.14951967818359,-0.10409924961288,0.201054958769514));
#430=CARTESIAN_POINT('',(0.150969617025445,-0.105532262765551,0.201054958769514));
#431=CARTESIAN_POINT('',(0.150969617025445,-0.105532262765551,0.201054958769514));
#432=CARTESIAN_POINT('',(0.14951967818359,-0.10409924961288,0.201054958769514));
#433=CARTESIAN_POINT('',(-3.49466074146543E-5,-0.113666236460209,0.201054958769514));
#434=CARTESIAN_POINT('',(-3.49466074146543E-5,-0.113666236460209,0.201054958769514));
#435=CARTESIAN_POINT('',(0.00742293120622628,-0.0666582147433497,0.201054958769514));
#436=CARTESIAN_POINT('',(0.153380122119997,-0.105532262765551,0.201054958769514));
#437=CARTESIAN_POINT('',(0.159094515173275,-0.111213293537374,0.201054958769514));
#438=CARTESIAN_POINT('',(0.159094515173275,-0.111213293537374,0.201054958769514));
#439=CARTESIAN_POINT('',(0.153380122119997,-0.105532262765551,0.201054958769514));
#440=MECHANICAL_DESIGN_GEOMETRIC_PRESENTATION_REPRESENTATION('',(#273),
#441);
#441=(
GEOMETRIC_REPRESENTATION_CONTEXT(3)
GLOBAL_UNCERTAINTY_ASSIGNED_CONTEXT((#442))
GLOBAL_UNIT_ASSIGNED_CONTEXT((#445,#444,#443))
REPRESENTATION_CONTEXT('Part 3','TOP_LEVEL_ASSEMBLY_PART')
);
#442=UNCERTAINTY_MEASURE_WITH_UNIT(LENGTH_MEASURE(1.E-8),#445,
'DISTANCE_ACCURACY_VALUE','Maximum Tolerance applied to model');
#443=(
NAMED_UNIT(*)
SI_UNIT($,.STERADIAN.)
SOLID_ANGLE_UNIT()
);
#444=(
NAMED_UNIT(*)
PLANE_ANGLE_UNIT()
SI_UNIT($,.RADIAN.)
);
#445=(
LENGTH_UNIT()
NAMED_UNIT(*)
SI_UNIT($,.METRE.)
);
#446=PRODUCT_DEFINITION_SHAPE('','',#447);
#447=PRODUCT_DEFINITION('','',#449,#448);
#448=PRODUCT_DEFINITION_CONTEXT('',#455,'design');
#449=PRODUCT_DEFINITION_FORMATION_WITH_SPECIFIED_SOURCE('','',#451,
 .NOT_KNOWN.);
#450=PRODUCT_RELATED_PRODUCT_CATEGORY('','',(#451));
#451=PRODUCT('Part 3','Part 3','Part 3',(#453));
#452=PRODUCT_CATEGORY('','');
#453=PRODUCT_CONTEXT('',#455,'mechanical');
#454=APPLICATION_PROTOCOL_DEFINITION('international standard',
'ap242_managed_model_based_3d_engineering',2020,#455);
#455=APPLICATION_CONTEXT('managed model based 3d engineering');
ENDSEC;
END-ISO-10303-21;
