ISO-10303-21;
HEADER;
/* Generated by software containing ST-Developer
 * from STEP Tools, Inc. (www.steptools.com) 
 */
/* OPTION: using custom renumber hook */

FILE_DESCRIPTION(
/* description */ ('STEP AP242 Edition 2',
'CAx-IF Rec.Pracs.---Representation and Presentation of Product Manufa
cturing Information (PMI)---4.0---2014-10-13',
'CAx-IF Rec.Pracs.---3D Tessellated Geometry---0.4---2014-09-14','2;1',
'CAx-IF Rec.Pracs.---User Defined Attributes---1.5---2016-08-15'),
/* implementation_level */ '2;1');

FILE_NAME(
/* name */ 'Part Studio 1 - Part 2',
/* time_stamp */ '2026-06-03T18:16:15Z',
/* author */ (''),
/* organization */ (''),
/* preprocessor_version */ 'ST-DEVELOPER v20',
/* originating_system */ 'ONSHAPE BY PTC INC, 1.215',
/* authorisation */ '  ');

FILE_SCHEMA (('AP242_MANAGED_MODEL_BASED_3D_ENGINEERING_MIM_LF { 1 0 10303 442 3 1 4 }'));
ENDSEC;

DATA;
#10=SHAPE_REPRESENTATION_RELATIONSHIP('','',#132,#11);
#11=ADVANCED_BREP_SHAPE_REPRESENTATION('',(#130),#214);
#12=CYLINDRICAL_SURFACE('',#143,0.0034798);
#13=CYLINDRICAL_SURFACE('',#144,0.0034798);
#14=CIRCLE('',#135,0.0034798);
#15=CIRCLE('',#136,0.0034798);
#16=CIRCLE('',#138,0.0034798);
#17=CIRCLE('',#139,0.0034798);
#18=ORIENTED_EDGE('',*,*,#48,.T.);
#19=ORIENTED_EDGE('',*,*,#49,.T.);
#20=ORIENTED_EDGE('',*,*,#50,.T.);
#21=ORIENTED_EDGE('',*,*,#51,.F.);
#22=ORIENTED_EDGE('',*,*,#52,.T.);
#23=ORIENTED_EDGE('',*,*,#53,.T.);
#24=ORIENTED_EDGE('',*,*,#54,.T.);
#25=ORIENTED_EDGE('',*,*,#55,.F.);
#26=ORIENTED_EDGE('',*,*,#56,.T.);
#27=ORIENTED_EDGE('',*,*,#57,.T.);
#28=ORIENTED_EDGE('',*,*,#55,.T.);
#29=ORIENTED_EDGE('',*,*,#58,.T.);
#30=ORIENTED_EDGE('',*,*,#48,.F.);
#31=ORIENTED_EDGE('',*,*,#59,.T.);
#32=ORIENTED_EDGE('',*,*,#51,.T.);
#33=ORIENTED_EDGE('',*,*,#60,.T.);
#34=ORIENTED_EDGE('',*,*,#57,.F.);
#35=ORIENTED_EDGE('',*,*,#61,.T.);
#36=ORIENTED_EDGE('',*,*,#52,.F.);
#37=ORIENTED_EDGE('',*,*,#61,.F.);
#38=ORIENTED_EDGE('',*,*,#56,.F.);
#39=ORIENTED_EDGE('',*,*,#59,.F.);
#40=ORIENTED_EDGE('',*,*,#60,.F.);
#41=ORIENTED_EDGE('',*,*,#50,.F.);
#42=ORIENTED_EDGE('',*,*,#62,.F.);
#43=ORIENTED_EDGE('',*,*,#53,.F.);
#44=ORIENTED_EDGE('',*,*,#49,.F.);
#45=ORIENTED_EDGE('',*,*,#58,.F.);
#46=ORIENTED_EDGE('',*,*,#54,.F.);
#47=ORIENTED_EDGE('',*,*,#62,.T.);
#48=EDGE_CURVE('',#63,#64,#73,.T.);
#49=EDGE_CURVE('',#64,#65,#14,.T.);
#50=EDGE_CURVE('',#65,#66,#15,.T.);
#51=EDGE_CURVE('',#67,#66,#74,.T.);
#52=EDGE_CURVE('',#67,#63,#75,.T.);
#53=EDGE_CURVE('',#68,#69,#16,.F.);
#54=EDGE_CURVE('',#69,#70,#17,.F.);
#55=EDGE_CURVE('',#71,#70,#76,.T.);
#56=EDGE_CURVE('',#71,#72,#77,.T.);
#57=EDGE_CURVE('',#72,#68,#78,.T.);
#58=EDGE_CURVE('',#70,#64,#79,.F.);
#59=EDGE_CURVE('',#63,#71,#80,.T.);
#60=EDGE_CURVE('',#66,#68,#81,.T.);
#61=EDGE_CURVE('',#72,#67,#82,.T.);
#62=EDGE_CURVE('',#69,#65,#83,.T.);
#63=VERTEX_POINT('',#183);
#64=VERTEX_POINT('',#184);
#65=VERTEX_POINT('',#186);
#66=VERTEX_POINT('',#188);
#67=VERTEX_POINT('',#190);
#68=VERTEX_POINT('',#194);
#69=VERTEX_POINT('',#195);
#70=VERTEX_POINT('',#197);
#71=VERTEX_POINT('',#199);
#72=VERTEX_POINT('',#201);
#73=LINE('',#182,#84);
#74=LINE('',#189,#85);
#75=LINE('',#191,#86);
#76=LINE('',#198,#87);
#77=LINE('',#200,#88);
#78=LINE('',#202,#89);
#79=LINE('',#204,#90);
#80=LINE('',#205,#91);
#81=LINE('',#207,#92);
#82=LINE('',#208,#93);
#83=LINE('',#211,#94);
#84=VECTOR('',#149,1.);
#85=VECTOR('',#154,1.);
#86=VECTOR('',#155,1.);
#87=VECTOR('',#162,1.);
#88=VECTOR('',#163,1.);
#89=VECTOR('',#164,1.);
#90=VECTOR('',#167,1.);
#91=VECTOR('',#168,1.);
#92=VECTOR('',#171,1.);
#93=VECTOR('',#172,1.);
#94=VECTOR('',#177,1.);
#95=EDGE_LOOP('',(#18,#19,#20,#21,#22));
#96=EDGE_LOOP('',(#23,#24,#25,#26,#27));
#97=EDGE_LOOP('',(#28,#29,#30,#31));
#98=EDGE_LOOP('',(#32,#33,#34,#35));
#99=EDGE_LOOP('',(#36,#37,#38,#39));
#100=EDGE_LOOP('',(#40,#41,#42,#43));
#101=EDGE_LOOP('',(#44,#45,#46,#47));
#102=FACE_BOUND('',#95,.T.);
#103=FACE_BOUND('',#96,.T.);
#104=FACE_BOUND('',#97,.T.);
#105=FACE_BOUND('',#98,.T.);
#106=FACE_BOUND('',#99,.T.);
#107=FACE_BOUND('',#100,.T.);
#108=FACE_BOUND('',#101,.T.);
#109=PLANE('',#134);
#110=PLANE('',#137);
#111=PLANE('',#140);
#112=PLANE('',#141);
#113=PLANE('',#142);
#114=ADVANCED_FACE('',(#102),#109,.T.);
#115=ADVANCED_FACE('',(#103),#110,.F.);
#116=ADVANCED_FACE('',(#104),#111,.T.);
#117=ADVANCED_FACE('',(#105),#112,.F.);
#118=ADVANCED_FACE('',(#106),#113,.T.);
#119=ADVANCED_FACE('',(#107),#12,.T.);
#120=ADVANCED_FACE('',(#108),#13,.T.);
#121=CLOSED_SHELL('',(#114,#115,#116,#117,#118,#119,#120));
#122=STYLED_ITEM('',(#123),#130);
#123=PRESENTATION_STYLE_ASSIGNMENT((#124));
#124=SURFACE_STYLE_USAGE(.BOTH.,#125);
#125=SURFACE_SIDE_STYLE('',(#126));
#126=SURFACE_STYLE_FILL_AREA(#127);
#127=FILL_AREA_STYLE('',(#128));
#128=FILL_AREA_STYLE_COLOUR('',#129);
#129=COLOUR_RGB('',0.647058823529412,0.647058823529412,0.647058823529412);
#130=MANIFOLD_SOLID_BREP('Part 2',#121);
#131=SHAPE_DEFINITION_REPRESENTATION(#219,#132);
#132=SHAPE_REPRESENTATION('Part 2',(#133),#214);
#133=AXIS2_PLACEMENT_3D('',#180,#145,#146);
#134=AXIS2_PLACEMENT_3D('',#181,#147,#148);
#135=AXIS2_PLACEMENT_3D('',#185,#150,#151);
#136=AXIS2_PLACEMENT_3D('',#187,#152,#153);
#137=AXIS2_PLACEMENT_3D('',#192,#156,#157);
#138=AXIS2_PLACEMENT_3D('',#193,#158,#159);
#139=AXIS2_PLACEMENT_3D('',#196,#160,#161);
#140=AXIS2_PLACEMENT_3D('',#203,#165,#166);
#141=AXIS2_PLACEMENT_3D('',#206,#169,#170);
#142=AXIS2_PLACEMENT_3D('',#209,#173,#174);
#143=AXIS2_PLACEMENT_3D('',#210,#175,#176);
#144=AXIS2_PLACEMENT_3D('',#212,#178,#179);
#145=DIRECTION('',(0.,0.,1.));
#146=DIRECTION('',(1.,0.,0.));
#147=DIRECTION('',(0.707106781186547,0.707106781186548,3.88875159240464E-16));
#148=DIRECTION('',(2.7497626213393E-16,2.74976262133931E-16,-1.));
#149=DIRECTION('',(2.7497626213393E-16,2.74976262133931E-16,-1.));
#150=DIRECTION('',(0.707106781186547,0.707106781186548,3.88875159240464E-16));
#151=DIRECTION('',(-0.707106781186548,0.707106781186547,0.));
#152=DIRECTION('',(0.707106781186547,0.707106781186548,3.88875159240464E-16));
#153=DIRECTION('',(-0.707106781186548,0.707106781186547,0.));
#154=DIRECTION('',(2.7497626213393E-16,2.74976262133931E-16,-1.));
#155=DIRECTION('',(0.5,-0.5,-0.707106781186547));
#156=DIRECTION('',(0.707106781186547,0.707106781186548,0.));
#157=DIRECTION('',(0.,0.,-1.));
#158=DIRECTION('',(0.707106781186547,0.707106781186548,0.));
#159=DIRECTION('',(-0.707106781186548,0.707106781186547,0.));
#160=DIRECTION('',(0.707106781186547,0.707106781186548,0.));
#161=DIRECTION('',(-0.707106781186548,0.707106781186547,0.));
#162=DIRECTION('',(0.,0.,-1.));
#163=DIRECTION('',(-0.5,0.5,0.707106781186547));
#164=DIRECTION('',(0.,0.,-1.));
#165=DIRECTION('',(0.707106781186548,-0.707106781186547,0.));
#166=DIRECTION('',(0.707106781186547,0.707106781186548,0.));
#167=DIRECTION('',(-0.707106781186547,-0.707106781186548,0.));
#168=DIRECTION('',(-0.707106781186547,-0.707106781186548,0.));
#169=DIRECTION('',(0.707106781186548,-0.707106781186547,0.));
#170=DIRECTION('',(0.707106781186547,0.707106781186548,0.));
#171=DIRECTION('',(-0.707106781186547,-0.707106781186548,0.));
#172=DIRECTION('',(0.707106781186547,0.707106781186548,0.));
#173=DIRECTION('',(0.5,-0.5,0.707106781186549));
#174=DIRECTION('',(0.707106781186547,0.707106781186548,0.));
#175=DIRECTION('',(0.707106781186547,0.707106781186548,0.));
#176=DIRECTION('',(-0.707106781186548,0.707106781186547,0.));
#177=DIRECTION('',(0.707106781186547,0.707106781186548,0.));
#178=DIRECTION('',(-0.707106781186547,-0.707106781186548,0.));
#179=DIRECTION('',(0.707106781186548,-0.707106781186547,0.));
#180=CARTESIAN_POINT('',(0.,0.,0.));
#181=CARTESIAN_POINT('',(-0.130262319830923,-0.0191423910783855,0.00190934715080262));
#182=CARTESIAN_POINT('',(-0.130262319830923,-0.0191423910783855,0.00190934715080262));
#183=CARTESIAN_POINT('',(-0.130262319830923,-0.0191423910783855,0.139577347150803));
#184=CARTESIAN_POINT('',(-0.130262319830923,-0.0191423910783854,-0.137358852849197));
#185=CARTESIAN_POINT('',(-0.132722910008096,-0.0166818009012126,-0.137358852849197));
#186=CARTESIAN_POINT('',(-0.13203008678389,-0.0173746241254191,-0.140697864679066));
#187=CARTESIAN_POINT('',(-0.131337263559683,-0.0180674473496257,-0.137358852849197));
#188=CARTESIAN_POINT('',(-0.133797853736856,-0.0156068571724527,-0.137358852849197));
#189=CARTESIAN_POINT('',(-0.133797853736856,-0.0156068571724528,0.00190934715080262));
#190=CARTESIAN_POINT('',(-0.133797853736856,-0.0156068571724528,0.144577347150803));
#191=CARTESIAN_POINT('',(-0.0815893316547286,-0.0678153792545803,0.0707433471508028));
#192=CARTESIAN_POINT('',(-0.233068291904923,-0.121948363152385,0.00190934715080262));
#193=CARTESIAN_POINT('',(-0.234143235633683,-0.120873419423625,-0.137358852849197));
#194=CARTESIAN_POINT('',(-0.236603825810856,-0.118412829246452,-0.137358852849197));
#195=CARTESIAN_POINT('',(-0.234836058857889,-0.120180596199419,-0.140697864679066));
#196=CARTESIAN_POINT('',(-0.235528882082096,-0.119487772975212,-0.137358852849197));
#197=CARTESIAN_POINT('',(-0.233068291904923,-0.121948363152385,-0.137358852849197));
#198=CARTESIAN_POINT('',(-0.233068291904923,-0.121948363152385,0.00190934715080262));
#199=CARTESIAN_POINT('',(-0.233068291904923,-0.121948363152385,0.139577347150803));
#200=CARTESIAN_POINT('',(-0.233068291904923,-0.121948363152385,0.139577347150803));
#201=CARTESIAN_POINT('',(-0.236603825810856,-0.118412829246452,0.144577347150803));
#202=CARTESIAN_POINT('',(-0.236603825810856,-0.118412829246452,0.00190934715080262));
#203=CARTESIAN_POINT('',(-0.0364167760409285,0.0747031527116096,0.054828238099993));
#204=CARTESIAN_POINT('',(-0.0364167760409285,0.0747031527116096,-0.137358852849197));
#205=CARTESIAN_POINT('',(-0.233068291904923,-0.121948363152385,0.139577347150803));
#206=CARTESIAN_POINT('',(-0.0399523099468613,0.0782386866175423,0.054828238099993));
#207=CARTESIAN_POINT('',(-0.236603825810855,-0.118412829246452,-0.137358852849197));
#208=CARTESIAN_POINT('',(-0.0399523099468613,0.0782386866175423,0.144577347150803));
#209=CARTESIAN_POINT('',(-0.0364167760409285,0.0747031527116096,0.139577347150803));
#210=CARTESIAN_POINT('',(-0.0374917197696883,0.0757780964403694,-0.137358852849197));
#211=CARTESIAN_POINT('',(-0.18343307282089,-0.068777610162419,-0.140697864679066));
#212=CARTESIAN_POINT('',(-0.184125896045096,-0.0680847869382124,-0.137358852849197));
#213=MECHANICAL_DESIGN_GEOMETRIC_PRESENTATION_REPRESENTATION('',(#122),
#214);
#214=(
GEOMETRIC_REPRESENTATION_CONTEXT(3)
GLOBAL_UNCERTAINTY_ASSIGNED_CONTEXT((#215))
GLOBAL_UNIT_ASSIGNED_CONTEXT((#218,#217,#216))
REPRESENTATION_CONTEXT('Part 2','TOP_LEVEL_ASSEMBLY_PART')
);
#215=UNCERTAINTY_MEASURE_WITH_UNIT(LENGTH_MEASURE(1.E-8),#218,
'DISTANCE_ACCURACY_VALUE','Maximum Tolerance applied to model');
#216=(
NAMED_UNIT(*)
SI_UNIT($,.STERADIAN.)
SOLID_ANGLE_UNIT()
);
#217=(
NAMED_UNIT(*)
PLANE_ANGLE_UNIT()
SI_UNIT($,.RADIAN.)
);
#218=(
LENGTH_UNIT()
NAMED_UNIT(*)
SI_UNIT($,.METRE.)
);
#219=PRODUCT_DEFINITION_SHAPE('','',#220);
#220=PRODUCT_DEFINITION('','',#222,#221);
#221=PRODUCT_DEFINITION_CONTEXT('',#228,'design');
#222=PRODUCT_DEFINITION_FORMATION_WITH_SPECIFIED_SOURCE('','',#224,
 .NOT_KNOWN.);
#223=PRODUCT_RELATED_PRODUCT_CATEGORY('','',(#224));
#224=PRODUCT('Part 2','Part 2','Part 2',(#226));
#225=PRODUCT_CATEGORY('','');
#226=PRODUCT_CONTEXT('',#228,'mechanical');
#227=APPLICATION_PROTOCOL_DEFINITION('international standard',
'ap242_managed_model_based_3d_engineering',2020,#228);
#228=APPLICATION_CONTEXT('managed model based 3d engineering');
ENDSEC;
END-ISO-10303-21;
