ISO-10303-21;
HEADER;
/* Generated by software containing ST-Developer
 * from STEP Tools, Inc. (www.steptools.com) 
 */
/* OPTION: using custom renumber hook */

FILE_DESCRIPTION(
/* description */ ('STEP AP242 Edition 2',
'CAx-IF Rec.Pracs.---Representation and Presentation of Product Manufa
cturing Information (PMI)---4.0---2014-10-13',
'CAx-IF Rec.Pracs.---3D Tessellated Geometry---0.4---2014-09-14','2;1',
'CAx-IF Rec.Pracs.---User Defined Attributes---1.5---2016-08-15'),
/* implementation_level */ '2;1');

FILE_NAME(
/* name */ 'Part Studio 1 - Part 5',
/* time_stamp */ '2026-06-03T18:16:38Z',
/* author */ (''),
/* organization */ (''),
/* preprocessor_version */ 'ST-DEVELOPER v20',
/* originating_system */ 'ONSHAPE BY PTC INC, 1.215',
/* authorisation */ '  ');

FILE_SCHEMA (('AP242_MANAGED_MODEL_BASED_3D_ENGINEERING_MIM_LF { 1 0 10303 442 3 1 4 }'));
ENDSEC;

DATA;
#10=SHAPE_REPRESENTATION_RELATIONSHIP('','',#595,#11);
#11=ADVANCED_BREP_SHAPE_REPRESENTATION('',(#593),#1003);
#12=TOROIDAL_SURFACE('',#630,0.0634798,0.0034798);
#13=TOROIDAL_SURFACE('',#632,0.0634798,0.0034798);
#14=CYLINDRICAL_SURFACE('',#608,0.06);
#15=CYLINDRICAL_SURFACE('',#610,0.06);
#16=CYLINDRICAL_SURFACE('',#614,0.0022);
#17=CYLINDRICAL_SURFACE('',#616,0.0022);
#18=CYLINDRICAL_SURFACE('',#618,0.0022);
#19=CYLINDRICAL_SURFACE('',#620,0.0022);
#20=CYLINDRICAL_SURFACE('',#622,0.0022);
#21=CYLINDRICAL_SURFACE('',#624,0.0022);
#22=CYLINDRICAL_SURFACE('',#626,0.0022);
#23=CYLINDRICAL_SURFACE('',#628,0.0022);
#24=CYLINDRICAL_SURFACE('',#634,0.004);
#25=CYLINDRICAL_SURFACE('',#640,0.0034798);
#26=CYLINDRICAL_SURFACE('',#643,0.0034798);
#27=CYLINDRICAL_SURFACE('',#652,0.0375);
#28=CYLINDRICAL_SURFACE('',#661,0.0016);
#29=CYLINDRICAL_SURFACE('',#664,0.0016);
#30=CYLINDRICAL_SURFACE('',#667,0.0016);
#31=CYLINDRICAL_SURFACE('',#670,0.0016);
#32=LINE('',#869,#58);
#33=LINE('',#872,#59);
#34=LINE('',#874,#60);
#35=LINE('',#876,#61);
#36=LINE('',#884,#62);
#37=LINE('',#886,#63);
#38=LINE('',#888,#64);
#39=LINE('',#890,#65);
#40=LINE('',#892,#66);
#41=LINE('',#929,#67);
#42=LINE('',#934,#68);
#43=LINE('',#938,#69);
#44=LINE('',#940,#70);
#45=LINE('',#942,#71);
#46=LINE('',#946,#72);
#47=LINE('',#948,#73);
#48=LINE('',#950,#74);
#49=LINE('',#952,#75);
#50=LINE('',#954,#76);
#51=LINE('',#958,#77);
#52=LINE('',#960,#78);
#53=LINE('',#962,#79);
#54=LINE('',#964,#80);
#55=LINE('',#966,#81);
#56=LINE('',#968,#82);
#57=LINE('',#970,#83);
#58=VECTOR('',#695,1.);
#59=VECTOR('',#696,1.);
#60=VECTOR('',#697,1.);
#61=VECTOR('',#698,1.);
#62=VECTOR('',#709,1.);
#63=VECTOR('',#710,1.);
#64=VECTOR('',#711,1.);
#65=VECTOR('',#714,1.);
#66=VECTOR('',#715,1.);
#67=VECTOR('',#764,1.);
#68=VECTOR('',#767,1.);
#69=VECTOR('',#770,1.);
#70=VECTOR('',#771,1.);
#71=VECTOR('',#774,1.);
#72=VECTOR('',#777,1.);
#73=VECTOR('',#780,1.);
#74=VECTOR('',#781,1.);
#75=VECTOR('',#782,1.);
#76=VECTOR('',#785,1.);
#77=VECTOR('',#788,1.);
#78=VECTOR('',#791,1.);
#79=VECTOR('',#794,1.);
#80=VECTOR('',#797,1.);
#81=VECTOR('',#800,1.);
#82=VECTOR('',#801,1.);
#83=VECTOR('',#804,1.);
#84=ORIENTED_EDGE('',*,*,#212,.T.);
#85=ORIENTED_EDGE('',*,*,#213,.T.);
#86=ORIENTED_EDGE('',*,*,#214,.T.);
#87=ORIENTED_EDGE('',*,*,#215,.T.);
#88=ORIENTED_EDGE('',*,*,#216,.T.);
#89=ORIENTED_EDGE('',*,*,#217,.T.);
#90=ORIENTED_EDGE('',*,*,#218,.T.);
#91=ORIENTED_EDGE('',*,*,#219,.T.);
#92=ORIENTED_EDGE('',*,*,#220,.T.);
#93=ORIENTED_EDGE('',*,*,#221,.T.);
#94=ORIENTED_EDGE('',*,*,#222,.F.);
#95=ORIENTED_EDGE('',*,*,#223,.F.);
#96=ORIENTED_EDGE('',*,*,#224,.T.);
#97=ORIENTED_EDGE('',*,*,#225,.T.);
#98=ORIENTED_EDGE('',*,*,#226,.T.);
#99=ORIENTED_EDGE('',*,*,#220,.F.);
#100=ORIENTED_EDGE('',*,*,#227,.T.);
#101=ORIENTED_EDGE('',*,*,#221,.F.);
#102=ORIENTED_EDGE('',*,*,#224,.F.);
#103=ORIENTED_EDGE('',*,*,#228,.F.);
#104=ORIENTED_EDGE('',*,*,#229,.T.);
#105=ORIENTED_EDGE('',*,*,#230,.T.);
#106=ORIENTED_EDGE('',*,*,#225,.F.);
#107=ORIENTED_EDGE('',*,*,#230,.F.);
#108=ORIENTED_EDGE('',*,*,#231,.T.);
#109=ORIENTED_EDGE('',*,*,#232,.T.);
#110=ORIENTED_EDGE('',*,*,#233,.T.);
#111=ORIENTED_EDGE('',*,*,#212,.F.);
#112=ORIENTED_EDGE('',*,*,#234,.T.);
#113=ORIENTED_EDGE('',*,*,#213,.F.);
#114=ORIENTED_EDGE('',*,*,#235,.T.);
#115=ORIENTED_EDGE('',*,*,#214,.F.);
#116=ORIENTED_EDGE('',*,*,#236,.T.);
#117=ORIENTED_EDGE('',*,*,#215,.F.);
#118=ORIENTED_EDGE('',*,*,#237,.T.);
#119=ORIENTED_EDGE('',*,*,#216,.F.);
#120=ORIENTED_EDGE('',*,*,#238,.T.);
#121=ORIENTED_EDGE('',*,*,#217,.F.);
#122=ORIENTED_EDGE('',*,*,#239,.T.);
#123=ORIENTED_EDGE('',*,*,#218,.F.);
#124=ORIENTED_EDGE('',*,*,#240,.T.);
#125=ORIENTED_EDGE('',*,*,#219,.F.);
#126=ORIENTED_EDGE('',*,*,#241,.F.);
#127=ORIENTED_EDGE('',*,*,#226,.F.);
#128=ORIENTED_EDGE('',*,*,#242,.F.);
#129=ORIENTED_EDGE('',*,*,#227,.F.);
#130=ORIENTED_EDGE('',*,*,#243,.T.);
#131=ORIENTED_EDGE('',*,*,#244,.F.);
#132=ORIENTED_EDGE('',*,*,#242,.T.);
#133=ORIENTED_EDGE('',*,*,#241,.T.);
#134=ORIENTED_EDGE('',*,*,#245,.T.);
#135=ORIENTED_EDGE('',*,*,#246,.T.);
#136=ORIENTED_EDGE('',*,*,#247,.T.);
#137=ORIENTED_EDGE('',*,*,#248,.T.);
#138=ORIENTED_EDGE('',*,*,#249,.F.);
#139=ORIENTED_EDGE('',*,*,#250,.F.);
#140=ORIENTED_EDGE('',*,*,#240,.F.);
#141=ORIENTED_EDGE('',*,*,#239,.F.);
#142=ORIENTED_EDGE('',*,*,#238,.F.);
#143=ORIENTED_EDGE('',*,*,#237,.F.);
#144=ORIENTED_EDGE('',*,*,#236,.F.);
#145=ORIENTED_EDGE('',*,*,#235,.F.);
#146=ORIENTED_EDGE('',*,*,#234,.F.);
#147=ORIENTED_EDGE('',*,*,#233,.F.);
#148=ORIENTED_EDGE('',*,*,#251,.F.);
#149=ORIENTED_EDGE('',*,*,#252,.T.);
#150=ORIENTED_EDGE('',*,*,#253,.F.);
#151=ORIENTED_EDGE('',*,*,#246,.F.);
#152=ORIENTED_EDGE('',*,*,#254,.T.);
#153=ORIENTED_EDGE('',*,*,#255,.T.);
#154=ORIENTED_EDGE('',*,*,#256,.F.);
#155=ORIENTED_EDGE('',*,*,#250,.T.);
#156=ORIENTED_EDGE('',*,*,#257,.F.);
#157=ORIENTED_EDGE('',*,*,#258,.T.);
#158=ORIENTED_EDGE('',*,*,#259,.F.);
#159=ORIENTED_EDGE('',*,*,#248,.F.);
#160=ORIENTED_EDGE('',*,*,#259,.T.);
#161=ORIENTED_EDGE('',*,*,#260,.T.);
#162=ORIENTED_EDGE('',*,*,#254,.F.);
#163=ORIENTED_EDGE('',*,*,#249,.T.);
#164=ORIENTED_EDGE('',*,*,#261,.F.);
#165=ORIENTED_EDGE('',*,*,#257,.T.);
#166=ORIENTED_EDGE('',*,*,#247,.F.);
#167=ORIENTED_EDGE('',*,*,#253,.T.);
#168=ORIENTED_EDGE('',*,*,#243,.F.);
#169=ORIENTED_EDGE('',*,*,#262,.F.);
#170=ORIENTED_EDGE('',*,*,#251,.T.);
#171=ORIENTED_EDGE('',*,*,#245,.F.);
#172=ORIENTED_EDGE('',*,*,#256,.T.);
#173=ORIENTED_EDGE('',*,*,#244,.T.);
#174=ORIENTED_EDGE('',*,*,#222,.T.);
#175=ORIENTED_EDGE('',*,*,#232,.F.);
#176=ORIENTED_EDGE('',*,*,#263,.F.);
#177=ORIENTED_EDGE('',*,*,#264,.T.);
#178=ORIENTED_EDGE('',*,*,#223,.T.);
#179=ORIENTED_EDGE('',*,*,#264,.F.);
#180=ORIENTED_EDGE('',*,*,#265,.F.);
#181=ORIENTED_EDGE('',*,*,#228,.T.);
#182=ORIENTED_EDGE('',*,*,#266,.T.);
#183=ORIENTED_EDGE('',*,*,#265,.T.);
#184=ORIENTED_EDGE('',*,*,#263,.T.);
#185=ORIENTED_EDGE('',*,*,#231,.F.);
#186=ORIENTED_EDGE('',*,*,#229,.F.);
#187=ORIENTED_EDGE('',*,*,#266,.F.);
#188=ORIENTED_EDGE('',*,*,#267,.F.);
#189=ORIENTED_EDGE('',*,*,#268,.T.);
#190=ORIENTED_EDGE('',*,*,#269,.T.);
#191=ORIENTED_EDGE('',*,*,#260,.F.);
#192=ORIENTED_EDGE('',*,*,#258,.F.);
#193=ORIENTED_EDGE('',*,*,#261,.T.);
#194=ORIENTED_EDGE('',*,*,#252,.F.);
#195=ORIENTED_EDGE('',*,*,#262,.T.);
#196=ORIENTED_EDGE('',*,*,#255,.F.);
#197=ORIENTED_EDGE('',*,*,#267,.T.);
#198=ORIENTED_EDGE('',*,*,#270,.T.);
#199=ORIENTED_EDGE('',*,*,#271,.T.);
#200=ORIENTED_EDGE('',*,*,#272,.T.);
#201=ORIENTED_EDGE('',*,*,#272,.F.);
#202=ORIENTED_EDGE('',*,*,#269,.F.);
#203=ORIENTED_EDGE('',*,*,#273,.T.);
#204=ORIENTED_EDGE('',*,*,#273,.F.);
#205=ORIENTED_EDGE('',*,*,#270,.F.);
#206=ORIENTED_EDGE('',*,*,#274,.T.);
#207=ORIENTED_EDGE('',*,*,#274,.F.);
#208=ORIENTED_EDGE('',*,*,#268,.F.);
#209=ORIENTED_EDGE('',*,*,#275,.T.);
#210=ORIENTED_EDGE('',*,*,#275,.F.);
#211=ORIENTED_EDGE('',*,*,#271,.F.);
#212=EDGE_CURVE('',#276,#276,#330,.T.);
#213=EDGE_CURVE('',#277,#277,#331,.T.);
#214=EDGE_CURVE('',#278,#278,#332,.T.);
#215=EDGE_CURVE('',#279,#279,#333,.T.);
#216=EDGE_CURVE('',#280,#280,#334,.T.);
#217=EDGE_CURVE('',#281,#281,#335,.T.);
#218=EDGE_CURVE('',#282,#282,#336,.T.);
#219=EDGE_CURVE('',#283,#283,#337,.T.);
#220=EDGE_CURVE('',#284,#284,#338,.T.);
#221=EDGE_CURVE('',#285,#285,#339,.T.);
#222=EDGE_CURVE('',#286,#287,#32,.T.);
#223=EDGE_CURVE('',#288,#286,#33,.T.);
#224=EDGE_CURVE('',#288,#289,#34,.T.);
#225=EDGE_CURVE('',#289,#287,#35,.T.);
#226=EDGE_CURVE('',#290,#290,#340,.T.);
#227=EDGE_CURVE('',#291,#291,#341,.T.);
#228=EDGE_CURVE('',#292,#288,#36,.T.);
#229=EDGE_CURVE('',#292,#293,#37,.T.);
#230=EDGE_CURVE('',#293,#289,#38,.T.);
#231=EDGE_CURVE('',#293,#294,#39,.T.);
#232=EDGE_CURVE('',#294,#287,#40,.T.);
#233=EDGE_CURVE('',#295,#295,#342,.T.);
#234=EDGE_CURVE('',#296,#296,#343,.T.);
#235=EDGE_CURVE('',#297,#297,#344,.T.);
#236=EDGE_CURVE('',#298,#298,#345,.T.);
#237=EDGE_CURVE('',#299,#299,#346,.T.);
#238=EDGE_CURVE('',#300,#300,#347,.T.);
#239=EDGE_CURVE('',#301,#301,#348,.T.);
#240=EDGE_CURVE('',#302,#302,#349,.T.);
#241=EDGE_CURVE('',#303,#303,#350,.F.);
#242=EDGE_CURVE('',#304,#304,#351,.F.);
#243=EDGE_CURVE('',#305,#305,#352,.T.);
#244=EDGE_CURVE('',#306,#306,#353,.T.);
#245=EDGE_CURVE('',#307,#308,#41,.T.);
#246=EDGE_CURVE('',#308,#309,#354,.T.);
#247=EDGE_CURVE('',#309,#310,#42,.T.);
#248=EDGE_CURVE('',#310,#311,#355,.T.);
#249=EDGE_CURVE('',#312,#311,#43,.T.);
#250=EDGE_CURVE('',#307,#312,#44,.T.);
#251=EDGE_CURVE('',#313,#308,#45,.F.);
#252=EDGE_CURVE('',#313,#314,#356,.F.);
#253=EDGE_CURVE('',#309,#314,#46,.T.);
#254=EDGE_CURVE('',#312,#315,#47,.T.);
#255=EDGE_CURVE('',#315,#316,#48,.T.);
#256=EDGE_CURVE('',#307,#316,#49,.T.);
#257=EDGE_CURVE('',#317,#310,#50,.F.);
#258=EDGE_CURVE('',#317,#318,#357,.F.);
#259=EDGE_CURVE('',#311,#318,#51,.T.);
#260=EDGE_CURVE('',#318,#315,#52,.T.);
#261=EDGE_CURVE('',#317,#314,#53,.T.);
#262=EDGE_CURVE('',#313,#316,#54,.T.);
#263=EDGE_CURVE('',#319,#294,#55,.T.);
#264=EDGE_CURVE('',#319,#286,#56,.T.);
#265=EDGE_CURVE('',#292,#319,#57,.T.);
#266=EDGE_CURVE('',#320,#320,#358,.T.);
#267=EDGE_CURVE('',#321,#321,#359,.F.);
#268=EDGE_CURVE('',#322,#322,#360,.F.);
#269=EDGE_CURVE('',#323,#323,#361,.F.);
#270=EDGE_CURVE('',#324,#324,#362,.F.);
#271=EDGE_CURVE('',#325,#325,#363,.F.);
#272=EDGE_CURVE('',#326,#326,#364,.T.);
#273=EDGE_CURVE('',#327,#327,#365,.T.);
#274=EDGE_CURVE('',#328,#328,#366,.T.);
#275=EDGE_CURVE('',#329,#329,#367,.T.);
#276=VERTEX_POINT('',#850);
#277=VERTEX_POINT('',#852);
#278=VERTEX_POINT('',#854);
#279=VERTEX_POINT('',#856);
#280=VERTEX_POINT('',#858);
#281=VERTEX_POINT('',#860);
#282=VERTEX_POINT('',#862);
#283=VERTEX_POINT('',#864);
#284=VERTEX_POINT('',#866);
#285=VERTEX_POINT('',#868);
#286=VERTEX_POINT('',#870);
#287=VERTEX_POINT('',#871);
#288=VERTEX_POINT('',#873);
#289=VERTEX_POINT('',#875);
#290=VERTEX_POINT('',#879);
#291=VERTEX_POINT('',#882);
#292=VERTEX_POINT('',#885);
#293=VERTEX_POINT('',#887);
#294=VERTEX_POINT('',#891);
#295=VERTEX_POINT('',#895);
#296=VERTEX_POINT('',#898);
#297=VERTEX_POINT('',#901);
#298=VERTEX_POINT('',#904);
#299=VERTEX_POINT('',#907);
#300=VERTEX_POINT('',#910);
#301=VERTEX_POINT('',#913);
#302=VERTEX_POINT('',#916);
#303=VERTEX_POINT('',#919);
#304=VERTEX_POINT('',#922);
#305=VERTEX_POINT('',#925);
#306=VERTEX_POINT('',#927);
#307=VERTEX_POINT('',#930);
#308=VERTEX_POINT('',#931);
#309=VERTEX_POINT('',#933);
#310=VERTEX_POINT('',#935);
#311=VERTEX_POINT('',#937);
#312=VERTEX_POINT('',#939);
#313=VERTEX_POINT('',#943);
#314=VERTEX_POINT('',#945);
#315=VERTEX_POINT('',#949);
#316=VERTEX_POINT('',#951);
#317=VERTEX_POINT('',#955);
#318=VERTEX_POINT('',#957);
#319=VERTEX_POINT('',#967);
#320=VERTEX_POINT('',#973);
#321=VERTEX_POINT('',#976);
#322=VERTEX_POINT('',#979);
#323=VERTEX_POINT('',#981);
#324=VERTEX_POINT('',#983);
#325=VERTEX_POINT('',#985);
#326=VERTEX_POINT('',#988);
#327=VERTEX_POINT('',#992);
#328=VERTEX_POINT('',#996);
#329=VERTEX_POINT('',#1000);
#330=CIRCLE('',#598,0.0022);
#331=CIRCLE('',#599,0.0022);
#332=CIRCLE('',#600,0.0022);
#333=CIRCLE('',#601,0.0022);
#334=CIRCLE('',#602,0.0022);
#335=CIRCLE('',#603,0.0022);
#336=CIRCLE('',#604,0.0022);
#337=CIRCLE('',#605,0.0022);
#338=CIRCLE('',#606,0.06);
#339=CIRCLE('',#607,0.06);
#340=CIRCLE('',#609,0.06);
#341=CIRCLE('',#611,0.06);
#342=CIRCLE('',#615,0.0022);
#343=CIRCLE('',#617,0.0022);
#344=CIRCLE('',#619,0.0022);
#345=CIRCLE('',#621,0.0022);
#346=CIRCLE('',#623,0.0022);
#347=CIRCLE('',#625,0.0022);
#348=CIRCLE('',#627,0.0022);
#349=CIRCLE('',#629,0.0022);
#350=CIRCLE('',#631,0.0634798);
#351=CIRCLE('',#633,0.0634798);
#352=CIRCLE('',#635,0.004);
#353=CIRCLE('',#636,0.004);
#354=CIRCLE('',#638,0.0034798);
#355=CIRCLE('',#639,0.0034798);
#356=CIRCLE('',#641,0.0034798);
#357=CIRCLE('',#644,0.0034798);
#358=CIRCLE('',#651,0.0375);
#359=CIRCLE('',#653,0.0375);
#360=CIRCLE('',#655,0.0016);
#361=CIRCLE('',#656,0.0016);
#362=CIRCLE('',#657,0.0016);
#363=CIRCLE('',#658,0.0016);
#364=CIRCLE('',#660,0.0016);
#365=CIRCLE('',#663,0.0016);
#366=CIRCLE('',#666,0.0016);
#367=CIRCLE('',#669,0.0016);
#368=EDGE_LOOP('',(#84));
#369=EDGE_LOOP('',(#85));
#370=EDGE_LOOP('',(#86));
#371=EDGE_LOOP('',(#87));
#372=EDGE_LOOP('',(#88));
#373=EDGE_LOOP('',(#89));
#374=EDGE_LOOP('',(#90));
#375=EDGE_LOOP('',(#91));
#376=EDGE_LOOP('',(#92));
#377=EDGE_LOOP('',(#93));
#378=EDGE_LOOP('',(#94,#95,#96,#97));
#379=EDGE_LOOP('',(#98));
#380=EDGE_LOOP('',(#99));
#381=EDGE_LOOP('',(#100));
#382=EDGE_LOOP('',(#101));
#383=EDGE_LOOP('',(#102,#103,#104,#105));
#384=EDGE_LOOP('',(#106,#107,#108,#109));
#385=EDGE_LOOP('',(#110));
#386=EDGE_LOOP('',(#111));
#387=EDGE_LOOP('',(#112));
#388=EDGE_LOOP('',(#113));
#389=EDGE_LOOP('',(#114));
#390=EDGE_LOOP('',(#115));
#391=EDGE_LOOP('',(#116));
#392=EDGE_LOOP('',(#117));
#393=EDGE_LOOP('',(#118));
#394=EDGE_LOOP('',(#119));
#395=EDGE_LOOP('',(#120));
#396=EDGE_LOOP('',(#121));
#397=EDGE_LOOP('',(#122));
#398=EDGE_LOOP('',(#123));
#399=EDGE_LOOP('',(#124));
#400=EDGE_LOOP('',(#125));
#401=EDGE_LOOP('',(#126));
#402=EDGE_LOOP('',(#127));
#403=EDGE_LOOP('',(#128));
#404=EDGE_LOOP('',(#129));
#405=EDGE_LOOP('',(#130));
#406=EDGE_LOOP('',(#131));
#407=EDGE_LOOP('',(#132));
#408=EDGE_LOOP('',(#133));
#409=EDGE_LOOP('',(#134,#135,#136,#137,#138,#139));
#410=EDGE_LOOP('',(#140));
#411=EDGE_LOOP('',(#141));
#412=EDGE_LOOP('',(#142));
#413=EDGE_LOOP('',(#143));
#414=EDGE_LOOP('',(#144));
#415=EDGE_LOOP('',(#145));
#416=EDGE_LOOP('',(#146));
#417=EDGE_LOOP('',(#147));
#418=EDGE_LOOP('',(#148,#149,#150,#151));
#419=EDGE_LOOP('',(#152,#153,#154,#155));
#420=EDGE_LOOP('',(#156,#157,#158,#159));
#421=EDGE_LOOP('',(#160,#161,#162,#163));
#422=EDGE_LOOP('',(#164,#165,#166,#167));
#423=EDGE_LOOP('',(#168));
#424=EDGE_LOOP('',(#169,#170,#171,#172));
#425=EDGE_LOOP('',(#173));
#426=EDGE_LOOP('',(#174,#175,#176,#177));
#427=EDGE_LOOP('',(#178,#179,#180,#181));
#428=EDGE_LOOP('',(#182));
#429=EDGE_LOOP('',(#183,#184,#185,#186));
#430=EDGE_LOOP('',(#187));
#431=EDGE_LOOP('',(#188));
#432=EDGE_LOOP('',(#189));
#433=EDGE_LOOP('',(#190));
#434=EDGE_LOOP('',(#191,#192,#193,#194,#195,#196));
#435=EDGE_LOOP('',(#197));
#436=EDGE_LOOP('',(#198));
#437=EDGE_LOOP('',(#199));
#438=EDGE_LOOP('',(#200));
#439=EDGE_LOOP('',(#201));
#440=EDGE_LOOP('',(#202));
#441=EDGE_LOOP('',(#203));
#442=EDGE_LOOP('',(#204));
#443=EDGE_LOOP('',(#205));
#444=EDGE_LOOP('',(#206));
#445=EDGE_LOOP('',(#207));
#446=EDGE_LOOP('',(#208));
#447=EDGE_LOOP('',(#209));
#448=EDGE_LOOP('',(#210));
#449=EDGE_LOOP('',(#211));
#450=FACE_BOUND('',#368,.T.);
#451=FACE_BOUND('',#369,.T.);
#452=FACE_BOUND('',#370,.T.);
#453=FACE_BOUND('',#371,.T.);
#454=FACE_BOUND('',#372,.T.);
#455=FACE_BOUND('',#373,.T.);
#456=FACE_BOUND('',#374,.T.);
#457=FACE_BOUND('',#375,.T.);
#458=FACE_BOUND('',#376,.T.);
#459=FACE_BOUND('',#377,.T.);
#460=FACE_BOUND('',#378,.T.);
#461=FACE_BOUND('',#379,.T.);
#462=FACE_BOUND('',#380,.T.);
#463=FACE_BOUND('',#381,.T.);
#464=FACE_BOUND('',#382,.T.);
#465=FACE_BOUND('',#383,.T.);
#466=FACE_BOUND('',#384,.T.);
#467=FACE_BOUND('',#385,.T.);
#468=FACE_BOUND('',#386,.T.);
#469=FACE_BOUND('',#387,.T.);
#470=FACE_BOUND('',#388,.T.);
#471=FACE_BOUND('',#389,.T.);
#472=FACE_BOUND('',#390,.T.);
#473=FACE_BOUND('',#391,.T.);
#474=FACE_BOUND('',#392,.T.);
#475=FACE_BOUND('',#393,.T.);
#476=FACE_BOUND('',#394,.T.);
#477=FACE_BOUND('',#395,.T.);
#478=FACE_BOUND('',#396,.T.);
#479=FACE_BOUND('',#397,.T.);
#480=FACE_BOUND('',#398,.T.);
#481=FACE_BOUND('',#399,.T.);
#482=FACE_BOUND('',#400,.T.);
#483=FACE_BOUND('',#401,.T.);
#484=FACE_BOUND('',#402,.T.);
#485=FACE_BOUND('',#403,.T.);
#486=FACE_BOUND('',#404,.T.);
#487=FACE_BOUND('',#405,.T.);
#488=FACE_BOUND('',#406,.T.);
#489=FACE_BOUND('',#407,.T.);
#490=FACE_BOUND('',#408,.T.);
#491=FACE_BOUND('',#409,.T.);
#492=FACE_BOUND('',#410,.T.);
#493=FACE_BOUND('',#411,.T.);
#494=FACE_BOUND('',#412,.T.);
#495=FACE_BOUND('',#413,.T.);
#496=FACE_BOUND('',#414,.T.);
#497=FACE_BOUND('',#415,.T.);
#498=FACE_BOUND('',#416,.T.);
#499=FACE_BOUND('',#417,.T.);
#500=FACE_BOUND('',#418,.T.);
#501=FACE_BOUND('',#419,.T.);
#502=FACE_BOUND('',#420,.T.);
#503=FACE_BOUND('',#421,.T.);
#504=FACE_BOUND('',#422,.T.);
#505=FACE_BOUND('',#423,.T.);
#506=FACE_BOUND('',#424,.T.);
#507=FACE_BOUND('',#425,.T.);
#508=FACE_BOUND('',#426,.T.);
#509=FACE_BOUND('',#427,.T.);
#510=FACE_BOUND('',#428,.T.);
#511=FACE_BOUND('',#429,.T.);
#512=FACE_BOUND('',#430,.T.);
#513=FACE_BOUND('',#431,.T.);
#514=FACE_BOUND('',#432,.T.);
#515=FACE_BOUND('',#433,.T.);
#516=FACE_BOUND('',#434,.T.);
#517=FACE_BOUND('',#435,.T.);
#518=FACE_BOUND('',#436,.T.);
#519=FACE_BOUND('',#437,.T.);
#520=FACE_BOUND('',#438,.T.);
#521=FACE_BOUND('',#439,.T.);
#522=FACE_BOUND('',#440,.T.);
#523=FACE_BOUND('',#441,.T.);
#524=FACE_BOUND('',#442,.T.);
#525=FACE_BOUND('',#443,.T.);
#526=FACE_BOUND('',#444,.T.);
#527=FACE_BOUND('',#445,.T.);
#528=FACE_BOUND('',#446,.T.);
#529=FACE_BOUND('',#447,.T.);
#530=FACE_BOUND('',#448,.T.);
#531=FACE_BOUND('',#449,.T.);
#532=PLANE('',#597);
#533=PLANE('',#612);
#534=PLANE('',#613);
#535=PLANE('',#637);
#536=PLANE('',#642);
#537=PLANE('',#645);
#538=PLANE('',#646);
#539=PLANE('',#647);
#540=PLANE('',#648);
#541=PLANE('',#649);
#542=PLANE('',#650);
#543=PLANE('',#654);
#544=PLANE('',#659);
#545=PLANE('',#662);
#546=PLANE('',#665);
#547=PLANE('',#668);
#548=ADVANCED_FACE('',(#450,#451,#452,#453,#454,#455,#456,#457,#458,#459,
#460),#532,.F.);
#549=ADVANCED_FACE('',(#461,#462),#14,.F.);
#550=ADVANCED_FACE('',(#463,#464),#15,.F.);
#551=ADVANCED_FACE('',(#465),#533,.T.);
#552=ADVANCED_FACE('',(#466),#534,.T.);
#553=ADVANCED_FACE('',(#467,#468),#16,.F.);
#554=ADVANCED_FACE('',(#469,#470),#17,.F.);
#555=ADVANCED_FACE('',(#471,#472),#18,.F.);
#556=ADVANCED_FACE('',(#473,#474),#19,.F.);
#557=ADVANCED_FACE('',(#475,#476),#20,.F.);
#558=ADVANCED_FACE('',(#477,#478),#21,.F.);
#559=ADVANCED_FACE('',(#479,#480),#22,.F.);
#560=ADVANCED_FACE('',(#481,#482),#23,.F.);
#561=ADVANCED_FACE('',(#483,#484),#12,.T.);
#562=ADVANCED_FACE('',(#485,#486),#13,.T.);
#563=ADVANCED_FACE('',(#487,#488),#24,.F.);
#564=ADVANCED_FACE('',(#489,#490,#491,#492,#493,#494,#495,#496,#497,#498,
#499),#535,.T.);
#565=ADVANCED_FACE('',(#500),#25,.T.);
#566=ADVANCED_FACE('',(#501),#536,.T.);
#567=ADVANCED_FACE('',(#502),#26,.T.);
#568=ADVANCED_FACE('',(#503),#537,.T.);
#569=ADVANCED_FACE('',(#504),#538,.F.);
#570=ADVANCED_FACE('',(#505,#506),#539,.F.);
#571=ADVANCED_FACE('',(#507,#508),#540,.F.);
#572=ADVANCED_FACE('',(#509),#541,.F.);
#573=ADVANCED_FACE('',(#510,#511),#542,.F.);
#574=ADVANCED_FACE('',(#512,#513),#27,.F.);
#575=ADVANCED_FACE('',(#514,#515,#516,#517,#518,#519),#543,.T.);
#576=ADVANCED_FACE('',(#520),#544,.T.);
#577=ADVANCED_FACE('',(#521,#522),#28,.F.);
#578=ADVANCED_FACE('',(#523),#545,.T.);
#579=ADVANCED_FACE('',(#524,#525),#29,.F.);
#580=ADVANCED_FACE('',(#526),#546,.T.);
#581=ADVANCED_FACE('',(#527,#528),#30,.F.);
#582=ADVANCED_FACE('',(#529),#547,.T.);
#583=ADVANCED_FACE('',(#530,#531),#31,.F.);
#584=CLOSED_SHELL('',(#548,#549,#550,#551,#552,#553,#554,#555,#556,#557,
#558,#559,#560,#561,#562,#563,#564,#565,#566,#567,#568,#569,#570,#571,#572,
#573,#574,#575,#576,#577,#578,#579,#580,#581,#582,#583));
#585=STYLED_ITEM('',(#586),#593);
#586=PRESENTATION_STYLE_ASSIGNMENT((#587));
#587=SURFACE_STYLE_USAGE(.BOTH.,#588);
#588=SURFACE_SIDE_STYLE('',(#589));
#589=SURFACE_STYLE_FILL_AREA(#590);
#590=FILL_AREA_STYLE('',(#591));
#591=FILL_AREA_STYLE_COLOUR('',#592);
#592=COLOUR_RGB('',0.615686274509804,0.811764705882353,0.929411764705882);
#593=MANIFOLD_SOLID_BREP('Part 5',#584);
#594=SHAPE_DEFINITION_REPRESENTATION(#1008,#595);
#595=SHAPE_REPRESENTATION('Part 5',(#596),#1003);
#596=AXIS2_PLACEMENT_3D('',#847,#671,#672);
#597=AXIS2_PLACEMENT_3D('',#848,#673,#674);
#598=AXIS2_PLACEMENT_3D('',#849,#675,#676);
#599=AXIS2_PLACEMENT_3D('',#851,#677,#678);
#600=AXIS2_PLACEMENT_3D('',#853,#679,#680);
#601=AXIS2_PLACEMENT_3D('',#855,#681,#682);
#602=AXIS2_PLACEMENT_3D('',#857,#683,#684);
#603=AXIS2_PLACEMENT_3D('',#859,#685,#686);
#604=AXIS2_PLACEMENT_3D('',#861,#687,#688);
#605=AXIS2_PLACEMENT_3D('',#863,#689,#690);
#606=AXIS2_PLACEMENT_3D('',#865,#691,#692);
#607=AXIS2_PLACEMENT_3D('',#867,#693,#694);
#608=AXIS2_PLACEMENT_3D('',#877,#699,#700);
#609=AXIS2_PLACEMENT_3D('',#878,#701,#702);
#610=AXIS2_PLACEMENT_3D('',#880,#703,#704);
#611=AXIS2_PLACEMENT_3D('',#881,#705,#706);
#612=AXIS2_PLACEMENT_3D('',#883,#707,#708);
#613=AXIS2_PLACEMENT_3D('',#889,#712,#713);
#614=AXIS2_PLACEMENT_3D('',#893,#716,#717);
#615=AXIS2_PLACEMENT_3D('',#894,#718,#719);
#616=AXIS2_PLACEMENT_3D('',#896,#720,#721);
#617=AXIS2_PLACEMENT_3D('',#897,#722,#723);
#618=AXIS2_PLACEMENT_3D('',#899,#724,#725);
#619=AXIS2_PLACEMENT_3D('',#900,#726,#727);
#620=AXIS2_PLACEMENT_3D('',#902,#728,#729);
#621=AXIS2_PLACEMENT_3D('',#903,#730,#731);
#622=AXIS2_PLACEMENT_3D('',#905,#732,#733);
#623=AXIS2_PLACEMENT_3D('',#906,#734,#735);
#624=AXIS2_PLACEMENT_3D('',#908,#736,#737);
#625=AXIS2_PLACEMENT_3D('',#909,#738,#739);
#626=AXIS2_PLACEMENT_3D('',#911,#740,#741);
#627=AXIS2_PLACEMENT_3D('',#912,#742,#743);
#628=AXIS2_PLACEMENT_3D('',#914,#744,#745);
#629=AXIS2_PLACEMENT_3D('',#915,#746,#747);
#630=AXIS2_PLACEMENT_3D('',#917,#748,#749);
#631=AXIS2_PLACEMENT_3D('',#918,#750,#751);
#632=AXIS2_PLACEMENT_3D('',#920,#752,#753);
#633=AXIS2_PLACEMENT_3D('',#921,#754,#755);
#634=AXIS2_PLACEMENT_3D('',#923,#756,#757);
#635=AXIS2_PLACEMENT_3D('',#924,#758,#759);
#636=AXIS2_PLACEMENT_3D('',#926,#760,#761);
#637=AXIS2_PLACEMENT_3D('',#928,#762,#763);
#638=AXIS2_PLACEMENT_3D('',#932,#765,#766);
#639=AXIS2_PLACEMENT_3D('',#936,#768,#769);
#640=AXIS2_PLACEMENT_3D('',#941,#772,#773);
#641=AXIS2_PLACEMENT_3D('',#944,#775,#776);
#642=AXIS2_PLACEMENT_3D('',#947,#778,#779);
#643=AXIS2_PLACEMENT_3D('',#953,#783,#784);
#644=AXIS2_PLACEMENT_3D('',#956,#786,#787);
#645=AXIS2_PLACEMENT_3D('',#959,#789,#790);
#646=AXIS2_PLACEMENT_3D('',#961,#792,#793);
#647=AXIS2_PLACEMENT_3D('',#963,#795,#796);
#648=AXIS2_PLACEMENT_3D('',#965,#798,#799);
#649=AXIS2_PLACEMENT_3D('',#969,#802,#803);
#650=AXIS2_PLACEMENT_3D('',#971,#805,#806);
#651=AXIS2_PLACEMENT_3D('',#972,#807,#808);
#652=AXIS2_PLACEMENT_3D('',#974,#809,#810);
#653=AXIS2_PLACEMENT_3D('',#975,#811,#812);
#654=AXIS2_PLACEMENT_3D('',#977,#813,#814);
#655=AXIS2_PLACEMENT_3D('',#978,#815,#816);
#656=AXIS2_PLACEMENT_3D('',#980,#817,#818);
#657=AXIS2_PLACEMENT_3D('',#982,#819,#820);
#658=AXIS2_PLACEMENT_3D('',#984,#821,#822);
#659=AXIS2_PLACEMENT_3D('',#986,#823,#824);
#660=AXIS2_PLACEMENT_3D('',#987,#825,#826);
#661=AXIS2_PLACEMENT_3D('',#989,#827,#828);
#662=AXIS2_PLACEMENT_3D('',#990,#829,#830);
#663=AXIS2_PLACEMENT_3D('',#991,#831,#832);
#664=AXIS2_PLACEMENT_3D('',#993,#833,#834);
#665=AXIS2_PLACEMENT_3D('',#994,#835,#836);
#666=AXIS2_PLACEMENT_3D('',#995,#837,#838);
#667=AXIS2_PLACEMENT_3D('',#997,#839,#840);
#668=AXIS2_PLACEMENT_3D('',#998,#841,#842);
#669=AXIS2_PLACEMENT_3D('',#999,#843,#844);
#670=AXIS2_PLACEMENT_3D('',#1001,#845,#846);
#671=DIRECTION('',(0.,0.,1.));
#672=DIRECTION('',(1.,0.,0.));
#673=DIRECTION('',(0.,-1.,0.));
#674=DIRECTION('',(1.,0.,0.));
#675=DIRECTION('',(0.,-1.,0.));
#676=DIRECTION('',(0.,0.,-1.));
#677=DIRECTION('',(0.,-1.,0.));
#678=DIRECTION('',(0.,0.,-1.));
#679=DIRECTION('',(0.,-1.,0.));
#680=DIRECTION('',(0.,0.,-1.));
#681=DIRECTION('',(0.,-1.,0.));
#682=DIRECTION('',(0.,0.,-1.));
#683=DIRECTION('',(0.,-1.,0.));
#684=DIRECTION('',(0.,0.,-1.));
#685=DIRECTION('',(0.,-1.,0.));
#686=DIRECTION('',(0.,0.,-1.));
#687=DIRECTION('',(0.,-1.,0.));
#688=DIRECTION('',(0.,0.,-1.));
#689=DIRECTION('',(0.,-1.,0.));
#690=DIRECTION('',(0.,0.,-1.));
#691=DIRECTION('',(0.,-1.,0.));
#692=DIRECTION('',(0.,0.,-1.));
#693=DIRECTION('',(0.,-1.,0.));
#694=DIRECTION('',(0.,0.,-1.));
#695=DIRECTION('',(0.,0.,1.));
#696=DIRECTION('',(1.,0.,0.));
#697=DIRECTION('',(0.,0.,1.));
#698=DIRECTION('',(1.,0.,0.));
#699=DIRECTION('',(0.,1.,0.));
#700=DIRECTION('',(0.,0.,1.));
#701=DIRECTION('',(0.,-1.,0.));
#702=DIRECTION('',(0.,0.,-1.));
#703=DIRECTION('',(0.,1.,0.));
#704=DIRECTION('',(0.,0.,1.));
#705=DIRECTION('',(0.,-1.,0.));
#706=DIRECTION('',(0.,0.,-1.));
#707=DIRECTION('',(1.,0.,0.));
#708=DIRECTION('',(0.,0.,-1.));
#709=DIRECTION('',(0.,-1.,0.));
#710=DIRECTION('',(0.,0.,1.));
#711=DIRECTION('',(0.,-1.,0.));
#712=DIRECTION('',(0.,0.,-1.));
#713=DIRECTION('',(-1.,0.,0.));
#714=DIRECTION('',(1.,0.,0.));
#715=DIRECTION('',(0.,-1.,0.));
#716=DIRECTION('',(0.,1.,0.));
#717=DIRECTION('',(0.,0.,1.));
#718=DIRECTION('',(0.,-1.,0.));
#719=DIRECTION('',(0.,0.,-1.));
#720=DIRECTION('',(0.,1.,0.));
#721=DIRECTION('',(0.,0.,1.));
#722=DIRECTION('',(0.,-1.,0.));
#723=DIRECTION('',(0.,0.,-1.));
#724=DIRECTION('',(0.,1.,0.));
#725=DIRECTION('',(0.,0.,1.));
#726=DIRECTION('',(0.,-1.,0.));
#727=DIRECTION('',(0.,0.,-1.));
#728=DIRECTION('',(0.,1.,0.));
#729=DIRECTION('',(0.,0.,1.));
#730=DIRECTION('',(0.,-1.,0.));
#731=DIRECTION('',(0.,0.,-1.));
#732=DIRECTION('',(0.,1.,0.));
#733=DIRECTION('',(0.,0.,1.));
#734=DIRECTION('',(0.,-1.,0.));
#735=DIRECTION('',(0.,0.,-1.));
#736=DIRECTION('',(0.,1.,0.));
#737=DIRECTION('',(0.,0.,1.));
#738=DIRECTION('',(0.,-1.,0.));
#739=DIRECTION('',(0.,0.,-1.));
#740=DIRECTION('',(0.,1.,0.));
#741=DIRECTION('',(0.,0.,1.));
#742=DIRECTION('',(0.,-1.,0.));
#743=DIRECTION('',(0.,0.,-1.));
#744=DIRECTION('',(0.,1.,0.));
#745=DIRECTION('',(0.,0.,1.));
#746=DIRECTION('',(0.,-1.,0.));
#747=DIRECTION('',(0.,0.,-1.));
#748=DIRECTION('',(0.,-1.,0.));
#749=DIRECTION('',(0.,0.,-1.));
#750=DIRECTION('',(0.,-1.,0.));
#751=DIRECTION('',(0.,0.,-1.));
#752=DIRECTION('',(0.,-1.,0.));
#753=DIRECTION('',(0.,0.,-1.));
#754=DIRECTION('',(0.,-1.,0.));
#755=DIRECTION('',(0.,0.,-1.));
#756=DIRECTION('',(1.,0.,0.));
#757=DIRECTION('',(0.,0.,-1.));
#758=DIRECTION('',(1.,0.,0.));
#759=DIRECTION('',(0.,0.,-1.));
#760=DIRECTION('',(1.,0.,0.));
#761=DIRECTION('',(0.,0.,-1.));
#762=DIRECTION('',(0.,-1.,0.));
#763=DIRECTION('',(1.,0.,0.));
#764=DIRECTION('',(0.,0.,1.));
#765=DIRECTION('',(0.,-1.,0.));
#766=DIRECTION('',(0.,0.,-1.));
#767=DIRECTION('',(-1.,0.,0.));
#768=DIRECTION('',(0.,-1.,0.));
#769=DIRECTION('',(0.,0.,-1.));
#770=DIRECTION('',(0.,0.,1.));
#771=DIRECTION('',(-1.,0.,0.));
#772=DIRECTION('',(0.,1.,0.));
#773=DIRECTION('',(0.,0.,1.));
#774=DIRECTION('',(0.,1.,0.));
#775=DIRECTION('',(0.,1.,0.));
#776=DIRECTION('',(0.,0.,1.));
#777=DIRECTION('',(0.,1.,0.));
#778=DIRECTION('',(0.,0.,-1.));
#779=DIRECTION('',(-1.,0.,0.));
#780=DIRECTION('',(0.,1.,0.));
#781=DIRECTION('',(1.,0.,0.));
#782=DIRECTION('',(0.,1.,0.));
#783=DIRECTION('',(0.,-1.,0.));
#784=DIRECTION('',(0.,0.,-1.));
#785=DIRECTION('',(0.,1.,0.));
#786=DIRECTION('',(0.,1.,0.));
#787=DIRECTION('',(0.,0.,1.));
#788=DIRECTION('',(0.,1.,0.));
#789=DIRECTION('',(-1.,0.,0.));
#790=DIRECTION('',(0.,0.,1.));
#791=DIRECTION('',(0.,0.,-1.));
#792=DIRECTION('',(0.,0.,-1.));
#793=DIRECTION('',(-1.,0.,0.));
#794=DIRECTION('',(1.,0.,0.));
#795=DIRECTION('',(-1.,0.,0.));
#796=DIRECTION('',(0.,0.,1.));
#797=DIRECTION('',(0.,0.,-1.));
#798=DIRECTION('',(1.,0.,0.));
#799=DIRECTION('',(0.,0.,-1.));
#800=DIRECTION('',(0.,0.,1.));
#801=DIRECTION('',(0.,-1.,0.));
#802=DIRECTION('',(0.,0.,-1.));
#803=DIRECTION('',(-1.,0.,0.));
#804=DIRECTION('',(1.,0.,0.));
#805=DIRECTION('',(0.,1.,0.));
#806=DIRECTION('',(-1.,0.,0.));
#807=DIRECTION('',(0.,1.,0.));
#808=DIRECTION('',(0.,0.,1.));
#809=DIRECTION('',(0.,1.,0.));
#810=DIRECTION('',(0.,0.,1.));
#811=DIRECTION('',(0.,1.,0.));
#812=DIRECTION('',(0.,0.,1.));
#813=DIRECTION('',(0.,1.,0.));
#814=DIRECTION('',(-1.,0.,0.));
#815=DIRECTION('',(0.,1.,0.));
#816=DIRECTION('',(0.,0.,1.));
#817=DIRECTION('',(0.,1.,0.));
#818=DIRECTION('',(0.,0.,1.));
#819=DIRECTION('',(0.,1.,0.));
#820=DIRECTION('',(0.,0.,1.));
#821=DIRECTION('',(0.,1.,0.));
#822=DIRECTION('',(0.,0.,1.));
#823=DIRECTION('',(0.,1.,0.));
#824=DIRECTION('',(-1.,0.,0.));
#825=DIRECTION('',(0.,1.,0.));
#826=DIRECTION('',(0.,0.,1.));
#827=DIRECTION('',(0.,1.,0.));
#828=DIRECTION('',(0.,0.,1.));
#829=DIRECTION('',(0.,1.,0.));
#830=DIRECTION('',(-1.,0.,0.));
#831=DIRECTION('',(0.,1.,0.));
#832=DIRECTION('',(0.,0.,1.));
#833=DIRECTION('',(0.,1.,0.));
#834=DIRECTION('',(0.,0.,1.));
#835=DIRECTION('',(0.,1.,0.));
#836=DIRECTION('',(-1.,0.,0.));
#837=DIRECTION('',(0.,1.,0.));
#838=DIRECTION('',(0.,0.,1.));
#839=DIRECTION('',(0.,1.,0.));
#840=DIRECTION('',(0.,0.,1.));
#841=DIRECTION('',(0.,1.,0.));
#842=DIRECTION('',(-1.,0.,0.));
#843=DIRECTION('',(0.,1.,0.));
#844=DIRECTION('',(0.,0.,1.));
#845=DIRECTION('',(0.,1.,0.));
#846=DIRECTION('',(0.,0.,1.));
#847=CARTESIAN_POINT('',(0.,0.,0.));
#848=CARTESIAN_POINT('',(0.,0.,0.00531425915900674));
#849=CARTESIAN_POINT('',(0.0525,0.,-0.0118572404514998));
#850=CARTESIAN_POINT('',(0.0525,0.,-0.0140572404514998));
#851=CARTESIAN_POINT('',(0.0525,0.,-0.1168572404515));
#852=CARTESIAN_POINT('',(0.0525,0.,-0.1190572404515));
#853=CARTESIAN_POINT('',(-0.0525,0.,-0.1168572404515));
#854=CARTESIAN_POINT('',(-0.0525,0.,-0.1190572404515));
#855=CARTESIAN_POINT('',(-0.0525,0.,-0.0118572404514998));
#856=CARTESIAN_POINT('',(-0.0525,0.,-0.0140572404514998));
#857=CARTESIAN_POINT('',(0.0525,0.,0.127477021664381));
#858=CARTESIAN_POINT('',(0.0525,0.,0.125277021664381));
#859=CARTESIAN_POINT('',(0.0525,0.,0.022477021664381));
#860=CARTESIAN_POINT('',(0.0525,0.,0.020277021664381));
#861=CARTESIAN_POINT('',(-0.0525,0.,0.022477021664381));
#862=CARTESIAN_POINT('',(-0.0525,0.,0.020277021664381));
#863=CARTESIAN_POINT('',(-0.0525,0.,0.127477021664381));
#864=CARTESIAN_POINT('',(-0.0525,0.,0.125277021664381));
#865=CARTESIAN_POINT('',(4.16333634234433E-17,0.,0.074977021664381));
#866=CARTESIAN_POINT('',(4.16333634234433E-17,0.,0.014977021664381));
#867=CARTESIAN_POINT('',(-3.24610635090336E-18,0.,-0.0643572404514999));
#868=CARTESIAN_POINT('',(-3.24610635090336E-18,0.,-0.1243572404515));
#869=CARTESIAN_POINT('',(0.0677,0.,0.00532124163800937));
#870=CARTESIAN_POINT('',(0.0677,0.,-0.1320572404515));
#871=CARTESIAN_POINT('',(0.0677,0.,0.142699723727518));
#872=CARTESIAN_POINT('',(0.,0.,-0.1320572404515));
#873=CARTESIAN_POINT('',(-0.0677,0.,-0.1320572404515));
#874=CARTESIAN_POINT('',(-0.0677,0.,0.00532124163800937));
#875=CARTESIAN_POINT('',(-0.0677,0.,0.142699723727519));
#876=CARTESIAN_POINT('',(4.16333634234433E-17,0.,0.142699723727519));
#877=CARTESIAN_POINT('',(4.16333634234433E-17,-0.015,0.074977021664381));
#878=CARTESIAN_POINT('',(4.16333634234433E-17,-0.0115202,0.074977021664381));
#879=CARTESIAN_POINT('',(4.16333634234433E-17,-0.0115202,0.014977021664381));
#880=CARTESIAN_POINT('',(-3.24610635090336E-18,-0.015,-0.0643572404514999));
#881=CARTESIAN_POINT('',(-3.24610635090336E-18,-0.0115202,-0.0643572404514999));
#882=CARTESIAN_POINT('',(-3.24610635090336E-18,-0.0115202,-0.1243572404515));
#883=CARTESIAN_POINT('',(-0.0677,0.127,0.00532124163800937));
#884=CARTESIAN_POINT('',(-0.0677,0.127,-0.1320572404515));
#885=CARTESIAN_POINT('',(-0.0677,0.127,-0.1320572404515));
#886=CARTESIAN_POINT('',(-0.0677,0.127,0.00532124163800937));
#887=CARTESIAN_POINT('',(-0.0677,0.127,0.142699723727519));
#888=CARTESIAN_POINT('',(-0.0677,0.127,0.142699723727519));
#889=CARTESIAN_POINT('',(4.16333634234433E-17,0.127,0.142699723727519));
#890=CARTESIAN_POINT('',(4.16333634234433E-17,0.127,0.142699723727519));
#891=CARTESIAN_POINT('',(0.0677,0.127,0.142699723727518));
#892=CARTESIAN_POINT('',(0.0677,0.127,0.142699723727518));
#893=CARTESIAN_POINT('',(0.0525,-0.015,-0.0118572404514998));
#894=CARTESIAN_POINT('',(0.0525,-0.015,-0.0118572404514998));
#895=CARTESIAN_POINT('',(0.0525,-0.015,-0.0140572404514998));
#896=CARTESIAN_POINT('',(0.0525,-0.015,-0.1168572404515));
#897=CARTESIAN_POINT('',(0.0525,-0.015,-0.1168572404515));
#898=CARTESIAN_POINT('',(0.0525,-0.015,-0.1190572404515));
#899=CARTESIAN_POINT('',(-0.0525,-0.015,-0.1168572404515));
#900=CARTESIAN_POINT('',(-0.0525,-0.015,-0.1168572404515));
#901=CARTESIAN_POINT('',(-0.0525,-0.015,-0.1190572404515));
#902=CARTESIAN_POINT('',(-0.0525,-0.015,-0.0118572404514998));
#903=CARTESIAN_POINT('',(-0.0525,-0.015,-0.0118572404514998));
#904=CARTESIAN_POINT('',(-0.0525,-0.015,-0.0140572404514998));
#905=CARTESIAN_POINT('',(0.0525,-0.015,0.127477021664381));
#906=CARTESIAN_POINT('',(0.0525,-0.015,0.127477021664381));
#907=CARTESIAN_POINT('',(0.0525,-0.015,0.125277021664381));
#908=CARTESIAN_POINT('',(0.0525,-0.015,0.022477021664381));
#909=CARTESIAN_POINT('',(0.0525,-0.015,0.022477021664381));
#910=CARTESIAN_POINT('',(0.0525,-0.015,0.020277021664381));
#911=CARTESIAN_POINT('',(-0.0525,-0.015,0.022477021664381));
#912=CARTESIAN_POINT('',(-0.0525,-0.015,0.022477021664381));
#913=CARTESIAN_POINT('',(-0.0525,-0.015,0.020277021664381));
#914=CARTESIAN_POINT('',(-0.0525,-0.015,0.127477021664381));
#915=CARTESIAN_POINT('',(-0.0525,-0.015,0.127477021664381));
#916=CARTESIAN_POINT('',(-0.0525,-0.015,0.125277021664381));
#917=CARTESIAN_POINT('',(4.16333634234433E-17,-0.0115202,0.074977021664381));
#918=CARTESIAN_POINT('',(4.16333634234433E-17,-0.015,0.074977021664381));
#919=CARTESIAN_POINT('',(4.16333634234433E-17,-0.015,0.011497221664381));
#920=CARTESIAN_POINT('',(-3.24610635090336E-18,-0.0115202,-0.0643572404514999));
#921=CARTESIAN_POINT('',(-3.24610635090336E-18,-0.015,-0.0643572404514999));
#922=CARTESIAN_POINT('',(-3.24610635090336E-18,-0.015,-0.1278370404515));
#923=CARTESIAN_POINT('',(0.0473,0.110736459493637,-0.1220572404515));
#924=CARTESIAN_POINT('',(0.0727,0.110736459493637,-0.1220572404515));
#925=CARTESIAN_POINT('',(0.0727,0.110736459493637,-0.1260572404515));
#926=CARTESIAN_POINT('',(0.0677,0.110736459493637,-0.1220572404515));
#927=CARTESIAN_POINT('',(0.0677,0.110736459493637,-0.1260572404515));
#928=CARTESIAN_POINT('',(0.,-0.015,0.00531425915900674));
#929=CARTESIAN_POINT('',(0.0727,-0.015,0.00531425915900674));
#930=CARTESIAN_POINT('',(0.0727,-0.015,-0.1370572404515));
#931=CARTESIAN_POINT('',(0.0727,-0.015,0.144205958769513));
#932=CARTESIAN_POINT('',(0.0692202,-0.015,0.144205958769513));
#933=CARTESIAN_POINT('',(0.0692202,-0.015,0.147685758769513));
#934=CARTESIAN_POINT('',(0.00635,-0.015,0.147685758769513));
#935=CARTESIAN_POINT('',(-0.0692202,-0.015,0.147685758769513));
#936=CARTESIAN_POINT('',(-0.0692202,-0.015,0.144205958769513));
#937=CARTESIAN_POINT('',(-0.0727,-0.015,0.144205958769513));
#938=CARTESIAN_POINT('',(-0.0727,-0.015,0.00531425915900674));
#939=CARTESIAN_POINT('',(-0.0727,-0.015,-0.1370572404515));
#940=CARTESIAN_POINT('',(-0.00635,-0.015,-0.1370572404515));
#941=CARTESIAN_POINT('',(0.0692202,-0.015,0.144205958769513));
#942=CARTESIAN_POINT('',(0.0727,-0.015,0.144205958769513));
#943=CARTESIAN_POINT('',(0.0727,0.12938,0.144205958769513));
#944=CARTESIAN_POINT('',(0.0692202,0.12938,0.144205958769513));
#945=CARTESIAN_POINT('',(0.0692202,0.12938,0.147685758769513));
#946=CARTESIAN_POINT('',(0.0692202,-0.015,0.147685758769513));
#947=CARTESIAN_POINT('',(-0.00635,-0.015,-0.1370572404515));
#948=CARTESIAN_POINT('',(-0.0727,-0.015,-0.1370572404515));
#949=CARTESIAN_POINT('',(-0.0727,0.12938,-0.1370572404515));
#950=CARTESIAN_POINT('',(-0.00635,0.12938,-0.1370572404515));
#951=CARTESIAN_POINT('',(0.0727,0.12938,-0.1370572404515));
#952=CARTESIAN_POINT('',(0.0727,-0.015,-0.1370572404515));
#953=CARTESIAN_POINT('',(-0.0692202,-0.015,0.144205958769513));
#954=CARTESIAN_POINT('',(-0.0692202,-0.015,0.147685758769513));
#955=CARTESIAN_POINT('',(-0.0692202,0.12938,0.147685758769513));
#956=CARTESIAN_POINT('',(-0.0692202,0.12938,0.144205958769513));
#957=CARTESIAN_POINT('',(-0.0727,0.12938,0.144205958769513));
#958=CARTESIAN_POINT('',(-0.0727,0.137,0.144205958769513));
#959=CARTESIAN_POINT('',(-0.0727,-0.015,0.00531425915900674));
#960=CARTESIAN_POINT('',(-0.0727,0.12938,0.00531425915900674));
#961=CARTESIAN_POINT('',(0.00635,-0.015,0.147685758769513));
#962=CARTESIAN_POINT('',(0.00635,0.12938,0.147685758769513));
#963=CARTESIAN_POINT('',(0.0727,-0.015,0.00531425915900674));
#964=CARTESIAN_POINT('',(0.0727,0.12938,0.00531425915900674));
#965=CARTESIAN_POINT('',(0.0677,0.127,0.00532124163800937));
#966=CARTESIAN_POINT('',(0.0677,0.127,0.00532124163800937));
#967=CARTESIAN_POINT('',(0.0677,0.127,-0.1320572404515));
#968=CARTESIAN_POINT('',(0.0677,0.127,-0.1320572404515));
#969=CARTESIAN_POINT('',(0.,0.127,-0.1320572404515));
#970=CARTESIAN_POINT('',(0.,0.127,-0.1320572404515));
#971=CARTESIAN_POINT('',(0.,0.127,0.00531425915900674));
#972=CARTESIAN_POINT('',(8.3826352495973E-18,0.127,-0.0759697109460831));
#973=CARTESIAN_POINT('',(8.3826352495973E-18,0.127,-0.0384697109460831));
#974=CARTESIAN_POINT('',(8.3826352495973E-18,0.1116,-0.0759697109460831));
#975=CARTESIAN_POINT('',(8.3826352495973E-18,0.12938,-0.0759697109460831));
#976=CARTESIAN_POINT('',(8.3826352495973E-18,0.12938,-0.0384697109460831));
#977=CARTESIAN_POINT('',(6.93889390390723E-18,0.12938,0.00357435915900674));
#978=CARTESIAN_POINT('',(-0.0702000111341476,0.12938,0.145192742347717));
#979=CARTESIAN_POINT('',(-0.0702000111341476,0.12938,0.146792742347717));
#980=CARTESIAN_POINT('',(0.0702000036835671,0.12938,-0.134557247161865));
#981=CARTESIAN_POINT('',(0.0702000036835671,0.12938,-0.132957247161865));
#982=CARTESIAN_POINT('',(-0.0702005475759506,0.12938,-0.134556472301483));
#983=CARTESIAN_POINT('',(-0.0702005475759506,0.12938,-0.132956472301483));
#984=CARTESIAN_POINT('',(0.0702000036835671,0.12938,0.145192742347717));
#985=CARTESIAN_POINT('',(0.0702000036835671,0.12938,0.146792742347717));
#986=CARTESIAN_POINT('',(0.,0.127,0.00531425915900674));
#987=CARTESIAN_POINT('',(0.0702000036835671,0.127,-0.134557247161865));
#988=CARTESIAN_POINT('',(0.0702000036835671,0.127,-0.132957247161865));
#989=CARTESIAN_POINT('',(0.0702000036835671,0.127,-0.134557247161865));
#990=CARTESIAN_POINT('',(0.,0.127,0.00531425915900674));
#991=CARTESIAN_POINT('',(-0.0702005475759506,0.127,-0.134556472301483));
#992=CARTESIAN_POINT('',(-0.0702005475759506,0.127,-0.132956472301483));
#993=CARTESIAN_POINT('',(-0.0702005475759506,0.127,-0.134556472301483));
#994=CARTESIAN_POINT('',(0.,0.127,0.00531425915900674));
#995=CARTESIAN_POINT('',(-0.0702000111341476,0.127,0.145192742347717));
#996=CARTESIAN_POINT('',(-0.0702000111341476,0.127,0.146792742347717));
#997=CARTESIAN_POINT('',(-0.0702000111341476,0.127,0.145192742347717));
#998=CARTESIAN_POINT('',(0.,0.127,0.00531425915900674));
#999=CARTESIAN_POINT('',(0.0702000036835671,0.127,0.145192742347717));
#1000=CARTESIAN_POINT('',(0.0702000036835671,0.127,0.146792742347717));
#1001=CARTESIAN_POINT('',(0.0702000036835671,0.127,0.145192742347717));
#1002=MECHANICAL_DESIGN_GEOMETRIC_PRESENTATION_REPRESENTATION('',(#585),
#1003);
#1003=(
GEOMETRIC_REPRESENTATION_CONTEXT(3)
GLOBAL_UNCERTAINTY_ASSIGNED_CONTEXT((#1004))
GLOBAL_UNIT_ASSIGNED_CONTEXT((#1007,#1006,#1005))
REPRESENTATION_CONTEXT('Part 5','TOP_LEVEL_ASSEMBLY_PART')
);
#1004=UNCERTAINTY_MEASURE_WITH_UNIT(LENGTH_MEASURE(1.E-8),#1007,
'DISTANCE_ACCURACY_VALUE','Maximum Tolerance applied to model');
#1005=(
NAMED_UNIT(*)
SI_UNIT($,.STERADIAN.)
SOLID_ANGLE_UNIT()
);
#1006=(
NAMED_UNIT(*)
PLANE_ANGLE_UNIT()
SI_UNIT($,.RADIAN.)
);
#1007=(
LENGTH_UNIT()
NAMED_UNIT(*)
SI_UNIT($,.METRE.)
);
#1008=PRODUCT_DEFINITION_SHAPE('','',#1009);
#1009=PRODUCT_DEFINITION('','',#1011,#1010);
#1010=PRODUCT_DEFINITION_CONTEXT('',#1017,'design');
#1011=PRODUCT_DEFINITION_FORMATION_WITH_SPECIFIED_SOURCE('','',#1013,
 .NOT_KNOWN.);
#1012=PRODUCT_RELATED_PRODUCT_CATEGORY('','',(#1013));
#1013=PRODUCT('Part 5','Part 5','Part 5',(#1015));
#1014=PRODUCT_CATEGORY('','');
#1015=PRODUCT_CONTEXT('',#1017,'mechanical');
#1016=APPLICATION_PROTOCOL_DEFINITION('international standard',
'ap242_managed_model_based_3d_engineering',2020,#1017);
#1017=APPLICATION_CONTEXT('managed model based 3d engineering');
ENDSEC;
END-ISO-10303-21;
